<?xml version="1.0" encoding="UTF-8"?>
<svg id="Object" xmlns="http://www.w3.org/2000/svg" viewBox="0 0 1045.3 951.28">
  <defs>
    <style>
      .cls-1 {
        fill: #98bf98;
      }

      .cls-2 {
        fill: #fff;
      }

      .cls-3 {
        fill: #6a8e6a;
      }

      .cls-4 {
        fill: #3f6340;
      }

      .cls-5 {
        fill: #b0d6b0;
      }

      .cls-6 {
        fill: #fde5dc;
      }

      .cls-7 {
        fill: #99b06a;
      }

      .cls-8 {
        fill: #f2a28d;
      }

      .cls-9 {
        fill: #e3efdb;
      }

      .cls-10 {
        fill: #e98265;
      }
    </style>
  </defs>
  <path class="cls-6" d="M534.83,341.49c-.84-1.98-1.75-3.92-2.75-5.84-8.79-16.85-28.67-35.86-48.7-37.56-22.68-1.93-46.05-2.35-68.96-4.34-49.86-4.33-100.25-10.12-147.94-26.02-33.18-11.06-65.89-27.57-86.74-54.8-43.12-56.34-1.74-112.42,50.57-144.71,62.27-38.44,142.41-51.45,214.74-59.36,103.98-11.38,209.7-12.92,313.34,2.06,88.52,12.79,201.25,32.88,263.2,101.22,17.52,19.33,26.78,46.74,22.77,72.39-4.29,27.39-22.16,50.82-41.47,70.44-41.32,41.98-102.23,59.41-160.06,66.96-41.26,5.39-82.63,10.02-124.13,13.17-20.53,1.56-41.08,2.75-61.66,3.47-15.05.53-35.21-2.33-47.37,8.33-4.36,3.83-7.51,8.8-10.82,13.57-7.06,10.19-15.08,19.72-23.92,28.41-3.91,3.84-8.27,7.68-13.65,8.71-10.37,1.99-12.39-6.81-14.55-14.46-3.92-13.9-6.31-28.4-11.92-41.63Z"/>
  <ellipse class="cls-4" cx="106.37" cy="925.61" rx="64.78" ry="16.29"/>
  <path class="cls-10" d="M127.76,791.3s6.85,20.93,17.11,23.16c10.26,2.22,34.44-25.66,50.19-24.1,4.33.43,4.03-4.31.44-4.23-.98.02-2.86-.27-9.23,1.15-14.4,3.22-36.37,15.01-35.57,9.15,3.15-23.12-19.76-18.57-22.93-5.12Z"/>
  <path class="cls-10" d="M109.03,795.57s3.92,21.67-4.05,28.51c-7.97,6.83-42.5-6.21-55.61,2.64-3.61,2.43-5.6-1.88-2.4-3.52.87-.45,2.38-1.6,8.67-3.37,14.2-4.01,39.14-4.08,35.65-8.86-13.76-18.84,8.57-25.73,17.74-15.4Z"/>
  <path class="cls-3" d="M171.93,679.94c-2.85-7.85-6.27-15.56-10.48-22.78-1.6-2.75-3.33-5.43-5.27-7.95-2.32-3.01-5.15-5.54-7.66-8.39-10.47-11.92-18.98-25.66-26.78-39.43-3.75-6.63-7.32-13.37-10.6-20.25-2.39-5.01-4.73-10.12-6.4-15.43-1.08-3.44-1.61-7.03-2.27-10.56-1-5.32-2.22-10.6-4.44-15.56-7.16-15.42-24.16-23.12-40.57-22.86-10.36.16-19.79,3.65-27.83,10.15-3.92,3.17-7.91,6.29-11.57,9.77-2.85,2.7-5.48,5.67-7.34,9.14-1.91,3.58-2.93,7.51-3.36,11.53-.61,5.66-.29,11.39.22,17.05.8,8.72,2.14,17.38,3.52,26.02,3.11,19.43,3.4,39.18,2.82,58.8-.54,18.19-1.99,36.33-2.74,54.51-.48,11.59-.81,23.22,1.93,34.56,1.48,6.13,2.86,12.3,5.26,18.15,2.72,6.62,6.72,12.63,12.17,17.32,7.21,6.2,16.3,9.7,25.5,11.67,14.96,3.2,30.63,2.76,45.78,1.34,15.39-1.44,31.24-3.41,45.26-10.36,9.45-4.69,17.73-11.61,23.47-20.51,5.3-8.22,8.31-17.71,9.55-27.37,1.28-9.97.8-20.12-.75-30.04-1.53-9.71-4.08-19.27-7.43-28.5Z"/>
  <path class="cls-5" d="M97.37,532.54c-1.78-4.52-2.93-9.3-5.04-13.7-.25-.52-.52-.98-.84-1.45-.02-.04-.04-.06-.05-.08t0,0c-1.52-2.67-3.6-4.96-6.02-6.86-5.45-4.26-12.3-6.26-19.13-6.71-5.75-.38-11.33.71-17.02,1.1-10.71.73-21.91,3.92-30.38,10.72-5.76,4.62-9.87,10.92-11.73,18.08-.82,3.16-.91,6.34-1.41,9.53-.5,3.22-1.07,6.44-1.7,9.64-.74,3.76-1.45,7.67-2.88,11.24-.57,1.42-1.19,2.62-1.16,4.2.03,1.76.69,3.47,1.7,4.9,2.15,3.01,5.96,4.65,9.6,3.68,2.24-.6,4-2.34,5.37-4.13,3.94-5.16,6.09-11.67,8.25-17.71,1.05-2.93,2.05-5.89,3.23-8.77.57-1.4,1.36-4.18,2.78-5.01,1.11-.65,1.95,1.39,2.3,2.23.57,3.55,1.43,7.06,2.42,10.51,1.75,6.06,3.99,12.37,8,17.33,3.3,4.08,8.68,6.75,13.72,3.95,4.47-2.49,5.13-8.22,5.15-12.82.02-6.22-1.1-12.38-1.54-18.57-.22-3.12-1.11-10.37,3.16-11.35,1.24-.28,2.55-.03,3.76.26,2.72.66,5.32,1.77,7.74,3.18,4.07,2.37,7.54,5.61,11.54,8.07,3.39,2.08,7.48,3.65,10.8.55,1.42-1.33,2.3-3.24,2.23-5.2-.09-2.48-1.96-4.54-2.85-6.78Z"/>
  <path class="cls-7" d="M47.24,491.5c.6-2.55-3.66-4.46-4.3-1.76-.8,3.37-1.28,6.89-1.35,10.36-.08,4.52.64,10.79,5.69,12.46,2.86.95,4.07-3.05,1.33-3.96-.77-.26-.86-.3-1.26-.86-.37-.53-.67-1.37-.85-2.14-.47-1.99-.48-4.06-.37-6.09.15-2.87.53-5.56,1.1-8.01Z"/>
  <path class="cls-9" d="M79.73,697.33s-2.01-.83-2.12,2.41c-.11,3.24.94,11.16,2.93,10.72,2-.44,1.03-7.08,1.03-7.08,0,0-.91-5.69-1.84-6.05Z"/>
  <path class="cls-9" d="M61.39,692.34c2.74,4.51,8.34,10.42,13.94,6.85,1.06-.68.43-1.86-.65-1.17-4.47,2.85-9.4-3.27-11.47-6.69-.47-.78-2.28.24-1.81,1.01h0Z"/>
  <path class="cls-9" d="M62.45,685.71c1.97,5.84,6.53,14.47,13.9,13.25,1.01-.17,1.62-1.87.28-1.64-6.47,1.07-10.65-7.53-12.24-12.23-.35-1.03-2.24-.26-1.94.63h0Z"/>
  <path class="cls-9" d="M66.43,681.94c.7,6.68,3.7,17.15,12.04,16.8.79-.03,2.06-1.55.85-1.5-7.69.32-10.34-9.91-10.98-15.98-.1-.93-2-.13-1.91.68h0Z"/>
  <path class="cls-9" d="M107.29,690.68s1.37-1.69,3.01,1.11c1.64,2.8,4.48,10.27,2.52,10.83-1.96.56-4.27-5.74-4.27-5.74,0,0-1.9-5.44-1.26-6.2Z"/>
  <path class="cls-9" d="M121.05,677.58c-.26,5.27-2.39,13.13-9.01,12.65-1.26-.09-1.27-1.43.02-1.34,5.29.39,6.71-7.34,6.91-11.34.05-.91,2.12-.87,2.08.03h0Z"/>
  <path class="cls-9" d="M116.97,672.24c1.05,6.08,1.13,15.84-5.93,18.26-.97.33-2.32-.87-1.03-1.31,6.2-2.13,5.79-11.69,4.95-16.58-.18-1.07,1.85-1.3,2.01-.37h0Z"/>
  <path class="cls-9" d="M111.68,670.82c2.56,6.21,4.9,16.85-2.61,20.51-.71.34-2.55-.39-1.46-.92,6.92-3.37,4.38-13.64,2.06-19.28-.36-.87,1.7-1.07,2.01-.31h0Z"/>
  <path class="cls-9" d="M150.76,710.5c0-1.72.08-3.45.21-5.16.09-1.19.2-2.38.43-3.55.08-.41.23-.81.32-1.21.04-.1.08-.2.13-.3.17-.23.15-.26-.08-.07.13.05.3.18.37.29,2.09,3.71,2.78,8.21,3.44,12.39.01.09.86-.21.82-.46-.36-2.3-.81-4.6-1.37-6.86-.28-1.14-1.09-6.04-2.85-5.87-1.75.17-1.79,3.57-1.91,4.72-.22,2.14-.31,4.31-.32,6.46,0,.16.82-.16.82-.38h0Z"/>
  <path class="cls-9" d="M57.41,732.49c-1.06-1.93-2.19-3.84-3.44-5.65-.64-.93-2.26-3.91-3.75-2.82-1.51,1.1-.13,4.97.21,6.33.6,2.37,1.32,4.71,2.14,7.01.05.13.89-.25.82-.46-.63-1.78-1.2-3.58-1.71-5.4-.62-2.22-1.58-4.93-1.12-7.25.05-.25-.24-.03-.1.04.18.1.34.2.5.33.35.27.64.63.92.97.76.92,1.43,1.92,2.07,2.92.93,1.45,1.81,2.93,2.64,4.44.09.16.91-.29.82-.46h0Z"/>
  <ellipse class="cls-5" cx="729.02" cy="925.61" rx="87.31" ry="21.31"/>
  <path class="cls-10" d="M756.37,819.99s.68,92.58,8.58,92.9c6.4.25,1.52-3.72,2.44-19.44.92-15.71,20.45-64.96,20.45-64.96,0,0,3.95-7.74-4.12-10.77-8.08-3.03-28.1-6.9-27.35,2.27Z"/>
  <path class="cls-10" d="M734.37,829.72s-5.39,24.93-16.94,28.72c-11.55,3.79-42.75-25.44-60.7-21.77-4.94,1.01-5.16-4.49-1.01-4.82,1.13-.09,3.26-.66,10.77.22,16.97,1.99,43.69,12.94,42.07,6.28-6.4-26.25,20.54-23.75,25.8-8.64Z"/>
  <path class="cls-5" d="M750.4,623c5.75-16.78,47.29-80.24,35.79-110.88-11.5-30.64-19.17-23.34-17.89-40.12,1.28-16.78,3.83-49.61-21.09-51.06-24.92-1.46-54.32,2.19-53.68,29.91.64,27.72,3.83,29.91-3.83,38.66-7.67,8.75-19.17,8.75-19.81,32.83-.64,24.07,11.5,28.45,17.25,43.77s-3.2,30.64,5.11,47.42c8.31,16.78,8.95,73.68,29.4,103.59,0,0,3.2,24.8,24.28,16.05,21.09-8.75-1.28-93.38,4.47-110.15Z"/>
  <path class="cls-8" d="M732.83,478.06c.19,7.83.39,15.66.58,23.5.46,18.81.93,37.61,1.39,56.42.56,22.75,1.12,45.49,1.69,68.24.49,19.65.97,39.3,1.46,58.95.16,6.43.32,12.87.48,19.3.05,2.02.1,4.04.15,6.06.02.87-.23,2.36.08,3.18.04.11,0,.29.01.4,0,.24,1.35.03,1.34-.36-.19-7.83-.39-15.66-.58-23.5-.46-18.81-.93-37.61-1.39-56.42-.56-22.75-1.12-45.49-1.69-68.24-.49-19.65-.97-39.3-1.46-58.95-.16-6.43-.32-12.87-.48-19.3-.05-2.02-.1-4.04-.15-6.06-.02-.87.24-2.36-.08-3.18-.04-.11,0-.29,0-.4,0-.24-1.35-.03-1.34.36h0Z"/>
  <path class="cls-8" d="M720.98,485.36c4.26,3.33,8.52,6.65,12.78,9.98.33.26,1,.06,1.24-.25,3.69-4.78,7.37-9.56,11.06-14.35.35-.46-.98-.35-1.24-.02-3.69,4.78-7.37,9.56-11.06,14.35.41-.08.83-.17,1.24-.25-4.26-3.33-8.52-6.65-12.78-9.98-.36-.28-1.59.24-1.24.52h0Z"/>
  <path class="cls-8" d="M728.16,546.78c2.24,2.54,4.49,5.09,6.73,7.63.24.27,1.05-.05,1.24-.27,2.24-2.54,4.49-5.09,6.73-7.63.31-.36-.98-.22-1.22.05-2.24,2.54-4.49,5.09-6.73,7.63.41-.09.83-.18,1.24-.27-2.24-2.54-4.49-5.09-6.73-7.63-.25-.28-1.51.18-1.25.48h0Z"/>
  <path class="cls-3" d="M731.77,645.44c-2.4-12.32-4.48-22.95-3.9-29.33.84-9.36-2.37-16.3-5.48-23.01-2.67-5.77-5.2-11.23-5.24-18.02-.03-5.14.98-9.58,1.96-13.87,1.92-8.43,3.74-16.39-1.58-29.21-6-14.44-12.86-15.73-19.51-16.98-2.37-.45-4.82-.91-7.2-1.97-6.5-2.9-7.24-5.28-10.33-15.29-1.17-3.79-2.63-8.5-4.85-14.74-3.9-10.96-11-18.83-19.98-22.16-8.98-3.33-19.41-2.04-29.36,3.64-11.05,6.3-13.08,21.27-12.84,32.72.28,13.21,3.75,27.09,7.04,33.98,3.24,6.79,2.53,9.28,1.1,14.26-1.31,4.57-3.29,11.49-3.19,25.9.15,22.64,30.42,47.69,50.46,64.27,6.37,5.27,11.41,9.44,13.85,12.22,3.66,4.18,7.07,17.41,11.02,32.73,6.77,26.25,14.42,55.95,26.91,55.95.19,0,.38,0,.58-.02,5.64-.41,9.84-2.45,12.48-6.06,4.85-6.63,2.8-16.48,2.62-17.3,4.62-20.68-.47-46.76-4.56-67.71Z"/>
  <path class="cls-8" d="M667.31,535.5c1.89,5.98,3.79,11.96,5.68,17.93,4.55,14.35,9.09,28.7,13.64,43.06,5.47,17.28,10.95,34.56,16.42,51.84,4.75,15,9.5,30,14.25,45,1.55,4.91,3.11,9.82,4.66,14.72.49,1.55.98,3.09,1.47,4.64.24.74.37,1.77.77,2.44.05.09.07.22.1.32.19.6,1.53.24,1.34-.36-1.89-5.98-3.79-11.96-5.68-17.93-4.55-14.35-9.09-28.7-13.64-43.06-5.47-17.28-10.95-34.56-16.42-51.84-4.75-15-9.5-30-14.25-45-1.55-4.91-3.11-9.82-4.66-14.72-.49-1.55-.98-3.09-1.47-4.64-.24-.74-.37-1.77-.77-2.44-.05-.09-.07-.22-.1-.32-.19-.6-1.53-.24-1.34.36h0Z"/>
  <path class="cls-8" d="M661.17,565.74c6.73,4.64,13.46,9.27,20.2,13.91.33.23.96,0,1.15-.31,4.49-7.03,8.98-14.06,13.46-21.09.36-.57-.99-.5-1.26-.08-4.49,7.03-8.98,14.06-13.46,21.09.38-.1.77-.21,1.15-.31-6.73-4.64-13.46-9.27-20.19-13.91-.41-.28-1.62.3-1.05.7h0Z"/>
  <path class="cls-8" d="M680.67,618.19c4.79,1.5,9.57,2.99,14.36,4.49.35.11.91-.04,1.15-.31,4.04-4.49,8.08-8.98,12.12-13.46.32-.36-.98-.23-1.23.05-4.04,4.49-8.08,8.98-12.12,13.46.38-.1.77-.21,1.15-.31-4.79-1.5-9.57-2.99-14.36-4.49-.34-.11-1.54.43-1.08.57h0Z"/>
  <path class="cls-3" d="M858.08,513.73c3.14-7.33,6.31-23.36,6.01-38.6-.48-23.76-8.51-32.78-15.17-36.17-9.66-4.91-19.57-5.48-28.66-1.65-10.5,4.43-18.9,14.62-23.05,27.96-2.11,6.78-3.47,11.89-4.57,16-2.89,10.86-3.58,13.44-10.41,16.9-2.49,1.26-5.1,1.89-7.61,2.49-7.04,1.69-14.31,3.44-20.11,19.18-5.15,13.98-2.88,22.38-.47,31.28,1.23,4.53,2.49,9.22,2.67,14.71.24,7.27-2.23,13.23-4.85,19.54-3.04,7.33-6.18,14.92-4.89,24.86.88,6.78-.9,18.26-2.95,31.54-3.49,22.6-7.84,50.73-2.04,72.57-.15.85-1.94,11.52,3.54,18.34,2.97,3.7,7.53,5.64,13.56,5.77.06,0,.12,0,.19,0,13.6,0,20.62-32.51,26.82-61.21,3.58-16.58,6.67-30.89,10.41-35.56,2.49-3.11,7.7-7.83,14.28-13.81,10.26-9.31,23.02-20.89,33.41-33.42,12.32-14.87,18.15-27.28,17.8-37.95-.5-15.4-2.9-22.68-4.49-27.49-1.73-5.24-2.6-7.87.58-15.3Z"/>
  <path class="cls-8" d="M822.14,520.63c-1.01,1.46-1.45,3.71-2.05,5.35-1.66,4.55-3.29,9.1-4.91,13.66-5.26,14.77-10.46,29.57-15.65,44.37-6.21,17.7-12.41,35.4-18.6,53.11-5.33,15.26-10.66,30.53-15.98,45.79-1.75,5.03-3.51,10.06-5.26,15.09-.55,1.58-1.1,3.16-1.65,4.74-.21.62-.91,1.81-.86,2.47,0,.08-.08.22-.11.31-.08.24,1.2.1,1.32-.24,2.11-6.06,4.22-12.12,6.33-18.17,5.1-14.65,10.21-29.29,15.33-43.93,6.18-17.7,12.37-35.39,18.58-53.08,5.4-15.4,10.81-30.8,16.27-46.18,1.83-5.15,3.66-10.3,5.52-15.44.6-1.65,1.2-3.31,1.81-4.95.3-.8.95-1.86,1.04-2.71.01-.13.13-.32.2-.43.08-.12-1.09-.09-1.32.24h0Z"/>
  <path class="cls-8" d="M764.47,660.71c1.35,3.89,2.69,7.78,4.04,11.67.12.35.88.1,1.07-.02,4.19-2.54,8.38-5.09,12.57-7.63.77-.47-.42-.55-.81-.31-4.19,2.54-8.38,5.09-12.57,7.63.36,0,.71-.01,1.07-.02-1.35-3.89-2.69-7.78-4.04-11.67-.14-.41-1.47-.02-1.34.36h0Z"/>
  <path class="cls-8" d="M787.13,562.43c3.74,7.93,7.48,15.86,11.22,23.79.16.34.66.37.96.19,10.71-6.27,21.42-12.54,32.12-18.8,1.56-.91,3.12-1.82,4.67-2.74.78-.46.07-1.13-.58-.75-10.71,6.27-21.42,12.54-32.12,18.8-1.56.91-3.12,1.82-4.67,2.74.32.06.64.13.96.19-3.74-7.93-7.48-15.86-11.22-23.79-.27-.56-1.59-.17-1.34.36h0Z"/>
  <path class="cls-8" d="M811.65,506.9c3.41,5.11,6.88,10.17,10.32,15.26.18.27.66.26.91.12,5.68-3.14,11.37-6.28,17.05-9.42.79-.44.08-1.21-.6-.83-5.68,3.14-11.37,6.28-17.05,9.42.3.04.61.08.91.12-3.44-5.08-6.91-10.15-10.32-15.26-.35-.53-1.62,0-1.22.6h0Z"/>
  <path class="cls-5" d="M813.66,747.33c-1.61-2.84-3-7.77-4.18-13.36-3.88-18.49-20.65-31.4-39.53-30.6l-52.68,2.23c-16.34.69-30.53,11.56-35.36,27.19-10.14,32.84-27.52,67.79,14.78,94.12,53.72,33.43,119,.98,125.67-43.79,2.22-14.87-3.08-25.82-8.71-35.78Z"/>
  <path d="M725.44,750.71s-2.58-1.92-3.92,2.68c-1.34,4.61-2.7,16.34.32,16.43,3.02.09,4.04-9.77,4.04-9.77,0,0,.76-8.48-.44-9.34Z"/>
  <path class="cls-9" d="M700.96,736.93c2.29,7.46,8.18,17.96,17.5,14.87,1.77-.59,1.3-2.51-.51-1.91-7.44,2.47-12.29-8.1-14.02-13.75-.4-1.29-3.36-.48-2.97.8h0Z"/>
  <path class="cls-9" d="M704.87,727.79c.7,9.09,4.12,23.11,15.12,24.02,1.51.13,3-2.08,1-2.25-9.66-.8-12.54-14.65-13.11-21.97-.12-1.61-3.12-1.19-3.01.2h0Z"/>
  <path class="cls-9" d="M711.94,723.84c-1.42,9.84-.92,25.93,11.18,28.45,1.14.24,3.51-1.48,1.76-1.84-11.13-2.32-11.23-17.96-9.94-26.89.2-1.37-2.82-.92-2.99.29h0Z"/>
  <path d="M767.34,751.16s2.58-1.92,3.92,2.68c1.34,4.61,2.7,16.34-.32,16.43-3.02.09-4.04-9.77-4.04-9.77,0,0-.76-8.48.44-9.34Z"/>
  <path class="cls-9" d="M791.83,737.37c-2.29,7.46-8.18,17.96-17.5,14.87-1.77-.59-1.3-2.51.51-1.91,7.44,2.47,12.28-8.1,14.02-13.75.4-1.29,3.36-.48,2.97.8h0Z"/>
  <path class="cls-9" d="M787.91,728.24c-.7,9.09-4.12,23.11-15.12,24.02-1.51.13-3-2.08-1-2.25,9.66-.8,12.54-14.66,13.11-21.97.12-1.61,3.12-1.19,3.01.2h0Z"/>
  <path class="cls-9" d="M780.84,724.29c1.42,9.83.92,25.93-11.17,28.45-1.14.24-3.51-1.48-1.76-1.84,11.13-2.32,11.23-17.96,9.94-26.89-.2-1.37,2.82-.92,2.99.29h0Z"/>
  <path class="cls-9" d="M730,800.82c1.8,1.77,3.55,3.6,5.23,5.49.65.73,5.58,5.8,4.6,6.98-.96,1.15-8.6-3.84-9.65-4.49-2.31-1.42-4.58-2.9-6.79-4.46-.29-.2-1.41.34-1.26.44,2.89,2.04,5.87,3.97,8.93,5.74,2.1,1.22,6.77,4.58,9.44,3.13,2.98-1.63-7.69-11.76-9.23-13.27-.23-.23-1.43.28-1.26.44h0Z"/>
  <path class="cls-9" d="M755.83,800.21c-1.44,1.41-12.15,12.06-9.28,13.21,1.03.41,2.81-.39,3.74-.75,2.02-.78,3.95-1.86,5.82-2.95,3.02-1.76,5.96-3.67,8.81-5.68.24-.17-.95-.05-1.2.13-1.8,1.27-15.75,10.61-16.49,8.28-.28-.89,1.03-2.43,1.48-3.07.99-1.4,2.12-2.7,3.26-3.98,1.63-1.83,3.32-3.6,5.07-5.31.24-.24-.98-.09-1.2.13h0Z"/>
  <ellipse class="cls-4" cx="539.3" cy="927.72" rx="76.33" ry="19.19"/>
  <path class="cls-8" d="M560.45,497.85c-12.96,10.09-23.28,27.55-22.66,45.15.32,8.96,3.3,17.37,7.67,24.84.72,1.24,2.49,1.57,3.75,1.6.46.01,3.15-.22,2.45-1.41-7.09-12.11-9.75-26.2-5.25-40.07,2.99-9.19,8.56-17.31,15.09-23.93,1.03-1.05,2.09-2.06,3.19-3.03.32-.28.64-.55.96-.82.28-.24.47-.37.05-.05,2.07-1.61-3.82-3.4-5.25-2.28h0Z"/>
  <path class="cls-4" d="M504.3,681.59l-.06-.02c-.12-.01-12.59-1.42-20.21,6.69-4.59,4.88-6.52,12.15-5.75,21.61.71,8.69,5.16,10.83,8.78,11.1.04,0,.08,0,.12,0,9.81.62,23.85-11.37,26.43-22.61,1.18-5.14.52-12.22-9.31-16.78Z"/>
  <path class="cls-1" d="M522.89,723.61c-1.65-4.95-5.83-10.39-16.38-8.19l-.06.02c-.11.06-11.25,6.46-13.47,17.76-1.34,6.8.77,13.97,6.26,21.3,2.79,3.73,5.52,5.11,7.93,5.26,1.95.12,3.69-.55,5.1-1.43,8.58-5.35,14.24-23.84,10.62-34.72Z"/>
  <path class="cls-3" d="M555.2,690.13l-.02-.06c-.06-.12-5.86-12.15-16.24-14.4-6.24-1.36-12.85,1.03-19.63,7.11-6.23,5.58-5.41,10.81-3.62,14.22,3.56,6.78,13.61,11.75,22.67,12.33,3.31.21,6.5-.17,9.18-1.26,4.57-1.86,9.6-6.48,7.66-17.93Z"/>
  <path class="cls-3" d="M522.58,641.8l-.06-.02c-.12-.02-12.59-1.42-20.21,6.69-4.59,4.88-6.52,12.15-5.75,21.61.71,8.69,5.16,10.83,8.78,11.1.04,0,.08,0,.12,0,9.81.62,23.85-11.37,26.43-22.61,1.18-5.14.52-12.22-9.31-16.78Z"/>
  <path class="cls-1" d="M518.43,632.61c0-.14-1.08-13.71-9.81-20.16-5.25-3.88-12.17-4.43-20.56-1.65-7.7,2.56-8.8,7.75-8.37,11.67,1.17,10.5,14.38,22.92,24.99,23.59.12,0,.23.01.35.02,4.85.19,11.12-1.98,13.39-13.41v-.03s0-.03,0-.03Z"/>
  <path class="cls-3" d="M559.01,619.79l-.06-.02c-.12-.02-12.59-1.42-20.21,6.69-4.59,4.88-6.52,12.15-5.75,21.61.71,8.69,5.16,10.83,8.78,11.1.04,0,.08,0,.12,0,9.81.62,23.85-11.37,26.43-22.61,1.18-5.14.52-12.22-9.31-16.78Z"/>
  <path class="cls-4" d="M574.82,654.49c-3.99-2.97-10.33-4.73-17.82,3.71l-.04.05c-.06.12-5.79,12.32-1.58,22.86,2.53,6.34,8.08,10.8,16.5,13.27,1.3.38,2.48.59,3.55.66,5.29.34,7.91-2.8,9.19-5.78,4.19-9.74-1.03-28.26-9.8-34.77Z"/>
  <path class="cls-3" d="M548.47,714.63l-.06-.02c-.11-.01-11.4-1.28-18.31,6.06-4.15,4.42-5.91,11-5.21,19.57.64,7.88,4.68,9.82,7.96,10.06.04,0,.07,0,.11,0,8.89.56,21.6-10.3,23.94-20.48,1.07-4.66.47-11.08-8.43-15.21Z"/>
  <path class="cls-10" d="M515.03,828.79s1.71,84.92-4.94,85.5c-5.39.47-1.37-3.36-2.54-17.73-1.17-14.38-18.86-58.82-18.86-58.82,0,0-3.53-6.95,3.21-10.03,6.74-3.07,23.54-7.36,23.13,1.08Z"/>
  <path class="cls-10" d="M530.34,842.28s10.2,20.9,20.6,21.28c10.4.38,29.4-33.88,45.06-35.27,4.31-.38,3.22-5.36-.28-4.58-.96.21-2.84.26-8.83,3.01-13.54,6.2-33.06,22.95-33.26,16.57-.78-25.15-22.43-15.89-23.28-1.01Z"/>
  <path class="cls-1" d="M534.26,753.83l-.06-.02c-.12-.01-12.59-1.42-20.21,6.69-4.59,4.88-6.52,12.15-5.75,21.61.71,8.69,5.16,10.83,8.78,11.1.04,0,.08,0,.12,0,9.81.62,23.85-11.37,26.43-22.61,1.18-5.14.52-12.22-9.31-16.78Z"/>
  <path class="cls-3" d="M509.03,801.31l-.06-.02c-.15-.02-15.45-1.74-24.81,8.21-5.63,5.99-8,14.91-7.06,26.52.87,10.64,6.32,13.27,10.75,13.59.05,0,.1,0,.15.01,12.04.76,29.27-13.95,32.44-27.75,1.45-6.3.64-14.98-11.41-20.57Z"/>
  <path class="cls-1" d="M498.76,758.47c-6.15-5.54-10.73-3.61-13.49-1.02-7.49,7.04-9.78,26.33-4.29,36.22,1.68,3.04,4.54,6.05,9.29,6.35,2.29.15,5.02-.34,8.27-1.76l.05-.03c.1-.09,9.92-8.69,10.1-20.22.11-6.94-3.23-13.51-9.93-19.54Z"/>
  <path class="cls-3" d="M548.5,777.97c-4.27-1.04-10.15-.21-13.93,9.64v.07c-.03.13-1.19,12.69,5.66,20.13,3.03,3.29,7.15,5.11,12.3,5.43,1.77.11,3.66.05,5.67-.19,7.26-.88,9.05-5.38,9.27-9,.6-9.87-9.51-23.76-18.97-26.07Z"/>
  <path class="cls-1" d="M589.63,594.2l-.02-.06c-.07-.12-6.8-11.55-17.33-12.82-6.33-.78-12.73,2.23-19.02,8.9-5.77,6.13-4.54,11.27-2.49,14.49,3.66,5.76,12.42,9.58,20.75,10.11,4.34.28,8.57-.35,11.89-2.06,4.41-2.28,9.07-7.35,6.22-18.56Z"/>
  <path class="cls-3" d="M568.36,544.32l-.06-.02c-.12-.01-12.59-1.42-20.21,6.69-4.59,4.88-6.52,12.15-5.75,21.61.71,8.69,5.16,10.83,8.78,11.1.04,0,.08,0,.12,0,9.81.62,23.85-11.37,26.43-22.61,1.18-5.14.52-12.22-9.31-16.78Z"/>
  <path class="cls-1" d="M552,822.25c-4.13-5.24-10.66-7.74-19.4-7.42-8.03.29-10.33,5.02-10.85,8.92-1.41,10.61,8.57,26.61,18.73,30.04,1.02.34,2.12.59,3.29.67,4.14.26,8.97-1.72,12.81-9.86l.02-.06c.02-.14,2.25-13.58-4.61-22.29Z"/>
  <path class="cls-3" d="M503.85,570.19l-.06-.02c-.12-.01-12.59-1.41-20.21,6.69-4.59,4.88-6.52,12.15-5.75,21.61.71,8.69,5.16,10.83,8.78,11.1.04,0,.08,0,.12,0,9.81.62,23.85-11.37,26.43-22.61,1.18-5.14.52-12.22-9.31-16.78Z"/>
  <path class="cls-1" d="M598.67,612.49l-.06-.02c-.12-.01-12.59-1.41-20.21,6.69-4.59,4.88-6.52,12.15-5.75,21.61.71,8.69,5.16,10.83,8.78,11.1.04,0,.08,0,.12,0,9.81.62,23.85-11.37,26.43-22.61,1.18-5.14.52-12.22-9.31-16.78Z"/>
  <path class="cls-1" d="M582.59,699.13l-.06-.02c-.12-.02-12.59-1.42-20.21,6.69-4.59,4.88-6.52,12.15-5.75,21.61.71,8.69,5.16,10.83,8.78,11.1.04,0,.08,0,.12,0,9.81.62,23.85-11.37,26.43-22.61,1.18-5.14.52-12.22-9.31-16.78Z"/>
  <path class="cls-4" d="M579.11,741.65l-.06-.02c-.12-.01-12.59-1.41-20.21,6.69-4.59,4.88-6.52,12.15-5.75,21.61.71,8.69,5.16,10.83,8.78,11.1.04,0,.08,0,.12,0,9.81.62,23.85-11.37,26.43-22.61,1.18-5.14.52-12.22-9.31-16.78Z"/>
  <path class="cls-4" d="M549.34,611.04c0-.14-.19-13.77-8.47-20.87-4.99-4.27-11.85-5.35-20.38-3.21-7.84,1.96-9.27,7.07-9.09,11.01.49,10.69,13.13,24.27,23.73,25.5.24.03.49.05.74.07,4.72.3,10.62-1.76,13.47-12.43v-.03s0-.03,0-.03Z"/>
  <path class="cls-1" d="M543.2,568.85c-.02-.14-1.92-13.6-11.03-19.38-5.48-3.48-12.42-3.53-20.63-.15-7.53,3.11-8.31,8.37-7.64,12.24,1.75,10.02,14.81,21.01,25.28,21.68.5.03.99.04,1.47.02,4.86-.16,10.98-2.78,12.55-14.34v-.03s0-.03,0-.03Z"/>
  <path d="M498.53,683.21s-2.01-2.36-4.02,1.96c-2.01,4.31-5.28,15.67-2.56,16.3,2.72.63,5.35-8.94,5.35-8.94,0,0,2.16-8.25,1.22-9.31Z"/>
  <path class="cls-2" d="M478.7,665.24c.79,7.78,4.31,19.2,13.3,17.8,1.7-.27,1.61-2.25-.13-1.98-7.18,1.12-9.74-10.18-10.34-16.08-.14-1.34-2.96-1.07-2.83.26h0Z"/>
  <path class="cls-2" d="M483.83,656.91c-.93,9.11-.27,23.57,9.56,26.43,1.35.39,3.09-1.53,1.3-2.05-8.62-2.51-8.84-16.71-8.09-24.04.17-1.61-2.63-1.73-2.77-.34h0Z"/>
  <path class="cls-2" d="M490.93,654.25c-2.99,9.47-5.32,25.46,5.21,30.1.99.44,3.44-.84,1.91-1.51-9.7-4.27-7.08-19.74-4.36-28.34.42-1.32-2.4-1.41-2.76-.25h0Z"/>
  <path d="M540.85,689.21s-2.01-2.36-4.02,1.96c-2.01,4.31-5.28,15.67-2.56,16.3,2.72.63,5.35-8.94,5.35-8.94,0,0,2.16-8.25,1.22-9.31Z"/>
  <path class="cls-9" d="M521.02,671.23c.79,7.78,4.31,19.2,13.3,17.8,1.7-.27,1.61-2.25-.13-1.98-7.18,1.12-9.74-10.18-10.34-16.08-.14-1.34-2.96-1.07-2.83.26h0Z"/>
  <path class="cls-9" d="M526.16,662.9c-.94,9.11-.27,23.57,9.56,26.43,1.35.39,3.09-1.53,1.3-2.05-8.62-2.51-8.84-16.71-8.09-24.04.17-1.61-2.63-1.73-2.77-.34h0Z"/>
  <path class="cls-9" d="M533.25,660.25c-2.99,9.47-5.32,25.46,5.21,30.1.99.44,3.44-.84,1.91-1.51-9.7-4.27-7.08-19.74-4.36-28.34.42-1.32-2.4-1.41-2.76-.25h0Z"/>
  <path class="cls-9" d="M561.42,761.72c1.43-1.77,2.92-3.48,4.45-5.15,1.2-1.31,2.43-2.6,3.75-3.75.74-.64,2.06-2.16,2.21-.47.13,1.47-.75,3.31-1.28,4.62-.76,1.89-1.64,3.72-2.54,5.53-1.2,2.4-2.47,4.76-3.81,7.07-.07.12,1.04.14,1.23-.18,1.22-2.1,10.09-17,7.11-18.41-1.99-.94-5.28,3.04-6.41,4.19-2.07,2.13-4.04,4.39-5.93,6.72-.05.06.99.12,1.23-.17h0Z"/>
  <path class="cls-9" d="M485.84,775.23c1.43-1.77,2.92-3.48,4.45-5.15,1.2-1.31,2.43-2.6,3.75-3.75.74-.64,2.06-2.16,2.21-.47.13,1.47-.75,3.31-1.28,4.62-.76,1.89-1.64,3.72-2.54,5.53-1.2,2.4-2.47,4.76-3.81,7.07-.07.12,1.04.14,1.23-.17,1.22-2.1,10.09-17,7.11-18.41-1.99-.94-5.28,3.04-6.41,4.19-2.07,2.13-4.04,4.39-5.93,6.72-.05.06.99.12,1.23-.18h0Z"/>
  <ellipse class="cls-4" cx="912.71" cy="925.61" rx="64.78" ry="16.29"/>
  <path class="cls-10" d="M878.35,803.14s-1.19,17.48,5.71,22.18c6.9,4.7,33.06-8.64,44.21-2.79,3.07,1.61,4.26-1.98,1.59-2.99-.73-.28-2.02-1.05-7.15-1.91-11.58-1.92-31.3.21-28.96-3.87,9.22-16.11-9.03-19.59-15.38-10.62Z"/>
  <path class="cls-10" d="M897.09,814.86s.68,17.51,8.04,21.45c7.36,3.94,31.95-12.12,43.66-7.49,3.22,1.27,4.03-2.42,1.26-3.14-.76-.2-2.13-.83-7.31-1.13-11.72-.68-31.1,3.55-29.21-.76,7.45-17-11.07-18.51-16.43-8.92Z"/>
  <path class="cls-3" d="M1005.06,553.84c-7.45-8.88-21.33-13.2-32.38-9.37-6.41,2.23-11.39,6.84-13.63,13.3-6.86,20.85-9.85,42.78-16.21,63.77-.78,2.56-1.7,5.04-2.79,7.48-.55,1.23-1.13,2.46-1.71,3.68-.09.19-.18.38-.27.56,0,.01,0,.01-.01.03-.19.38-.37.77-.56,1.15-.4.82-.8,1.64-1.21,2.46-4.18,8.46-8.6,16.8-13.17,25.05-5.45,9.83-11.13,19.54-17.19,29.01-5.46,8.53-11.19,16.97-17.77,24.67-1.36,1.59-2.76,3.14-4.22,4.63-1.32,1.34-2.01,2.01-3.64,3.35-3.21,2.63-6.22,5.42-8.84,8.66-5.46,6.77-9.46,14.98-11.25,23.51-1.91,9.1-1.44,18.69,2.16,27.33,4.28,10.27,12.31,18.14,21.89,23.56,9.39,5.32,20.24,8.34,31.04,6.57,9.42-1.54,17.96-6.47,25.03-12.74,15.77-13.97,26.19-33.53,33.8-52.91,4.18-10.66,7.21-21.67,9.97-32.77,3.56-14.33,6.74-28.75,10.3-43.08,3.65-14.7,7.85-29.15,12.82-43.45,4.68-13.47,7.88-27.89,7.73-42.21-.12-11.34-2.39-23.34-9.86-32.25Z"/>
  <path class="cls-8" d="M934.04,800.91c-2.67-.78-5.86-.06-8.5.45-3.84.75-7.71,1.78-11.2,3.57-.48.25-1.01.54-1.55.86.77-1.72,1.36-3.66.86-5.41-.74-2.59-3.76-3.02-6.04-2.44-2.92.74-5.06,3.21-6.54,5.7-.85,1.42-1.58,2.95-2.15,4.52-.85-1.57-1.75-3.1-2.72-4.59-1.92-2.93-4.16-6.13-7.19-8-1.69-1.04-5.15-1.84-5.77.84-.53,2.28,1.26,4.93,2.61,6.83-.19-.15-.37-.32-.56-.47-3.19-2.58-6.78-5.74-10.78-6.95-3.01-.91-4.54,1.43-3.09,4.1,2.18,4.01,6.92,6.94,10.65,9.32,5.22,3.32,11.08,6.56,17.19,7.88,6.81,1.05,13.42,1.44,20.1-.7,3.61-1.15,7.06-2.92,10.11-5.17,2.17-1.59,4.66-3.55,6.16-5.82,1.2-1.82.57-3.89-1.58-4.52Z"/>
  <path class="cls-8" d="M1012.34,551.26c-4.18-4.24-9.59-8.05-15.45-9.5-.43-3.02-.86-6.03-1.29-9.05-.44-3.09-.43-7.18-2.25-9.84-1.46-2.13-3.74-3.3-6.28-3.49-1.76-.13-3.67-.4-5.43-.18-2.88.35-5.31,2.19-6.56,4.79-.41.85-.76,1.72-1.13,2.58-1.67,3.84-3.34,7.68-5.01,11.53-.61,1.41-1.22,2.81-1.83,4.22-.05.13-.11.37-.21.48-.33.35.26-.26-.1-.07-1.4.73-2.89,1.26-4.28,2.03-3.09,1.72-5.89,3.9-8.34,6.45-.74.77-1.56,1.52-1.96,2.54-.89,2.3.97,3.69,3.09,3.93,3.48.4,7.23-.52,10.58-1.36,3.29-.82,6.56-1.93,9.48-3.67.03-.02.07-.04.1-.06-.77,1.72-1.37,3.66-.86,5.42.74,2.59,3.76,3.02,6.04,2.44,2.92-.74,5.06-3.21,6.54-5.7.85-1.42,1.58-2.95,2.15-4.52.85,1.57,1.75,3.1,2.72,4.59,1.92,2.93,4.16,6.13,7.19,8,1.68,1.04,5.15,1.84,5.78-.84.5-2.14-1.05-4.61-2.36-6.48,2.76,2.29,5.66,4.4,8.75,6.04,1.78.95,5.23,2.48,6.03-.43.99-3.55-2.88-7.61-5.09-9.85Z"/>
  <path class="cls-8" d="M906.56,812.85c10.53-10.66,20.1-22.44,28.96-34.49,7.98-10.85,15.36-22.19,21.53-34.17,2.99-5.81,5.69-11.77,7.92-17.91,2.58-7.07,4.25-14.37,5.97-21.68,2.92-12.38,5.6-24.81,8.39-37.22,1.96-8.69,4.09-17.34,6.82-25.82,2.06-6.38,4.5-12.57,6.17-19.07,2.11-8.23,3.79-16.58,5.01-24.99,1.35-9.29,2.26-18.83,1.43-28.22-.56-6.34-1.94-14.42-7.6-18.32-1.11-.76-2.33-1.3-3.63-1.64-.2-.05-1.18.11-.72.23,6.82,1.78,9.35,9.26,10.39,15.48,1.49,8.85.86,18.06-.17,26.92-1.03,8.85-2.65,17.63-4.69,26.3-1.44,6.1-3.3,11.91-5.36,17.81-6.6,18.89-10.19,38.62-14.64,58.09-1.78,7.79-3.46,15.65-5.58,23.36-1.8,6.54-4.24,12.89-7.05,19.06-5.56,12.2-12.55,23.73-20.19,34.73-10.02,14.42-21.16,28.25-33.38,40.88-.19.2-.39.4-.58.6-.09.09.79.27.99.06h0Z"/>
  <path class="cls-8" d="M935.91,698.53c3.03-12.43,5.98-24.97,10.03-37.12,2.11-6.36,4.81-12.48,7.33-18.68,1.57-3.88,2.85-7.92,4.59-11.72,1.51-3.3,3.34-6.46,5.07-9.64,5.55-10.26,10.9-20.68,14.79-31.69,4.02-11.37,7.49-25.2,2.2-36.74-.11-.24-1.11-.15-.99.12,4.79,10.45,2.22,22.91-1.14,33.39-3.64,11.34-8.99,22.06-14.61,32.53-1.93,3.6-3.96,7.16-5.77,10.83-1.72,3.47-2.88,7.22-4.32,10.82-2.45,6.15-5.18,12.19-7.38,18.44-4.52,12.87-7.61,26.26-10.84,39.49-.05.2.95.29,1.02-.02h0Z"/>
  <path class="cls-8" d="M900.11,736.25c-4.82,4.08-9.12,8.93-12.96,13.93-6.98,9.08-12.92,19.92-13.47,31.59-.35,7.33,1.75,14.39,5.78,20.5.23.34,1.23.18.99-.19-13.91-21.03.39-45.28,15.72-60.93,1.55-1.58,3.14-3.16,4.84-4.59.39-.33-.59-.56-.89-.31h0Z"/>
  <path d="M918.68,707.75s-1.27-2.01-3.42.82c-2.15,2.83-6.19,10.59-4.13,11.45,2.06.86,5.38-5.69,5.38-5.69,0,0,2.77-5.67,2.17-6.58Z"/>
  <path class="cls-9" d="M905.39,691.73c-.39,5.77.91,14.59,8.17,14.91,1.38.06,1.56-1.39.15-1.46-5.8-.26-6.36-8.85-6.06-13.22.07-.99-2.2-1.22-2.26-.24h0Z"/>
  <path class="cls-9" d="M910.51,686.45c-1.92,6.47-3.27,17.07,4.1,20.62,1.01.49,2.63-.65,1.29-1.29-6.47-3.11-4.8-13.45-3.25-18.66.34-1.14-1.85-1.65-2.14-.66h0Z"/>
  <path class="cls-9" d="M916.45,685.59c-3.58,6.43-7.5,17.69.2,22.63.73.47,2.82-.09,1.7-.81-7.09-4.55-3.01-15.39.24-21.23.5-.89-1.71-1.38-2.14-.59h0Z"/>
  <path d="M951.24,718.43s-1.27-2.01-3.42.82c-2.15,2.83-6.19,10.59-4.13,11.45,2.06.86,5.38-5.69,5.38-5.69,0,0,2.77-5.67,2.17-6.58Z"/>
  <path class="cls-9" d="M937.96,702.41c-.39,5.77.91,14.59,8.17,14.91,1.38.06,1.56-1.39.15-1.46-5.8-.26-6.35-8.85-6.06-13.22.07-.99-2.2-1.22-2.26-.24h0Z"/>
  <path class="cls-9" d="M943.08,697.13c-1.92,6.47-3.27,17.07,4.1,20.62,1.01.49,2.63-.65,1.29-1.29-6.47-3.11-4.8-13.45-3.25-18.66.34-1.14-1.84-1.65-2.14-.66h0Z"/>
  <path class="cls-9" d="M949.02,696.27c-3.58,6.43-7.5,17.69.2,22.63.73.47,2.82-.09,1.7-.81-7.09-4.55-3.01-15.39.24-21.23.5-.89-1.71-1.38-2.14-.59h0Z"/>
  <path class="cls-9" d="M900.35,749.38c1.53-.8,3.09-1.55,4.67-2.25,1.23-.55,2.48-1.08,3.76-1.49.76-.24,2.19-.82,1.83.47-.3,1.05-1.44,2.06-2.17,2.81-1.06,1.08-2.19,2.09-3.34,3.07-1.53,1.3-3.09,2.56-4.7,3.76-.04.03.76.23.99.06,1.47-1.1,12-8.9,10.11-10.61-1.19-1.07-4.68.68-5.76,1.12-2.14.87-4.23,1.87-6.28,2.94-.22.11.68.23.89.12h0Z"/>
  <path class="cls-9" d="M911.44,760.95c0-1.78.06-3.56.18-5.34.09-1.32.2-2.64.43-3.95.09-.53.19-1.09.39-1.59.08-.18.2-.37.27-.56.13-.4-.02-.05-.1-.12.84.71,1.22,2.08,1.56,3.08.5,1.48.88,3,1.23,4.53.46,2.01.86,4.04,1.19,6.08.04.23,1.05.14,1.03-.02-.42-2.59-.94-5.17-1.59-7.71-.39-1.52-1.09-6.19-3.23-6.34-1.98-.14-1.94,3.61-2.07,4.86-.23,2.35-.32,4.72-.32,7.08,0,.19,1.02.19,1.02-.02h0Z"/>
  <ellipse class="cls-5" cx="319.8" cy="927.72" rx="108.34" ry="23.56"/>
  <path class="cls-10" d="M302.51,823.86s-8.96,89.98-16.67,89.58c-6.24-.33-1.14-3.76-.63-19.12s-14.06-65.01-14.06-65.01c0,0-3.15-7.88,4.98-10.11,8.13-2.22,27.95-4.19,26.39,4.66Z"/>
  <path class="cls-10" d="M323.03,835.3s3.01,24.73,13.9,29.45c10.89,4.72,43.85-20.91,60.98-15.73,4.71,1.42,5.42-3.9,1.41-4.6-1.09-.19-3.11-.93-10.5-.75-16.68.41-43.66,8.67-41.48,2.34,8.57-24.96-17.85-24.94-24.32-10.71Z"/>
  <path class="cls-5" d="M437.07,538.4l-3.19-5.1c-1.06-1.69-2.8-2.79-4.78-3.02-1.97-.22-3.92.45-5.33,1.86-1.79,1.79-3.55,3.91-5.42,6.15-8.36,10.07-17.84,21.48-36.93,12.76-5.48-2.5-9.49-7.33-11.92-14.34-7.89-22.79,2.58-62.26,10.66-77.96.93-1.8.97-3.89.12-5.73-.85-1.83-2.46-3.14-4.43-3.6l-2.63-.61c-1.86-.43-3.8-.03-5.34,1.1-1.53,1.13-2.48,2.86-2.62,4.75-.69,9.48-2.69,27.95-8.4,45.11-6.91,20.76-17.06,33.45-30.17,37.74-6.56,2.14-11.94,1.63-16-1.52-12.23-9.49-10.2-40.92-9.22-56.03l.13-2.1c.1-1.64-1.08-3.25-2.09-4.3-2.34-2.44-6-4.31-8.33-4.27-1.96.04-3.78.94-4.99,2.48-1.22,1.56-1.67,3.56-1.23,5.49,2.94,13,5.93,37.66-7.12,56.67-2.47,3.6-5.63,5.4-9.4,5.36-16.62-.18-41.44-35.39-51.33-50.52-1.16-1.78-3.05-2.85-5.17-2.93-2.13-.09-4.1.83-5.41,2.52l-3.67,4.74c-2.17,2.81-1.66,6.89,1.14,9.1,23.29,18.4,47.75,69.36,50.47,75.11.14.3.25.59.34.9,5.78,19.42,11.16,53.65,3.96,106.47-4.75,34.87-12.89,61.7-16.9,68.86-5,8.94-18.6,38.09-15.57,54.18,1.49,7.87,7.6,14.59,18.18,19.96,7.92,4.02,24.63,10.28,55.27,13.1,7.9.73,16.72,1.23,26.56,1.4,31.94.56,56.64-2.69,63.65-6.04,9.07-4.33,13.9-13.74,13.98-27.21.06-10.17-2.62-19.91-3.61-22.3-.22-.67-6.61-32.44-6.66-32.71l-.33-1.8c-9.52-52.62-15.6-97.59-17.58-130.07-1.14-18.77,6.16-35.81,21.7-50.66,12.93-12.35,28.52-20.08,36.66-23.59,1.74-.75,3.07-2.22,3.63-4.03.57-1.81.31-3.78-.7-5.39Z"/>
  <path class="cls-3" d="M511.97,484.64c-.62-.69-1.34-1.07-2.04-1.65-.13-.11-.23-.16-.31-.19,0,0,0,0,0,0,.19-.86,1.16-1.88,1.48-2.75,1.12-3.07.47-6.21-1.87-8.53-.25-.25-1.49-1.09-1.5-1.13-.06-.22.42-1.07.48-1.33.33-1.34.24-2.73-.4-3.97-.45-.87-1.5-1.37-1.91-2.1-.11-.2-.05-.6-.12-.82-.35-1.12-.54-2.23-1.14-3.27-1.36-2.35-3.69-2.86-6.04-2.39.26-1.88.03-3.88-.69-5.6-1.76-4.21-6.19-5.58-10.4-5.88-.14-3.36-1.97-7.25-5.48-8.05-2.89-.66-5.8.98-7.87,3.03-1.76-1.61-4.07-2.27-6.28-1.73-.82-.81-1.92-1.21-2.59-2.07-.8-1.02-1.11-2.3-2.07-3.27-.02-.02-.04-.04-.06-.06,1.72-1.97,2.71-4.49,2.67-7.17-.02-1.4-.32-2.37.04-3.69.28-1.03.37-2.16.13-3.21-.55-2.43-2.74-3.89-5-4.77.66-1.65.88-3.56.58-5.28-.54-3.05-2.91-4.99-5.55-6.28.6-3.01-1.29-5.3-3.77-6.68-1.47-3.71-5.08-6.56-8.76-5.25-.37-1.71-1.15-3.36-2.27-4.65-2.92-3.36-7.3-4.13-11.48-3.55-1.21-2.93-3.78-5.4-6.88-6.13-3.46-.81-6.1,2.26-7.48,5.12-2.69-1.54-5.94-1.95-8.14.71-2.33-.79-5.03-.76-7.35-.05-.08.02-.15.06-.22.08-1.39-3.32-4.59-5.51-8.35-6.69,1-2.48,1.43-5.3,1.28-7.93-.35-6.13-4.55-10.33-9.97-12.58.41-2.03.15-4.31-.63-6.18-.77-1.86-2.11-3.37-3.78-4.48-.58-.39-1.27-.63-1.84-1.02-.21-.15-.34-.21-.41-.24-.09-.22-.16-.49-.23-.65-1.19-2.73-2.99-5.5-5.56-7.1-3.07-1.92-6.39-1.35-9.28.32-.37-3.15-1.54-6.32-3.33-8.85-4.78-6.76-13.13-7.47-20.67-6.01-1.74-5.52-6.47-11.4-12.64-11.33-5.17.05-9.21,4.77-11.49,9.19-4.59-2.9-10.36-3.05-14.12,1.22-3.41-1.11-7.31-1.15-10.76-.44-9.25,1.89-15.4,9.45-19.22,17.63-3.84-.99-8.15-.98-11.95-.13-9.02,2.02-14.34,9.25-16.71,17.78-5.42,1.69-10.06,6.07-11.2,11.72-.3,1.49-.45,3.04-.37,4.57-3.89.15-6.48,2.18-6.49,5.75-1.69-.51-3.57-.64-5.26-.35-4.65.79-7.09,4.8-8.28,9-3.24-.4-7.22.56-8.85,3.55-1.47,2.7-.12,6.02,1.59,8.45-2.62,1.7-3.85,4.5-2.8,7.49-1.49,1.55-2.5,3.69-2.97,5.74-.2.86-.28,1.71-.3,2.54-.09.48-.16.94-.22,1.39-2.21-.65-4.71-.81-6.88-.13-1.97.61-3.5,1.96-4.42,3.79-.66,1.3.23,1.05-.96,1.23-2.13.32-4.12.47-6.18,1.24-3.15,1.18-5.97,3.22-8.09,5.83-3.69,4.53-5.2,10.32-5.81,16.03-6.05.22-12.5,3.23-15.97,8.2-1.6,2.3-2.62,4.95-3.1,7.7-.25,1.44-.37,2.91-.39,4.38,0,.49-.08,1.07.02,1.54-.01-.05.17.97.28.89-.1.13-.41.22-.51.33-.59.69-1.47,1.2-2.11,1.87-.98,1.03-1.82,2.17-2.48,3.42-1.65,3.12-1.77,6.49-.91,9.87,1.62,6.29,6.61,8.91,12.43,9.23-3.29,4.63-4.37,10.9-2.01,16.14,4.04,8.94,15.42,15.29,24.79,10.94,1.97-.92,3.93-2.22,5.5-3.8.75,1.2,1.72,2.26,2.88,3.01,3.4,2.19,6.82.45,9.51-1.93,1.61,2.15,3.74,4.01,6.07,5.25,5.65,3,11.36,1.14,16.07-2.6,1.3,1.46,2.93,2.73,4.66,3.55,3.98,1.9,7.73.68,10.75-2.26,8.81,3.6,19.88,2.92,24.87-6.08,8.85,2.72,19.74,1.01,23.38-8.57,2.12-5.58,1.72-11.93.87-17.73,2.31-.17,4.66-1.2,6.42-2.66,1.8-1.49,3.01-3.56,3.67-5.79.24-.82.4-1.67.51-2.52.06-.48-.08-1.39.06-1.79.13-.37.65-.81.87-1.13.01-.02.02-.03.03-.05.06,2.72,1.05,5.44,2.62,7.88,4.01,6.23,11.43,8.4,17.95,5.39.23,1.25.79,2.49,1.68,3.35,1.97,1.88,4.81,1.39,7.18.47.65,2.15,1.92,4.27,3.53,5.76,3.45,3.18,8.01,3.01,12.18,1.62.64,1.58,1.67,3.1,2.97,4.16,2.43,1.98,5.45,1.79,8.15.64,5.8,4.82,14.02,6.61,20.14,1.75,3.09,2.11,7.02,3.49,10.72,3.41,1.93-.04,3.61-.48,5.08-1.21-.41.91-.7,1.87-.86,2.85-.51,3.05.37,6.05,1.87,8.68.03,1.41.44,2.85,1.05,4.08,1.33,2.68,3.7,3.59,6.48,3.49.16,1.35.55,2.7,1.09,3.91,1.52,3.4,4.35,5.01,7.96,5.18.22.66.52,1.31.86,1.89.45.76,1.02,1.46,1.74,1.98.47.34.98.59,1.54.77.53.17,1.47.03,1.91.24.42.2.86.88,1.22,1.18.71.59,1.49,1.14,2.34,1.49,2.48,1.04,4.44-.05,5.85-2.08.81,1.54,1.93,2.97,3.29,4.03,3.97,3.09,8.71,1.67,12.59-.82,1.96,2.52,5.62,4.94,8.84,3.58,1.71-.72,2.66-2.54,3.18-4.22.16-.51.3-3.1.63-3.36-.38.31,2.21.52,2.56.51,1.63-.06,3.15-.69,4.07-2.09.27-.41.47-1.39.77-1.58.16-.1.57,0,.76-.06.91-.23,1.82-.32,2.71-.65,2.91-1.06,5.24-3.24,6.66-5.98,1.07-2.07,1.64-4.37,1.9-6.67.19-1.61-.3-1.73,1.11-1.97,4-.68,7.11-2.8,8.93-5.84,1.92,1.77,4.3,3.16,6.78,3.68,7.25,1.51,12.01-4.56,14.87-10.39,1.23.4,2.59.51,3.83.37,1.46-.17,2.85-.72,4.05-1.57.85-.61,1.44-1.4,2.17-2.12.07-.07-.27-.19-.14-.3.14-.12.42-.08.57-.19.67-.44,1.55-.65,2.26-1.07,1.27-.76,2.41-1.74,3.3-2.92,1.05-1.39,1.73-2.98,2.04-4.69.21-1.17.11-1.68.69-2.65,1.38-2.28,1.45-5.05-.4-7.11Z"/>
  <path d="M304.87,568.67s-2.33-2.1-4.05,2.26c-1.72,4.36-4.09,15.65-1.16,16.01,2.93.36,4.8-9.14,4.8-9.14,0,0,1.5-8.18.41-9.12Z"/>
  <path class="cls-9" d="M282.29,553.06c1.56,7.46,6.35,18.2,15.69,16.03,1.77-.41,1.49-2.32-.33-1.9-7.46,1.73-11.22-8.97-12.4-14.63-.27-1.29-3.22-.77-2.96.51h0Z"/>
  <path class="cls-9" d="M286.92,544.53c-.13,8.9,1.93,22.84,12.55,24.72,1.46.26,3.11-1.76,1.18-2.1-9.32-1.65-10.88-15.38-10.78-22.54.02-1.57-2.93-1.44-2.95-.08h0Z"/>
  <path class="cls-9" d="M294.15,541.32c-2.26,9.44-3.22,25.13,8.32,28.67,1.09.33,3.55-1.12,1.87-1.63-10.62-3.25-9.31-18.47-7.26-27.04.31-1.31-2.66-1.14-2.93,0h0Z"/>
  <path d="M350.03,570.63s-2.33-2.1-4.05,2.26c-1.72,4.36-4.09,15.65-1.16,16.01,2.93.36,4.8-9.14,4.8-9.14,0,0,1.5-8.18.41-9.12Z"/>
  <path class="cls-9" d="M327.45,555.02c1.56,7.46,6.35,18.2,15.69,16.03,1.77-.41,1.49-2.32-.33-1.9-7.46,1.73-11.22-8.97-12.4-14.63-.27-1.29-3.22-.77-2.96.51h0Z"/>
  <path class="cls-9" d="M332.08,546.49c-.13,8.9,1.93,22.84,12.55,24.72,1.46.26,3.11-1.76,1.18-2.1-9.32-1.65-10.88-15.38-10.78-22.54.02-1.57-2.93-1.44-2.95-.08h0Z"/>
  <path class="cls-9" d="M339.3,543.28c-2.26,9.44-3.22,25.13,8.32,28.67,1.09.33,3.55-1.12,1.87-1.63-10.62-3.25-9.31-18.47-7.26-27.04.31-1.31-2.66-1.14-2.93,0h0Z"/>
  <path class="cls-9" d="M365.18,720.44c1.64,1.67,3.24,3.4,4.77,5.18,1.2,1.39,2.4,2.82,3.41,4.35.39.6,1.59,2.13,1.17,2.93-.07.14-.61-.03-1.17-.21-.96-.31-1.88-.76-2.78-1.22-1.84-.94-3.61-2.03-5.35-3.15-2.23-1.43-4.42-2.92-6.55-4.48-.29-.21-1.38.23-1.27.31,2.79,2.04,5.66,3.99,8.62,5.77,2.04,1.23,6.51,4.56,9.17,3.3,2.94-1.4-7.36-11.69-8.75-13.1-.23-.24-1.41.17-1.27.31h0Z"/>
  <path class="cls-9" d="M278.9,714.47c1.64,1.67,3.24,3.4,4.77,5.18,1.2,1.39,2.4,2.82,3.41,4.35.39.6,1.59,2.13,1.17,2.93-.07.14-.61-.03-1.17-.21-.96-.31-1.88-.76-2.78-1.22-1.84-.94-3.61-2.03-5.35-3.15-2.23-1.43-4.42-2.92-6.55-4.48-.29-.21-1.38.23-1.27.31,2.79,2.04,5.66,3.99,8.62,5.77,2.04,1.23,6.51,4.56,9.17,3.3,2.94-1.4-7.36-11.68-8.75-13.1-.23-.24-1.41.17-1.27.31h0Z"/>
  <g>
    <path class="cls-4" d="M281.85,71.89c.38.76-.76.76-1.14,1.52,2.47-.38,4.66-.48,6.66.29,3.05,1.43,5.52,3.33,6.28,6.95.29.95.76,1.9,1.24,2.76,1.43,3.33,2,6.95,1.62,10.76-.48,3.33-.76,6.66-1.43,9.99-.67,3.52-1.24,7.14-2.09,10.76-.48,2.38-1.52,4.76-2.48,7.04-1.43,3.05-3.14,5.9-4.28,9.04-.95,2.57-2.38,5.04-4.47,7.14-.67.67-1.52.95-2.28,1.43-1.43,1.14-3.05,2-4.85,2-.67-.1-1.43.19-1.9.57-.86.76-1.52.48-2.09.1-.57-.38-1.05-.76-.57-1.71.1-.48-.19-.86-.48-1.43-.57.76-1.33.86-2.09.86-.67,0-1.43,0-2.19.1-1.9.38-3.14-.48-4.09-1.71-.38-.48-.76-1.05-1.05-1.71-.57-1.14-.86-2.57-2.67-2.67.76-.67,1.05-1.05.48-1.62-2.38-2.19-2.47-5.33-2.19-8.66.29-4.57.76-9.23,1.24-13.8.1-1.43.29-2.76.57-4.09l2.09-9.8c1.14-4.85,2.86-9.61,5.43-14.09,1.52-2.57,3.43-4.76,5.81-6.57,1.05-.76,2.48-1.33,3.81-2,1.05-.67,2-1.52,3.14-1.14.29.1.76-.19,1.14-.38.29-.1.67-.29,1.05-.38.76-.19,1.52-.19,1.81.48ZM277.18,78.17c-1.43,1.24-2.76,2.76-3.52,4.38-1.05,2.09-1.9,4.38-2.09,6.66,0,1.14.1,2.19-.1,3.33-.76,3.14-1.14,6.28-1.81,9.42-.86,3.62-1.14,7.23-1.62,10.85-.38,3.62-.67,7.23-.95,10.76-.1,1.9-.38,3.81.57,5.43.48.95,1.14,2.67,2,3.81-1.81-.1-2.09-2.19-3.24-2.67.29.67.48,1.43.57,2.09.29.48.38.95.67,1.33.29.38.48,1.05,1.05.95,1.14-.1,1.52.67,1.81,1.43.19.48.57,1.05,1.24.95,1.52,0,3.81-1.81,4.09-3.33.57-2.47,1.62-4.95,2.38-7.33,1.14-3.43,2.38-6.66,3.05-10.09.86-3.81,1.62-7.61,2.57-11.42,1.24-5.04,2.95-10.18,3.05-15.32,0-3.24.1-6.57-.76-9.61-.29-1.33-1.24-2.19-2.47-2.48-.95-.19-2-.38-2.95-.29-1.24,0-2.47.29-3.52,1.14Z"/>
    <path class="cls-4" d="M311.83,81.41c.48-.48.57-1.14,1.24-.95.48.1.48.57.38.95.1.86,0,1.62.95,1.9.38.1.29.48.38.76.1,1.9.57,3.81.57,5.9-.09,1.05-.57,2.09-.48,3.14.19,2.76-.57,5.52-1.14,8.28-.29,1.62-.09,3.24-.57,5.14,1.52-.95,2.38-2.09,3.33-3.14,1.33-1.33,2.67-2.57,4.19-3.52,2.09-1.24,4.38-1.62,6.47-.67,1.81.76,2.86,2.19,4,3.62.29.38.19.86,0,1.33-.19,1.05-.29,2-.57,3.05-.09.95,0,1.9-.19,2.86-.29,2.09-.95,4.09-1.33,6.19-.57,2.76-.57,5.43-.67,8.09-.19,1.43-.29,2.76-.57,4.19-.38,1.33-.38,2.76-.86,4.09-.19.67-.19,1.33.29,1.9.19.19.57-.1.86-.29.67-.29,0,.76,2.09-.95,2.19-1.9,4.09-2.38,6.57-4.28,1.62-1.14,3.05-2.19,5.04-2.95-.19.19-.38,1.9-.57,2-1.62.95-2.95,1.9-4,3.52-.38.38-1.14,1.33-1.62,1.43-1.33.29-1.9,1.05-2.86,2-.76.76-1.71,1.24-2.47,2.09-.76.95-1.62,1.71-2.76,2.38-2.67,1.62-.67.19-3.33,2.09-.67.48-1.14.76-1.81.57l-.67-.1c-.57,0-.95.95-1.52.48-.76-.67-1.71-1.14-2-2.19l-.29-.76c-.19-2.28-.57-4.57.1-7.04.48-1.9.95-3.9,1.62-5.81.29-1.33.57-2.67.48-3.9-.19-3.14.76-6.19,1.43-9.33.57-3.33,1.52-5.81,2.57-9.14.29-.76.38-1.52-.29-1.9-.48-.29-1.05-.57-1.62-.29-.57.19-.86.48-1.33.86l-1.9,1.52c-.29.19-.48.19-.86.57-1.14.86-2.09,1.9-3.24,2.86-.48.29-.57.57-.76.86-1.43,2.38-2.09,4.19-2.47,6.76-.38,2.38-.48,4.66-.38,6.95,0,2.86-.48,5.81-1.52,8.66-.48,1.24-.48,2.57-.48,3.9-.09,1.24-.38,2.48-.86,3.71-.29.67-.48,1.43-1.52,1.43-.76,0-.57,1.14-1.43,1.14-.67-.38-1.33-.86-2.38-.19-.38.19-.76.1-.86-.19-1.05-1.24-2-2.48-1.71-4.38,0-.57.1-1.24-.19-1.71-.67-.95-.48-2.19-.29-3.33.57-4.09,1.14-8.09,1.9-12.18.48-3.14.76-6.28,1.05-9.42.1-3.9.86-7.81,1.43-11.71.76-4.66,1.43-9.23,2.28-13.8.29-1.52.76-2.95,1.43-4.38,1.62-.29,2.86.1,3.71,1.33Z"/>
    <path class="cls-4" d="M369.69,78.36c.57,1.33.95,2.76.86,4.28-.1,1.14-.38,2.28.29,3.43.57-1.52.1-2.95.67-4.28.76-.1,1.05.38.86.86-.29,1.62.38,2.95.57,4.38.48,4.09-.38,8.38-1.24,15.42-.38,3.81-1.62,8.66-2.38,12.37-.67,3.71-1.52,7.42-1.52,11.14.1,2-.38,4-.48,6-.19,2-.86,3.9-.38,5.81,1.43-.38,1.52-.29,2.67-1.05.29-.19.19.38,2.95-1.14,1.05-.57,2.38-1.05,2.67-1.33,1.81-1.52,4.38-2.47,6.47-3.71.67-.29,1.33-.48,2-.1-2.09,2.28-4.28,4.28-7.04,5.71-2.86,1.52-3.52,2.28-6.19,3.9-3.05,1.9-2.09.95-5.43,1.62-5.04,1.05-8.38-1.9-8.57-6.19-.1-4.09.29-8.19,1.05-12.37.86-4.85,2.48-9.71,2.95-14.56.67-6.76,2.19-15.23,3.14-20.75.57-2.95.76-5.81,1.05-8.76.09-.48-.29-1.24.29-1.43.95-.38,1.81-1.33,2.76-.86.86.29,1.62.76,2,1.62ZM363.7,138.14c.19.48.67.57,1.14.19.1-.86.1-2.38-.19-3.33-1.05.86-1.24,2.38-.95,3.14Z"/>
    <path class="cls-4" d="M407.38,102.73c1.24,1.62,1.62,3.43.67,5.52l-.1.57c.19,2.47-.29,4.28-1.05,6.85-.29.76-.1,1.52-.19,2.28-.38,3.24-.76,6.57-1.43,9.8-.19,1.24-1.05,3.33-1.33,4.57-.19.95-.1,2.28,0,3.24,1.43.19,2.28-.29,3.62-1.24,3.43-1.14,7.9-5.43,9.71-6.38-.09,1.14-.86,2.47-2.28,4-1.14,1.05-4.28,3.24-5.52,4.19-1.62,1.24-3.81,2.57-5.62,3.52-1.9,1.14-3.81,1.62-6.47,1.52-.95,0-1.33-.86-1.71-1.52-.29-.86-.67-1.43-1.05-2.09-.48,0-.86.29-1.05.57-.29.29-.67.76-.95.76-1.24.1-1.62,1.05-3.05,1.62-1.52.57-2,0-3.43.1-.57,0-1.14.38-.19.38,2.19,0-.48.76-3.33.57-1.33-.1-4.09-.86-4.66-1.81-1.71-2.67-2.09-3.33-1.81-5.62l.38-3.71c.48-3.71,2.28-6.28,4.19-8.38,2.38-2.57,4.95-4,8.19-4.76,1.62-.48,3.24-.67,4.85-1.43,1.05-.48,1.81.38,3.05,0,.76-2.57,1.14-7.23,1.33-9.8.29-1.52-.19-1.9-1.71-1.33-3.05,1.14-4.95,1.52-8.09,1.62-.38.1-.67,0-.95.19-2.09,1.33-3.05-.57-4.57-.67,0-.67.29-.67.48-.67,2.67-.67,5.23-1.62,6.85-1.81,2.19-.29,4-1.24,6.09-1.9.95-.29,1.33-.48,2.38-.67,1.14-.1,2.09.1,2.95.67.86.48,1.62,1.14,2.76,1.05.38-.67-.1-.67-.57-1.05-.76-.1-1.05-.67-.38-.67,1.43,0,3.05.86,4,1.9ZM378.26,136.81c.57.38.67,1.14,1.14,1.52.67.38.76,1.33,2,1.24-.86-1.24-1.71-2.28-2.19-3.62-.1-.38-.67-1.71-.86-.38-.1.48-.67.95-.1,1.24ZM395.01,119.1c-.38.48-.57.76-1.05.76-.29,0-.48-.09-1.14.38-1.05.76-1.14,1.05-2.19,1.71-1.14.67-2,1.52-2.57,2.57-2.38,4.19-2.76,9.14-1.52,10.47.86.95,1.33,1.81,2.67,1.33.86-.29,3.14-1.52,4.09-1.81.57-.19.76-.86.86-1.52.1-.48.1-1.05.29-1.71.48-1.71-.1-3.24.76-6.09.38-1.33.19-2.47.76-3.81.38-1.14.29-1.71.48-2.95-.38.1-1.14.38-1.43.67Z"/>
    <path class="cls-4" d="M447.26,81.69c.38.76.86,1.62,1.62,2.28.19.19.29.67.29,1.05-.1,2.38.19,4.66-.29,7.04-1.05,4.76-1.33,9.52-2.19,14.28-.1.19-.1.38.29.57,3.33-2.67,6.95-4.09,10.85-5.14,2.09-.57,3.81-.19,4.47,1.71.67.1.48-.86,1.05-.67.38.19.67.38.57.76-.1.67-.1,1.33.1,1.9.1.38.19.86.57.95,1.05.19,1.05,1.05,1.05,1.71-.1,4.19-.67,8.47-1.81,12.66,0,.19-.1.38,0,.48.29,2.09-.57,4.19-1.24,6.19-.67,2.19-1.33,4.28-2.57,6.38-1.14,1.9-2.57,3.52-4.19,5.14-1.33,1.33-2.76,2-4.38,2.47-.38.1-.86.29-1.24.1-1.33-.86-2.95-.67-4.28-1.43-.48-.29-.76-.67-1.05-1.05-.57-.76-.76-1.9-1.62-2.57-1.05,1.62-.29,3.43-1.62,4.85-.95.19-.57-.86-1.14-1.14-.19.57-.19,1.14-.86,1.62-1.43-1.05-2.47-2.76-4.28-3.52-.48.38-.19,1.14-.86,1.52-.95-.57-1.33-1.43-1.05-2.67.48-1.81.19-3.52.48-5.33.57-4.57,1.14-9.14,2.19-13.71.38-1.9.57-3.81.86-5.71,1.14-6.57,2.19-13.14,3.24-19.61.48-2.86.76-5.62,1.33-8.38.29-1.71.38-1.71,2-2.19.76-.19,1.62-.57,2.28-.95.76-.29,1.14-.19,1.43.38ZM451.92,106.44c-1.52,1.05-3.05,2.28-4.47,3.62-1.05,1.05-1.62,2.19-1.81,3.52-.57,3.24-.38,6.38-1.05,9.61-.48,2.09-.1,4.09-.57,6.19-.29,1.52-.48,3.05-.76,4.66,1.52.48,2.76,1.43,4.38,2.19,1.14-1.43,2.19-2.76,2.95-4.19,1.71-3.05,2.67-6.28,3.62-9.52,1.24-4.38,2.09-8.85,2.76-13.33.19-1.05,0-2.09.1-3.14,0-.38-.1-.76-.57-.76-1.52.19-3.14.19-4.57,1.14Z"/>
    <path class="cls-4" d="M486,99.87c0,.48-.67.76-.76,1.33.76.1,1.62.76,2-.76.1-.29.48-.19.67-.29,2.76-.29,4.76.95,6.76,2.38.1,0,.29.19.19.38.48,1.62,1.52,2.76,2.38,4.09,1.05,1.52.86,3.43,1.14,5.14,0,.95,0,1.9-.1,2.86-.29,2-.19,4-.19,6-.1,1.81-.1,3.62-1.43,5.33-.48.67-.76,1.62-.95,2.38-.19,2.19-1.24,4-2.57,5.81-1.14,1.62-2.19,3.05-3.43,4.66-.95,1.24-2.38,1.52-3.62,2-1.33-1.62.95-1.52,1.33-2.38-.57-.29-1.24.1-1.62.29-1.71.95-3.43,1.43-5.14,2.19-1.33.67-2.57.67-3.71-.1-1.9-1.14-3.52-2.57-5.04-4.09-1.62-1.9-2.57-4.38-2.95-7.14-.29-3.71.48-7.33,1.33-11.04.48-3.52,1.9-6.95,3.52-10.28,1.81-3.52,4-6.28,7.81-7.71.76-.29,1.52-.76,2.19-1.14.86-.38,1.52-.38,2.19.1ZM484.76,104.63c-.48,1.33-1.33,2.48-1.81,3.81-.57,1.33-1.24,2.57-1.33,4.09-.19,1.9-.19,3.9-.76,5.81-.48,1.43-.76,2.76-.76,4.09-.19,1.05-.29,2.19-.57,3.24-.76,3.52-.67,6.85.76,9.9.1.38.1.86.76.67,1.43-.48,1.52.57,1.71,1.52.95-.19,1.52-.67,1.81-1.14,2.19-2.09,3.33-4.57,4-7.14,1.05-3.9,1.81-7.81,2.57-11.71l1.05-8c.19-2-.29-3.81-1.71-5.04-.76-.67-1.52-1.05-2.57-.48-1.05.48-2.09.57-3.14.38ZM484.28,142.23c.38-.1.67-.38.57-.86,0-.48-.29-.29-.76-.19-.38.19-.67.19-1.05.76.38.19.86.29,1.24.29Z"/>
    <path class="cls-4" d="M536.54,102.73c-.19,1.71-.67,3.43-.67,5.14-.1.95,0,1.81,0,2.76.09,1.62.09,3.14-.67,4.76-.38.86-.38,1.81-.48,2.67-.48,3.71-1.33,7.33-1.81,11.04-.29,2.19-.86,4.47-1.14,6.66-.38,2.19.29,3.52,2.09,2.67.38-.1.57,0,1.14-.38,3.9-2.57,5.52-3.33,9.52-5.71.67-.38,1.43-.86,2.28-.86.48,1.52-1.05,2.19-1.81,3.05-2.38,2.38-2.95,1.24-5.24,3.43-.57.29-1.43,1.05-2,1.05-.29,0-.57,0-.76.29-.76.95-1.71,1.24-2.76,1.62-1.05.48-.48.1-1.33.86-1.05.86-2.76.67-3.71.67-1.52-.76-2.57-.86-4.09-1.52-.67-.38-1.33-.86-1.81-1.62-.67-.95-1.33-1.52-1.14-4.28,0-.1-.09-.29-.09-.48-1.14,0-1.71,1.05-2.38,1.71-1.24,1.24-2.47,2.38-3.81,3.52-1.81,1.62-3.9,2.09-6.09,1.71-2.09-.38-3.62-1.43-4.85-2.76-.57-.57-.76-1.33-.86-2.19-.38-4.38-.19-8.76.95-13.23.19-.86.19-1.62,0-2.38-.48-2.86.57-5.81,1.05-8.66.48-3.05,1.9-5.9,1.9-8.85.1-1.05.38-2.19,1.52-2.19,1.43,0,2.95-.38,4.19-.19,1.24.1,2.09,1.05,2.76,2,2.19,2.95,1.24,6.47.48,9.9-.48,2.28-1.05,4.57-1.33,6.76-.19,2.09-.95,4.57-1.24,6.66-.09,1.33-.09,2.76-.48,4.19-.29,1.33.48,2.38,1.33,3.24.57.67,2.76.19,3.81-.76,1.33-1.14,2.47-2.57,3.71-3.81.48-.48.57-1.14.76-1.81,1.05-4.95,1.33-9.99,2.19-14.94.57-3.24,1.43-6.47,1.52-9.8.1-.48.19-.86.86-.86.86,0,1.62-.29,2.38-.57,2.09-.76,2.38-.76,4,.57.67-.19,1.05-1.24,1.9-.86.57.29.29,1.14.19,1.81ZM510.08,138.71c1.14.38,1.9-.1,2.76-.67q-1.14-.57-2.76.67Z"/>
    <path class="cls-4" d="M555.76,78.36c.57,1.33.95,2.76.86,4.28-.1,1.14-.38,2.28.29,3.43.57-1.52.09-2.95.67-4.28.76-.1,1.05.38.86.86-.29,1.62.38,2.95.57,4.38.48,4.09-.38,8.38-1.24,15.42-.38,3.81-1.62,8.66-2.38,12.37-.67,3.71-1.52,7.42-1.52,11.14.09,2-.38,4-.48,6-.19,2-.86,3.9-.38,5.81,1.43-.38,1.52-.29,2.67-1.05.29-.19.19.38,2.95-1.14,1.05-.57,2.38-1.05,2.67-1.33,1.81-1.52,4.38-2.47,6.47-3.71.67-.29,1.33-.48,2-.1-2.09,2.28-4.28,4.28-7.04,5.71-2.86,1.52-3.52,2.28-6.19,3.9-3.05,1.9-2.09.95-5.43,1.62-5.04,1.05-8.38-1.9-8.57-6.19-.09-4.09.29-8.19,1.05-12.37.86-4.85,2.48-9.71,2.95-14.56.67-6.76,2.19-15.23,3.14-20.75.57-2.95.76-5.81,1.05-8.76.09-.48-.29-1.24.29-1.43.95-.38,1.81-1.33,2.76-.86.86.29,1.62.76,2,1.62ZM549.76,138.14c.19.48.67.57,1.14.19.1-.86.1-2.38-.19-3.33-1.05.86-1.24,2.38-.95,3.14Z"/>
    <path class="cls-4" d="M579.36,100.54c-.29.67-1.9.48-2.19,1.14.38.38.86.19,1.24-.1,2.28-1.14,4-1.62,6.47-.67l1.33.57c.86.48,1.05.48,1.71.95l.95.67c1.24.86,2.38,4.76,2.19,7.81-.19,2.28-.57,3.81-1.71,6.09-.57.95-.95,2.09-2.19,2.48-.38.1-.48.38-.57.67-1.71.86-2.57,1.81-4.95,2.67-1.05.38-2,.95-3.05,1.33-1.43.48-2.57,1.33-4.28,2.19.48,2.19.48,4.28,1.43,6.09.57,1.05,1.24,1.24,1.81,2.28.86,1.43,1.71,1.71,3.43,1.14,5.04-1.81,6.66-1.52,11.42-4.47,1.52-.95,1.62-1.33,3.43-1.81,1.05-.38,1.62-.86,2.57-1.43.38-.19.67-.57,1.24-.38-.1,2.09-1.33,2.28-2.48,3.24-.57.38-1.05.57-1.62,1.24-1.05.95-5.04,3.24-5.42,3.43-2.29,1.05-1.33.48-3.43,1.9-.57.29-2.09,1.05-2.67,1.43-1.71,1.05-3.33,1.05-4.09,1.62-2.09,1.33-4.95,1.33-7.14,1.43-1.33,0-2.95-.48-4-1.71-1.9-2.19-3.33-4.19-3.81-7.14-.1-.38-.1-.67-.19-.95-.09-1.52-.38-2.19-.19-3.71l.57-5.04c.29-2.95,1.43-7.52,2.47-10.38,1.33-3.43,2.67-6.85,5.24-9.71,1.52-1.52,3.14-2.57,5.04-2.95.29,0,1.33-.29,1.43.1ZM571.08,134.24c.76,1.71,1.43,3.43,3.24,4.28.09-.19.19-.29.38-.38-.67-.95-1.14-2-1.9-2.86-.76-.95-.67-2.28-1.24-3.43-.76.86-.86,1.62-.48,2.38ZM579.08,105.01c-1.24,1.33-2.09,3.9-2.38,5.52-.86,3.33-.95,6.85-1.81,10.09-.1.67-.38,1.62-.29,2.38.67-.1,1.81-1.14,2.19-1.33,1.62-.95,2.76-2,4.19-2.76,1.71-1.05,1.81-2.47,2.57-4.66.19-.29.29-1.05.48-1.33.48-1.33.48-3.24.29-4.09-.19-1.43-.38-2.19-.38-3.24-.09-.76-.29-1.71-.86-2-1.9-.95-2.38-.38-4,1.43ZM576.6,138.33c-.19-.86-.67-1.24-1.24-1.33.1.67.38,1.14,1.24,1.33Z"/>
    <path class="cls-4" d="M637.61,79.7c.48,3.43.95,5.62.86,9.23-.1,1.71,0,1.71,1.81,1.33.76-.1,1.62-.19,2.38-.19,2.57-.1,5.33-.38,8.47.29.76.19,1.71.29,1.81,1.52-1.33.19-2.57.67-3.9.48-1.33-.29-2-.19-3.33.67-.95.57-2.19.76-2.48.76-1.14,0-2.19.19-3.24.38-1.52.29-2,.86-2.09,2.28-.19,3.24-2,11.14-2.57,14.37-.38,1.81-.86,3.71-1.05,5.52-.19,2.38-1.14,4.85-1.24,7.23,0,.67-.09,1.24-.09,1.81.09,2.76,0,4.57-.57,7.42-.67,2.38.48,3.05,1.43,4.85.38.57,1.62.48,2.19.29,1.14-.38,2.95-.76,3.9-1.43,1.43-.76,4.28-2.19,5.62-3.05,1.24-.67,0,3.24-1.71,4.09-.86.29-1.71.76-2.38,1.24-.95.57-2.47,1.24-3.33,1.9-1.9,1.52-2.67,1.52-5.04,1.52-.67-.1-1.33-.19-2-.1-2,.19-3.43-.86-4.76-1.9-.76-.67-1.62-1.33-2.19-2.09-.95-.95-.95-2.57-.95-4.19,0-1.43.19-2.95.38-4.38.38-3.05.86-6.09,1.24-9.14.1-.57.29-1.14,0-1.71-.09-.1-.19-.29-.09-.48.38-3.52.19-9.99,1.43-13.61.76-2.09,1.05-5.9,1.52-8,.19-.67-.09-1.05-.76-.95-.67,0-3.62.29-3.9-.38.48-.67,3.52-.57,4-1.05-.67-.67-1.62-.38-2.47-.19-2.76.67-4.66,1.14-5.62,1.14-1.33,0-2.19.76-3.62.67-.86,0-1.33.48-1.33,1.33-.29,3.81-1.62,11.52-2.38,15.23-.95,5.52-1.24,11.04-2.09,16.56-.29,2.57-.29,5.24-.38,7.81,0,1.9-.29,3.62-2.19,5.04-.57.48-1.33,1.43-1.81,2.28-1.81-.76-1.52,1.05-2,1.9-2.19-2-1.9-4.76-1.81-7.52v-7.71c-.86,1.43-.95,2.86-.86,4.28.1,2.48-.09,4.95-.67,7.61-.57-.1-.95-.57-.86-1.05.38-1.52,0-2.86-.19-4.28-.19-2.76.29-5.62.76-8.47.38-1.52.19-3.14.57-4.76.67-4.38.09-8.66,1.05-13.14.38-1.81,1.33-6.66,1.9-8.47.38-1.43.86-4,.86-5.14-1.62-.19-3.14.48-4.76.57-2.09.1-2.19.48-4.09-.38-.29-.1-.86-2.09-.67-2.38.57-.57,1.05-1.05,1.9-1.05,1.9,0,2.09-.38,3.9-.29,1.05.1,1.9,0,3.05-.38q1.52-.38,1.81-1.71c.48-2.38.76-3.24,1.05-5.62.19-1.43,1.14-2.57,1.62-3.81.38-.76.95-.86,1.52-.38.19.19.38.48.48.67.19,1.05.67,2.38,1.43,2.57,2.57.76,2.76,1.33,2.76,3.43,0,.38,0,1.62.19,2,.38,1.14,0,1.33,1.62,1.24,3.05-.29,3.71-.29,5.33-.29,2.19,0,2.86-.48,4.85-.38.29,0,2.19-.29,2.47-.38.38-.67.48-2,.48-2.57,0-2.76,1.24-3.43,1.81-.57.38-1.33.29-1.14.48-2.48,0-.76.19-1.43.86-2.09,1.24-1.33,1.62-2.86,1.9-4.57.19-1.33.19-1.24,1.52-1.05,1.33.19,2,.76,2.29,2.19ZM629.9,135.85c.29-2.47,1.14-4.95,1.14-7.42-1.71,2.47-1.24,4.95-1.14,7.42ZM647.51,93.12c.95-.48,1.62-.38,2.48-.19q-1.14.67-2.48.19ZM650.94,93.21c.1-.48.38-.57,1.52-.1-.76.48-1.14.29-1.52.1Z"/>
    <path class="cls-4" d="M661.31,100.54c-.29.67-1.9.48-2.19,1.14.38.38.86.19,1.24-.1,2.28-1.14,4-1.62,6.47-.67l1.33.57c.86.48,1.05.48,1.71.95l.95.67c1.24.86,2.38,4.76,2.19,7.81-.19,2.28-.57,3.81-1.71,6.09-.57.95-.95,2.09-2.19,2.48-.38.1-.48.38-.57.67-1.71.86-2.57,1.81-4.95,2.67-1.05.38-2,.95-3.05,1.33-1.43.48-2.57,1.33-4.28,2.19.48,2.19.48,4.28,1.43,6.09.57,1.05,1.24,1.24,1.81,2.28.86,1.43,1.71,1.71,3.43,1.14,5.04-1.81,6.66-1.52,11.42-4.47,1.52-.95,1.62-1.33,3.43-1.81,1.05-.38,1.62-.86,2.57-1.43.38-.19.67-.57,1.24-.38-.1,2.09-1.33,2.28-2.48,3.24-.57.38-1.05.57-1.62,1.24-1.05.95-5.04,3.24-5.42,3.43-2.29,1.05-1.33.48-3.43,1.9-.57.29-2.09,1.05-2.67,1.43-1.71,1.05-3.33,1.05-4.09,1.62-2.09,1.33-4.95,1.33-7.14,1.43-1.33,0-2.95-.48-4-1.71-1.9-2.19-3.33-4.19-3.81-7.14-.1-.38-.1-.67-.19-.95-.09-1.52-.38-2.19-.19-3.71l.57-5.04c.29-2.95,1.43-7.52,2.47-10.38,1.33-3.43,2.67-6.85,5.24-9.71,1.52-1.52,3.14-2.57,5.04-2.95.29,0,1.33-.29,1.43.1ZM653.03,134.24c.76,1.71,1.43,3.43,3.24,4.28.09-.19.19-.29.38-.38-.67-.95-1.14-2-1.9-2.86-.76-.95-.67-2.28-1.24-3.43-.76.86-.86,1.62-.48,2.38ZM661.02,105.01c-1.24,1.33-2.09,3.9-2.38,5.52-.86,3.33-.95,6.85-1.81,10.09-.1.67-.38,1.62-.29,2.38.67-.1,1.81-1.14,2.19-1.33,1.62-.95,2.76-2,4.19-2.76,1.71-1.05,1.81-2.47,2.57-4.66.19-.29.29-1.05.48-1.33.48-1.33.48-3.24.29-4.09-.19-1.43-.38-2.19-.38-3.24-.09-.76-.29-1.71-.86-2-1.9-.95-2.38-.38-4,1.43ZM658.55,138.33c-.19-.86-.67-1.24-1.24-1.33.1.67.38,1.14,1.24,1.33Z"/>
    <path class="cls-4" d="M705.85,131.76c1.52.86,2.19,1.81,3.24,3.24.19.19.29.48.19.76-.48.67-.38,1.24-.38,1.9.1.76-.48,1.43-1.14,1.71-1.81.57-3.52,2.38-5.33,1.71-1.05,0-2.19.48-2.76-.1-.57-.57-.19-1.71-.29-2.48,0-.48-.1-.95-.19-1.43-.1-1.14.38-2.19,1.33-2.86,1.33-1.05,2.57-1.9,4-2.57.57-.29.95-.19,1.33.1ZM718.22,75.03c.1,3.33,0,6.66-1.24,10.09-1.14,3.24-2.09,7.42-2.67,10.76-.29,2.48-.76,4.85-.95,7.23-.09.67-.38,1.33-.57,2-.86,2.48-1.33,4.95-1.52,7.42-.09,2.67-1.14,5.24-2.09,7.81-.29,1.05-.57,2.19-1.43,3.24-.29.38-.38.76-1.05.57-.48-.19-.57.67-1.05,1.05-.67.57-.86-.95-.76-1.71.09-.29-.1-.57-.29-.48-.95.57-.86-.19-.86-.57-.09-.86-.29-1.43-.67-2.09-.67-1.33-.48-2.86-.1-4.47,0-.29,0-.48.19-.76.1-1.33.48-2.76-.29-4.09-.76-1.43.09-2.86.29-4.38.38-3.24.57-6.57.95-9.9.19-1.9.67-3.81.38-5.62-.1-.57,0-1.24.09-1.81l.48-5.04c.29-2.09,1.05-4.28,1.14-6.47,0-1.33,2-1.81,2.57-3.14.48-1.05,1.52-.95,1.62-.19.09,2.95,1.43,2.76,1.43-.95.09-2,1.62-1.9,3.05-1.71,1.52.29,3.14,1.05,3.33,3.24Z"/>
    <path class="cls-4" d="M756.58,72.94c.38.1.19.67.19.95-.29,1.24-.48,2.47-.86,3.71-.95,3.81-1.24,7.61-1.81,11.42-.19,1.62-.76,3.24-.67,4.76,0,.67-.19,1.33.38,1.81,1.81-3.62.86-7.23,2.09-10.95,1.24-3.52,1.05-7.23,2.19-11.14,1.14,1.05.67,2.28.48,3.33l-1.14,7.42c-.76,4.38-1.24,8.66-1.9,13.04-.67,4.28-1.62,8.57-1.43,12.75.29,3.24.29,6.38.09,9.71-.29,2.95-1.24,5.81-2,8.66-.19.67-.38,1.24-.48,1.9-.29,1.05-.57,2.09-1.24,3.05-.76.95-.95,2-.67,3.05.29.09.48,0,.67-.29.57-.86.67-.95,1.24-.19.29.29.57.29.86.29,1.24,0,2.57.1,3.9-.19,1.9-.29,3.71-.38,5.62-.57.95,0,2-.1,2.76.48.48.29,1.05.19,1.62.19.48,0,.95-.1,1.43.19.38.29.86.67.09,1.14-.57.48-.86.76-.48,1.33.19.29-.09.67-.38.76-1.43.57-2.57,1.43-4.19,1.24-2.19-.19-4.66.57-6.95.38-2.57-.09-5.33.19-7.9.38-2.57.29-5.71.19-8.28.67-1.81.29-2.86-.57-3.43-2.48,1.05-.76,2.67.1,3.33-1.52,0-.48-.38-.67-.67-1.05-.48-.95-1.05-1.81-.95-3.05.67-5.71,1.81-11.42,2.38-17.04.48-4.76,1.24-9.52,1.81-14.28.76-5.04,1.24-9.99,1.9-15.04.57-4,1.52-8.09,1.81-12.09,0-.95.67-1.24,1.33-1.24,1.43.19,2.67-1.05,4.19-1.14.29,0,.48-.29.67-.57.76-1.24,1.71-1.43,2.86-1.52.48.57.48,1.52,1.52,1.71ZM741.16,137.66c-.09.19,0,.29.19.29.38.1.48-.1.67-.48-.09-.19.1-.48-.29-.48s-.38.38-.57.67Z"/>
    <path class="cls-4" d="M802.07,102.73c1.24,1.62,1.62,3.43.67,5.52l-.09.57c.19,2.47-.29,4.28-1.05,6.85-.29.76-.09,1.52-.19,2.28-.38,3.24-.76,6.57-1.43,9.8-.19,1.24-1.05,3.33-1.33,4.57-.19.95-.1,2.28,0,3.24,1.43.19,2.28-.29,3.62-1.24,3.43-1.14,7.9-5.43,9.71-6.38-.1,1.14-.86,2.47-2.29,4-1.14,1.05-4.28,3.24-5.52,4.19-1.62,1.24-3.81,2.57-5.62,3.52-1.9,1.14-3.81,1.62-6.47,1.52-.95,0-1.33-.86-1.71-1.52-.29-.86-.67-1.43-1.05-2.09-.48,0-.86.29-1.05.57-.29.29-.67.76-.95.76-1.24.1-1.62,1.05-3.05,1.62-1.52.57-2,0-3.43.1-.57,0-1.14.38-.19.38,2.19,0-.48.76-3.33.57-1.33-.1-4.09-.86-4.66-1.81-1.71-2.67-2.09-3.33-1.81-5.62l.38-3.71c.48-3.71,2.28-6.28,4.19-8.38,2.38-2.57,4.95-4,8.19-4.76,1.62-.48,3.24-.67,4.85-1.43,1.05-.48,1.81.38,3.05,0,.76-2.57,1.14-7.23,1.33-9.8.29-1.52-.19-1.9-1.71-1.33-3.05,1.14-4.95,1.52-8.09,1.62-.38.1-.67,0-.95.19-2.09,1.33-3.05-.57-4.57-.67,0-.67.29-.67.48-.67,2.67-.67,5.24-1.62,6.85-1.81,2.19-.29,4-1.24,6.09-1.9.95-.29,1.33-.48,2.38-.67,1.14-.1,2.09.1,2.95.67.86.48,1.62,1.14,2.76,1.05.38-.67-.1-.67-.57-1.05-.76-.1-1.05-.67-.38-.67,1.43,0,3.05.86,4,1.9ZM772.95,136.81c.57.38.67,1.14,1.14,1.52.67.38.76,1.33,2,1.24-.86-1.24-1.71-2.28-2.19-3.62-.09-.38-.67-1.71-.86-.38-.1.48-.67.95-.1,1.24ZM789.7,119.1c-.38.48-.57.76-1.05.76-.29,0-.48-.09-1.14.38-1.05.76-1.14,1.05-2.19,1.71-1.14.67-2,1.52-2.57,2.57-2.38,4.19-2.76,9.14-1.52,10.47.86.95,1.33,1.81,2.67,1.33.86-.29,3.14-1.52,4.09-1.81.57-.19.76-.86.86-1.52.09-.48.09-1.05.29-1.71.48-1.71-.09-3.24.76-6.09.38-1.33.19-2.47.76-3.81.38-1.14.29-1.71.48-2.95-.38.1-1.14.38-1.43.67Z"/>
    <path class="cls-4" d="M838.24,100.54c0,.57.57.67,1.05.67,1.24.1,1.62.86,1.71,1.9.19,1.52.19,3.05.67,4.66,1.33-1.05,2.67-2,3.81-3.14,4.66-4.47,8.85-4.19,13.14-2.95.86.29,1.33.95,1.71,1.62,1.43,2.28,3.05,4.85,2.47,8.28-.38,2.19-.76,4.47-.48,6.76l-.19.86c-.86,2.47-.95,5.04-1.52,7.61-.29,1.52-.95,2.95-1.81,4.28,0,.19-.95,1.9-1.71,3.05-1.14,1.81-1.52,2-3.52,4.28-.48.48-1.52,1.14-2.19,1.52-.38-1.81,2.28-2.28,1.9-4-1.24,1.24-2,2.86-3.71,3.62-.09.1-.19.29-.38.48-.38.48.1,1.43-.86,1.62-1.05.29-2,.29-3.05.29-2.28-.1-3.71-1.24-4.85-2.86-.76-1.05-1.43-2.09-2.28-3.33-.86,2.09-1.05,4.09-1.71,6.09-.76,3.14-.86,6.28-1.52,9.42-.38,1.81-.67,3.52-1.62,5.23-.38.67-.29,1.43-.57,2.19-.19.57-.1,1.14-.76,1.71-1.05-1.24-3.14-1.52-3.33-4.09-.57,1.14-.86,1.81-1.14,2.57-1.05-.86-1.62-1.9-1.81-3.24-.29-2.47.38-4.95.48-7.42.19-4.66,1.24-9.23,2.28-13.9.86-3.33,1.24-6.66,2.09-9.99,1.24-4.85,1.52-9.71,2.47-14.56l.95-4.09c.29-1.43.48-2.86.57-4.28,0-1.14.67-1.81,1.81-1.81.76.1,1.71-.1,1.9.95ZM847.47,105.78c-2.57,1.24-4.28,3.62-5.9,5.81-.19.19-.29.48-.29.67-.19,3.43-.57,6.76-.95,10.19-.38,2.67-.48,5.43-1.24,8.19-.09.76-.09,1.33.29,1.9.95,1.62,2,3.24,3.33,4.47.57.57,1.24.86,2.09,1.05.38.09.67,0,.95-.38,2.48-3.24,4.19-6.66,4.95-10.47l.67-4.28c.86-3.71.48-7.33,1.05-11.04.29-1.81,0-3.62,0-5.43,0-1.14-.67-1.9-1.43-1.71-1.14.19-2.47.48-3.52,1.05Z"/>
    <path class="cls-4" d="M895.91,102.73c1.24,1.62,1.62,3.43.67,5.52l-.09.57c.19,2.47-.29,4.28-1.05,6.85-.29.76-.1,1.52-.19,2.28-.38,3.24-.76,6.57-1.43,9.8-.19,1.24-1.05,3.33-1.33,4.57-.19.95-.09,2.28,0,3.24,1.43.19,2.28-.29,3.62-1.24,3.43-1.14,7.9-5.43,9.71-6.38-.1,1.14-.86,2.47-2.29,4-1.14,1.05-4.28,3.24-5.52,4.19-1.62,1.24-3.81,2.57-5.62,3.52-1.9,1.14-3.81,1.62-6.47,1.52-.95,0-1.33-.86-1.71-1.52-.29-.86-.67-1.43-1.05-2.09-.48,0-.86.29-1.05.57-.29.29-.67.76-.95.76-1.24.1-1.62,1.05-3.05,1.62-1.52.57-2,0-3.43.1-.57,0-1.14.38-.19.38,2.19,0-.48.76-3.33.57-1.33-.1-4.09-.86-4.66-1.81-1.71-2.67-2.09-3.33-1.81-5.62l.38-3.71c.48-3.71,2.28-6.28,4.19-8.38,2.38-2.57,4.95-4,8.19-4.76,1.62-.48,3.24-.67,4.85-1.43,1.05-.48,1.81.38,3.05,0,.76-2.57,1.14-7.23,1.33-9.8.29-1.52-.19-1.9-1.71-1.33-3.05,1.14-4.95,1.52-8.09,1.62-.38.1-.67,0-.95.19-2.09,1.33-3.05-.57-4.57-.67,0-.67.29-.67.48-.67,2.67-.67,5.24-1.62,6.85-1.81,2.19-.29,4-1.24,6.09-1.9.95-.29,1.33-.48,2.38-.67,1.14-.1,2.09.1,2.95.67.86.48,1.62,1.14,2.76,1.05.38-.67-.09-.67-.57-1.05-.76-.1-1.05-.67-.38-.67,1.43,0,3.05.86,4,1.9ZM866.79,136.81c.57.38.67,1.14,1.14,1.52.67.38.76,1.33,2,1.24-.86-1.24-1.71-2.28-2.19-3.62-.09-.38-.67-1.71-.86-.38-.09.48-.67.95-.09,1.24ZM883.54,119.1c-.38.48-.57.76-1.05.76-.29,0-.48-.09-1.14.38-1.05.76-1.14,1.05-2.19,1.71-1.14.67-2,1.52-2.57,2.57-2.38,4.19-2.76,9.14-1.52,10.47.86.95,1.33,1.81,2.67,1.33.86-.29,3.14-1.52,4.09-1.81.57-.19.76-.86.86-1.52.09-.48.09-1.05.29-1.71.48-1.71-.09-3.24.76-6.09.38-1.33.19-2.47.76-3.81.38-1.14.29-1.71.48-2.95-.38.1-1.14.38-1.43.67Z"/>
    <path class="cls-4" d="M918.75,102.25c.29.29.76.38,1.05.57,2.38.76,3.62,2.38,3.62,5.04,0,.29,0,.57.1.86.09,0,.19.1.48.19.48-2,1.05-3.9.95-5.81,0-1.33.48-1.81,1.62-1.43,1.24.38,2.19,1.14,3.05,2.09l.48.57c.76,0,.38-.76,1.05-1.05,1.05.86,2.38,1.71,2.29,3.62l-.57,5.04c-.38,4.09-.86,8.19-1.24,12.28-.1,2.47-.57,4.85-.95,7.33-.19.76-.29,1.52,0,2.28.57.1.86-.48,1.24-.67,2.28-1.05,4-2.09,8.09-4.85.67-.38.76-.38,2.19-.38-1.05,1.9-2.48,3.14-4.28,4.38-1.62,1.14-1.33,1.05-3.05,2.19-1.71,1.24-2.38,1.52-3.05,1.9-.67.29-1.24.76-1.62,1.14-.67.57-1.14,1.24-.95,2.09.29,1.62.09,3.24-.95,4.85-.29.48-.38,1.05-.48,1.62-.29,2.95-1.33,5.62-2.86,8.28-1.9,3.05-3.81,5.9-6.57,8.19-.76.76-1.52,1.43-2.67,1.43-.86,0-1.9.67-2.76,1.14-1.81.76-3.52,1.62-5.33,2.19-2,.67-2.48.57-3.33-1.33-.19-.38-.57-.57-.95-.57-1.81-.19-2.47-1.52-2.95-2.95-.29-1.14-.19-2.38-.19-3.62-.1-2.38,1.14-4.38,2.57-6.19,2.09-2.76,4.66-4.85,7.14-7.14,1.24-1.05,2.86-1.52,4.09-2.38,1.52-.86,2.76-1.9,4.09-2.86.95-.76,2.47-.95,2.86-2,.48-.95.29-2.09.38-3.14.09-.76,0-1.52,0-2.38-.76.38-1.43.76-1.81,1.43-.76,1.24-1.9,2.09-2.76,3.43-.48.76-1.43,1.24-2.19,1.62l-2.76,1.14c-1.43.48-2.76-.1-3.81-.76-1.05-.57-2-1.33-3.05-1.81-.67-.38-1.05-1.05-1.33-1.81-1.14-2.95-1.71-6.09-1.62-9.42,0-6.76,2.28-13.23,5.81-19.51,1.05-1.62,2.09-3.33,3.62-4.66.76-.67,1.43-1.62,2.47-.76.19.19.76-.1,1.24-.19,1.43-.38,2.67-.29,3.62.76ZM919.23,144.04c-1.43.76-2.76,2-4.38,2.38-.09,0-.29.29-.38.38-.29.29-.76.57-1.05.76-2.28.95-4,2.76-5.81,4.19-1.62,1.33-2.67,3.05-4,4.66-1.24,1.71-1.33,3.14-.67,4.76.57,1.33,3.43,2.48,5.04,1.9l.67-.38c.67-.76,1.43-1.43,2.09-2.28,1.24-1.71,2.86-3.24,4.47-4.76,1.52-1.43,2.86-3.05,3.71-4.95,1.05-2.28.86-4.47,1.52-6.95-.57.1-.95.1-1.24.29ZM916.37,106.82c-.67,1.52-1.43,3.05-1.43,4.66-.1,2.28-.38,4.66-.95,6.95-.29,1.52-.76,2.95-.86,4.47-.1,1.33-.57,2.67-1.52,3.71-.76.76-1.14,1.62-1.24,2.38-.38,1.43-.48,2.95.38,4.19.09-.76.09-1.52.29-2.28.1-.57.19-1.14.48-1.71.19-.38.48-.67.86-.67.38.1.38.48.29.86-.19,1.14-.29,2.19.19,3.24.76,1.71,1.14,1.9,2.95.76,1.81-1.05,3.52-2.28,5.14-3.81.67-.57.95-1.14.95-1.9l1.14-8.76c0-.48.19-1.14-.19-1.33-.86-.48-.86-1.33-1.05-2.19-.57-2.38-1.9-4.47-2.19-7.04-.1-1.05-.67-1.71-1.52-2.09-.86-.38-1.33-.38-1.71.57Z"/>
    <path class="cls-4" d="M953.49,100.54c-.29.67-1.9.48-2.19,1.14.38.38.86.19,1.24-.1,2.29-1.14,4-1.62,6.47-.67l1.33.57c.86.48,1.05.48,1.71.95l.95.67c1.24.86,2.38,4.76,2.19,7.81-.19,2.28-.57,3.81-1.71,6.09-.57.95-.95,2.09-2.19,2.48-.38.1-.48.38-.57.67-1.71.86-2.57,1.81-4.95,2.67-1.05.38-2,.95-3.05,1.33-1.43.48-2.57,1.33-4.28,2.19.48,2.19.48,4.28,1.43,6.09.57,1.05,1.24,1.24,1.81,2.28.86,1.43,1.71,1.71,3.43,1.14,5.04-1.81,6.66-1.52,11.42-4.47,1.52-.95,1.62-1.33,3.43-1.81,1.05-.38,1.62-.86,2.57-1.43.38-.19.67-.57,1.24-.38-.1,2.09-1.33,2.28-2.47,3.24-.57.38-1.05.57-1.62,1.24-1.05.95-5.04,3.24-5.43,3.43-2.28,1.05-1.33.48-3.43,1.9-.57.29-2.09,1.05-2.67,1.43-1.71,1.05-3.33,1.05-4.09,1.62-2.09,1.33-4.95,1.33-7.14,1.43-1.33,0-2.95-.48-4-1.71-1.9-2.19-3.33-4.19-3.81-7.14-.09-.38-.09-.67-.19-.95-.09-1.52-.38-2.19-.19-3.71l.57-5.04c.29-2.95,1.43-7.52,2.47-10.38,1.33-3.43,2.67-6.85,5.24-9.71,1.52-1.52,3.14-2.57,5.04-2.95.29,0,1.33-.29,1.43.1ZM945.21,134.24c.76,1.71,1.43,3.43,3.24,4.28.1-.19.19-.29.38-.38-.67-.95-1.14-2-1.9-2.86-.76-.95-.67-2.28-1.24-3.43-.76.86-.86,1.62-.48,2.38ZM953.21,105.01c-1.24,1.33-2.09,3.9-2.38,5.52-.86,3.33-.95,6.85-1.81,10.09-.1.67-.38,1.62-.29,2.38.67-.1,1.81-1.14,2.19-1.33,1.62-.95,2.76-2,4.19-2.76,1.71-1.05,1.81-2.47,2.57-4.66.19-.29.29-1.05.48-1.33.48-1.33.48-3.24.29-4.09-.19-1.43-.38-2.19-.38-3.24-.09-.76-.29-1.71-.86-2-1.9-.95-2.38-.38-4,1.43ZM950.73,138.33c-.19-.86-.67-1.24-1.24-1.33.1.67.38,1.14,1.24,1.33Z"/>
    <path class="cls-4" d="M369.93,216.94c1.24,1.62,1.62,3.43.67,5.52l-.1.57c.19,2.47-.29,4.28-1.05,6.85-.29.76-.1,1.52-.19,2.28-.38,3.24-.76,6.57-1.43,9.8-.19,1.24-1.05,3.33-1.33,4.57-.19.95-.1,2.28,0,3.24,1.43.19,2.28-.29,3.62-1.24,3.43-1.14,7.9-5.43,9.71-6.38-.1,1.14-.86,2.47-2.28,4-1.14,1.05-4.28,3.24-5.52,4.19-1.62,1.24-3.81,2.57-5.62,3.52-1.9,1.14-3.81,1.62-6.47,1.52-.95,0-1.33-.86-1.71-1.52-.29-.86-.67-1.43-1.05-2.09-.48,0-.86.29-1.05.57-.29.29-.67.76-.95.76-1.24.1-1.62,1.05-3.05,1.62-1.52.57-2,0-3.43.1-.57,0-1.14.38-.19.38,2.19,0-.48.76-3.33.57-1.33-.1-4.09-.86-4.66-1.81-1.71-2.67-2.09-3.33-1.81-5.62l.38-3.71c.48-3.71,2.28-6.28,4.19-8.38,2.38-2.57,4.95-4,8.19-4.76,1.62-.48,3.24-.67,4.85-1.43,1.05-.48,1.81.38,3.05,0,.76-2.57,1.14-7.23,1.33-9.8.29-1.52-.19-1.9-1.71-1.33-3.05,1.14-4.95,1.52-8.09,1.62-.38.1-.67,0-.95.19-2.09,1.33-3.05-.57-4.57-.67,0-.67.29-.67.48-.67,2.67-.67,5.23-1.62,6.85-1.81,2.19-.29,4-1.24,6.09-1.9.95-.29,1.33-.48,2.38-.67,1.14-.1,2.09.1,2.95.67.86.48,1.62,1.14,2.76,1.05.38-.67-.1-.67-.57-1.05-.76-.1-1.05-.67-.38-.67,1.43,0,3.05.86,4,1.9ZM340.81,251.02c.57.38.67,1.14,1.14,1.52.67.38.76,1.33,2,1.24-.86-1.24-1.71-2.28-2.19-3.62-.09-.38-.67-1.71-.86-.38-.1.48-.67.95-.1,1.24ZM357.56,233.31c-.38.48-.57.76-1.05.76-.29,0-.48-.09-1.14.38-1.05.76-1.14,1.05-2.19,1.71-1.14.67-2,1.52-2.57,2.57-2.38,4.19-2.76,9.14-1.52,10.47.86.95,1.33,1.81,2.67,1.33.86-.29,3.14-1.52,4.09-1.81.57-.19.76-.86.86-1.52.1-.48.1-1.05.29-1.71.48-1.71-.09-3.24.76-6.09.38-1.33.19-2.47.76-3.81.38-1.14.29-1.71.48-2.95-.38.1-1.14.38-1.43.67Z"/>
    <path class="cls-4" d="M445.41,243.78c-.86.95-1.71,1.62-2.67,2.28-1.52,1.05-2.38,1.62-3.52,3.14-.67.86-1.05.95-1.9,1.05-.57,0-1.33.76-1.9,1.14-.67.48-1.33.57-1.9,1.05-.38.48-.76.95-1.24,1.24-.48.38-1.24.57-1.81.76l-1.9.57c-.38.19-.86.29-1.33.29-.29,0-.57-.1-.86-.1-.38.19-.67.57-1.05.67s-.76-.19-1.05-.48c-.38-.38-.76-.76-1.43-.86-.67-.19-1.05-1.05-2-.38-.48.29-.86-.29-1.14-.57-1.24-1.52-1.05-3.43-1.05-5.33.19-2.47.67-5.04,1.14-7.61.57-3.05,1.14-6.19,1.9-9.23.76-2.67,1.33-5.33,1.62-8,.1-1.62.76-3.24.86-4.95-3.71.29-10.76.76-11.52,1.05-.76.29-1.24.38-1.33.67-.67,4.28-1.9,8.57-2.28,12.85-.38,3.62-.57,7.33-1.14,11.04-.76,5.71-1.52,11.42-2.38,17.13,0,.1-.48.67-.48.76-.67.19-.48-1.52-.95-1.52,0,2.28-1.62,4.66-2.86,6.76-.67-.86-1.33-1.24-2.28-1.33-.86-.1-1.24-.95-1.43-1.71-.1-.95-.57-1.71-1.05-2.57-.76-1.81-.86-3.71-.57-5.81.29-2.95.57-5.9.95-8.85s.67-5.9,1.43-8.95c.67-3.52,2-7.14,2-10.85-.1-1.24.29-2.57.48-3.9.1-.57.29-1.14.1-1.9-.95,0-1.81,0-2.76.57-.67.48-1.43.38-1.9-.29-.38-.67-.19-1.24.57-1.71.48-.38.19-.86.19-1.24-.1-1.14.1-1.43,1.33-1.62l2.38-.29q1.33-.19,1.62-1.52c.29-1.71.67-3.33.95-5.04.48-2.86.86-3.71,2.38-6.47,1.05-2,2.57-3.33,4.19-4.76,2.76-2.19,6-3.14,9.04-4,4.19-1.24,5.62-.76,8,.38.19.19,1.52.67,1.81,1.14-1.81.38-3.05-1.52-5.24-.57-.67.29-.86.76.38.48,1.43-.48,1.62-.1,2,.1,2.09.95,2.67,1.05,3.52,1.43.38.19.95,2.19.38,1.71-.76-.67-5.43-.19-6.38,0-2.47.48-5.62,2.67-6.66,4.47-1.52,2.86-1.81,3.33-2.95,6.28-.57,1.43-.95,3.52-1.24,5.14,9.99.1,13.04-1.24,16.56-.95,2,0,2.67.86,2.86,2.76,0,.29,0,.67.29.86,1.14-.76,1.43-.67,1.24.57,0,.48-.1.95-.38,1.43-.38.95-.57,1.9-.57,2.86-.1,4-.86,8-1.43,11.99-.29,2.47-.38,4.85-.48,7.33-.19,1.71-.1,3.43-.29,5.14-.1,1.9-.86,3.33,1.05,2.57,2.19-.95,2.57-.86,5.43-2.67.95-.57,2.95-2,4-2.28.57-.29,1.14-.57,1.52-.95.95-.67,2-1.33,3.14-.38Z"/>
    <path class="cls-4" d="M472.63,216.94l.29.38c.19,1.9,1.05,3.62.76,5.81-.67,4.57-1.43,9.14-2.47,13.61-.57,2.28-.67,4.57-1.14,6.76-.29,1.71.09,3.33.19,4.95.1.95,2.67,2,3.52,1.43,3.71-2.28,6.57-3.9,10.28-6.19.29-.19.57-.29.86,0-.67,1.24-1.43,3.33-3.05,4-1.71.86-3.52,1.9-4.85,3.62-.95,1.24-1.71,1.62-3.14,2.28-1.24,1.05-1.71,1.24-3.33,1.71-.76.48-1.52,1.05-2.67,1.14-2.67.19-4.95-.86-5.9-3.24-1.14-2.48-1.24-5.24-.86-8,.29-3.14.76-6.19,1.33-9.33.76-4.85,1.52-9.23,3.33-13.99.57-1.33.48-2,.48-3.33s-.95-2.09-2.38-.86c-3.9,3.24-6.76,6.09-9.04,10.57-1.43,2.86-1.81,5.62-1.9,8.38-.1,1.14-.29,2.28-.57,3.43-.95,4.28-2,8.66-2.47,12.94-.19,1.05-.67,1.43-1.81,1.71-.57.19-.86.48-1.14.67-1.52.95-2.57.76-3.24-.76-.19-.48-.38-1.14-.95-1.43-.48.29-.29.76-.57,1.14-.76-.38-.86-1.14-1.05-1.9-.38-2.19-.67-4.38-.19-6.76l1.9-13.04,2.67-16.75c.29-1.33.38-1.33,1.52-1.14.48.1.95.19,1.43,0,.95-.38,1.71-.1,2.28.38.67.67,1.62,1.14,2.38,1.81.76.76,1.05,1.71.76,2.95-.48,1.9-.38,3.71-.29,5.62.76-.48,1.05-1.05,1.33-1.52,1.33-2.57,3.33-4.76,5.24-6.85,2.28-2.28,4.66-2.95,7.52-2.48,2.09.29,3.33,1.52,4.95,2.28Z"/>
    <path class="cls-4" d="M493.28,217.32c0,.29,0,.67.29.86,1.14-.76,1.43-.67,1.24.57,0,.48-.1.95-.38,1.43-.38.95-.57,1.9-.57,2.86-.1,4-.86,8-1.43,11.99-.29,2.47-.38,4.85-.48,7.33-.19,1.71-.09,3.43-.29,5.14-.1,1.9-.86,3.33,1.05,2.57,2.19-.95,2.57-.86,5.43-2.67.95-.57,2.95-2,4-2.28.57-.29,1.14-.57,1.52-.95.95-.67,2-1.33,3.14-.38-.86.95-1.71,1.62-2.67,2.28-1.52,1.05-2.38,1.62-3.52,3.14-.67.86-1.05.95-1.9,1.05-.57,0-1.33.76-1.9,1.14-.67.48-1.33.57-1.9,1.05-.38.48-.76.95-1.24,1.24-.48.38-1.24.57-1.81.76l-1.9.57c-.38.19-.86.29-1.33.29-.29,0-.57-.1-.86-.1-.38.19-.67.57-1.05.67s-1.24-.19-1.62-.48c-.76-.38-1.9-.48-2.57-1.24-.48-.38-1.14-.29-1.43-.57-1.24-1.52-1.05-3.43-1.05-5.33.19-2.47.67-5.04,1.14-7.61.57-3.05,1.14-6.19,1.9-9.23.76-2.67,1.33-5.33,1.62-8,.1-1.9,1.05-3.81.86-5.81.1-.67.95-1.33,1.43-1.81,1.05-.76,2.19-1.14,3.43-1.24,2,0,2.67.86,2.86,2.76ZM495.37,188.48c-.29.86.1,1.14.76,1.81,1.71,1.81,2,3.52-.38,5.24-1.05.67-1.9,2-3.43,1.71-.57-.67-1.62-.1-2.47-.48-2.86-1.62-2.95-4.09-.29-7.14,1.14-1.33,2.76-2.09,4.47-2.38,1.14-.1,1.52.19,1.33,1.24Z"/>
    <path class="cls-4" d="M537.15,214.75c-.29.67-1.9.48-2.19,1.14.38.38.86.19,1.24-.1,2.28-1.14,4-1.62,6.47-.67l1.33.57c.86.48,1.05.48,1.71.95l.95.67c1.24.86,2.38,4.76,2.19,7.81-.19,2.28-.57,3.81-1.71,6.09-.57.95-.95,2.09-2.19,2.48-.38.1-.48.38-.57.67-1.71.86-2.57,1.81-4.95,2.67-1.05.38-2,.95-3.05,1.33-1.43.48-2.57,1.33-4.28,2.19.48,2.19.48,4.28,1.43,6.09.57,1.05,1.24,1.24,1.81,2.28.86,1.43,1.71,1.71,3.43,1.14,5.04-1.81,6.66-1.52,11.42-4.47,1.52-.95,1.62-1.33,3.43-1.81,1.05-.38,1.62-.86,2.57-1.43.38-.19.67-.57,1.24-.38-.1,2.09-1.33,2.28-2.48,3.24-.57.38-1.05.57-1.62,1.24-1.05.95-5.04,3.24-5.42,3.43-2.29,1.05-1.33.48-3.43,1.9-.57.29-2.09,1.05-2.67,1.43-1.71,1.05-3.33,1.05-4.09,1.62-2.09,1.33-4.95,1.33-7.14,1.43-1.33,0-2.95-.48-4-1.71-1.9-2.19-3.33-4.19-3.81-7.14-.1-.38-.1-.67-.19-.95-.09-1.52-.38-2.19-.19-3.71l.57-5.04c.29-2.95,1.43-7.52,2.47-10.38,1.33-3.43,2.67-6.85,5.24-9.71,1.52-1.52,3.14-2.57,5.04-2.95.29,0,1.33-.29,1.43.1ZM528.87,248.45c.76,1.71,1.43,3.43,3.24,4.28.09-.19.19-.29.38-.38-.67-.95-1.14-2-1.9-2.86-.76-.95-.67-2.28-1.24-3.43-.76.86-.86,1.62-.48,2.38ZM536.87,219.23c-1.24,1.33-2.09,3.9-2.38,5.52-.86,3.33-.95,6.85-1.81,10.09-.1.67-.38,1.62-.29,2.38.67-.1,1.81-1.14,2.19-1.33,1.62-.95,2.76-2,4.19-2.76,1.71-1.05,1.81-2.47,2.57-4.66.19-.29.29-1.05.48-1.33.48-1.33.48-3.24.29-4.09-.19-1.43-.38-2.19-.38-3.24-.09-.76-.29-1.71-.86-2-1.9-.95-2.38-.38-4,1.43ZM534.39,252.54c-.19-.86-.67-1.24-1.24-1.33.1.67.38,1.14,1.24,1.33Z"/>
    <path class="cls-4" d="M585.79,216.94l.29.38c.19,1.9,1.05,3.62.76,5.81-.67,4.57-1.43,9.14-2.47,13.61-.57,2.28-.67,4.57-1.14,6.76-.29,1.71.1,3.33.19,4.95.09.95,2.67,2,3.52,1.43,3.71-2.28,6.57-3.9,10.28-6.19.29-.19.57-.29.86,0-.67,1.24-1.43,3.33-3.05,4-1.71.86-3.52,1.9-4.85,3.62-.95,1.24-1.71,1.62-3.14,2.28-1.24,1.05-1.71,1.24-3.33,1.71-.76.48-1.52,1.05-2.67,1.14-2.67.19-4.95-.86-5.9-3.24-1.14-2.48-1.24-5.24-.86-8,.29-3.14.76-6.19,1.33-9.33.76-4.85,1.52-9.23,3.33-13.99.57-1.33.48-2,.48-3.33s-.95-2.09-2.38-.86c-3.9,3.24-6.76,6.09-9.04,10.57-1.43,2.86-1.81,5.62-1.9,8.38-.1,1.14-.29,2.28-.57,3.43-.95,4.28-2,8.66-2.47,12.94-.19,1.05-.67,1.43-1.81,1.71-.57.19-.86.48-1.14.67-1.52.95-2.57.76-3.24-.76-.19-.48-.38-1.14-.95-1.43-.48.29-.29.76-.57,1.14-.76-.38-.86-1.14-1.05-1.9-.38-2.19-.67-4.38-.19-6.76l1.9-13.04,2.67-16.75c.29-1.33.38-1.33,1.52-1.14.48.1.95.19,1.43,0,.95-.38,1.71-.1,2.28.38.67.67,1.62,1.14,2.38,1.81.76.76,1.05,1.71.76,2.95-.48,1.9-.38,3.71-.29,5.62.76-.48,1.05-1.05,1.33-1.52,1.33-2.57,3.33-4.76,5.23-6.85,2.29-2.28,4.66-2.95,7.52-2.48,2.09.29,3.33,1.52,4.95,2.28Z"/>
    <path class="cls-4" d="M634.61,215.89c.29.19.48.19.76-.1.76-.57,1.43-.48,2,.19.19.1.48.19.67.38,2,1.43,2.95,3.52,2.57,6.38-.19,1.52-.19,3.05-1.43,4.47-.76,1.05-1.9,1.71-2.86,2.67-.1.1-.48.29-.67.19-.95-.38-1.43.48-2.29.95-.57-.95-.76-2-.57-3.05.38-1.81.76-3.62,1.05-5.43.48-2.95-1.05-4.76-2.95-4.76-.86-.1-1.52.19-2,.95-.67.76-1.33,1.43-1.9,2.19-.57.67-1.14,2.38-1.05,3.24-.1.48-.1.95-.38,1.43-1.05,2.09-1.24,4.28-1.62,6.38-.29,1.24-.29,2.38,0,3.52v.29c-.57,1.9,0,3.71-.29,5.62-.48,2.19-.76,4.47-.09,6.57.29.76.48,1.52.95,2.09.76.86,1.71,1.14,2.95.76,3.14-.76,5.71-.95,8.47-2.57,2-1.14,4.38-2.47,6.47-4.57.76-.76,1.81-1.24,2.76-2,.76-.57,1.81-.86,2.76-.67-.57,1.62-2,2.47-3.33,3.62l-1.52,1.43c-.67.67-1.62,1.43-3.9,3.24-1.05.86-1.9,1.24-3.52,2.09-.48.29-2.29,1.24-2.76,1.43-2.19.76-3.24.29-5.14,1.43-2.29,1.43-4.47,2.09-6.38.48-.67-.48-1.14-.57-1.9-.29-.67.29-1.14.29-1.71,0-3.14-1.9-4.57-4.85-4.38-8.66,0-1.81,0-3.52.29-5.33.86-4.95,1.52-9.9,3.05-14.75.76-2.19,1.43-4.28,2.47-6.28.86-1.52,1.81-2.86,3.9-2.95.67,0,1.43-.67,2.19-1.05,2.67-1.43,5.33-1.62,7.71-.29.48.29,1.14.48,1.62.76ZM622.43,227.03c.48-.57,1.52-3.9.95-4.57-.76.57-1.24,3.9-.95,4.57Z"/>
    <path class="cls-4" d="M660.78,214.09c0,.48-.67.76-.76,1.33.76.1,1.62.76,2-.76.09-.29.48-.19.67-.29,2.76-.29,4.76.95,6.76,2.38.1,0,.29.19.19.38.48,1.62,1.52,2.76,2.38,4.09,1.05,1.52.86,3.43,1.14,5.14,0,.95,0,1.9-.1,2.86-.29,2-.19,4-.19,6-.09,1.81-.09,3.62-1.43,5.33-.48.67-.76,1.62-.95,2.38-.19,2.19-1.24,4-2.57,5.81-1.14,1.62-2.19,3.05-3.43,4.66-.95,1.24-2.38,1.52-3.62,2-1.33-1.62.95-1.52,1.33-2.38-.57-.29-1.24.1-1.62.29-1.71.95-3.43,1.43-5.14,2.19-1.33.67-2.57.67-3.71-.1-1.9-1.14-3.52-2.57-5.04-4.09-1.62-1.9-2.57-4.38-2.95-7.14-.29-3.71.48-7.33,1.33-11.04.48-3.52,1.9-6.95,3.52-10.28,1.81-3.52,4-6.28,7.8-7.71.76-.29,1.52-.76,2.19-1.14.86-.38,1.52-.38,2.19.1ZM659.55,218.85c-.48,1.33-1.33,2.48-1.81,3.81-.57,1.33-1.24,2.57-1.33,4.09-.19,1.9-.19,3.9-.76,5.81-.48,1.43-.76,2.76-.76,4.09-.19,1.05-.29,2.19-.57,3.24-.76,3.52-.67,6.85.76,9.9.1.38.1.86.76.67,1.43-.48,1.52.57,1.71,1.52.95-.19,1.52-.67,1.81-1.14,2.19-2.09,3.33-4.57,4-7.14,1.05-3.9,1.81-7.81,2.57-11.71l1.05-8c.19-2-.29-3.81-1.71-5.04-.76-.67-1.52-1.05-2.57-.48-1.05.48-2.09.57-3.14.38ZM659.07,256.44c.38-.1.67-.38.57-.86,0-.48-.29-.29-.76-.19-.38.19-.67.19-1.05.76.38.19.86.29,1.24.29Z"/>
    <path class="cls-4" d="M718.08,214.56c.67,1.05.76,2.38.38,3.71-.19,1.62-.48,3.14-.29,4.76.19,1.24-.09,2.67-.29,4-1.24,6.28-2,12.56-2.76,18.75-.48,2.67-.95,5.33-1.81,8-.48.19-.48-.57-1.05-.48-.19.29-.19.57-.29.86-.48.67-.95,1.43-2.09,1.43-.76,0-1.43.76-2.38,0-.57-.67-1.24.38-1.62,1.14-1.81-.76-2.29-2.48-2.48-4.28-.19-2.19,0-4.57.38-6.85.95-5.81,1.62-11.61,2.76-17.32v-.76c-.1.1-.29.19-.29.29-2.28,5.14-5.04,10.09-8,14.94-.67.95-1.14,2.19-1.14,3.33,0,.76-.48,1.05-1.05.67-.48-.19-.76-.57-1.43-.48-.38,1.05,0,2.19-.57,3.24-2.57.29-4.28-.95-4.95-3.33-.76-2.76-1.33-5.62-2.09-8.38-.86-2.76-1.24-5.62-1.05-8.57,0-1.05.09-2.09-.48-3.33-.67,5.81-1.9,11.14-3.14,16.47-.57,2.76-1.14,5.52-1.62,8.19-.48,2.09-1.33,4.19-2.09,6.28-.48.19-.76.1-.95-.19q-1.43-2.38-.95-5.52c.57-4.66,1.62-9.33,2.76-14.09.57-2.48.86-4.95,1.43-7.42.95-3.81.95-7.52,1.71-11.23.19-.86.1-2,.76-2.38.86-.48,1.9-.57,2.95-.29.57.19,1.14.38,2.09-.19,1.14-.67,2.67-1.05,4-.67.38.1.76.19.57.57-.48.86-.09,1.14.38,1.62.76.86,1.05,2.09,1.14,3.33.09,2.38.86,4.47,1.52,6.76.48,2.47.95,4.85,1.81,7.23.19.86,0,1.81.1,2.86.76-.76.86-1.62,1.24-2.38l7.33-15.23c.86-1.71,1.9-3.52,3.24-5.04.09-.19.29-.38.67-.38,0,1.62.38,3.24,1.33,4.85.29-1.62,0-2.86,0-4.09.86-.29,1.71-.48,2.47-1.14,1.14-1.14,2.76-.67,3.81.76Z"/>
    <path class="cls-4" d="M731.97,214.75c0,.57.57.67,1.05.67,1.24.1,1.62.86,1.71,1.9.19,1.52.19,3.05.67,4.66,1.33-1.05,2.67-2,3.81-3.14,4.66-4.47,8.85-4.19,13.14-2.95.86.29,1.33.95,1.71,1.62,1.43,2.28,3.05,4.85,2.48,8.28-.38,2.19-.76,4.47-.48,6.76l-.19.86c-.86,2.47-.95,5.04-1.52,7.61-.29,1.52-.95,2.95-1.81,4.28,0,.19-.95,1.9-1.71,3.05-1.14,1.81-1.52,2-3.52,4.28-.48.48-1.52,1.14-2.19,1.52-.38-1.81,2.29-2.28,1.9-4-1.24,1.24-2,2.86-3.71,3.62-.09.1-.19.29-.38.48-.38.48.09,1.43-.86,1.62-1.05.29-2,.29-3.05.29-2.28-.1-3.71-1.24-4.85-2.86-.76-1.05-1.43-2.09-2.28-3.33-.86,2.09-1.05,4.09-1.71,6.09-.76,3.14-.86,6.28-1.52,9.42-.38,1.81-.67,3.52-1.62,5.23-.38.67-.29,1.43-.57,2.19-.19.57-.09,1.14-.76,1.71-1.05-1.24-3.14-1.52-3.33-4.09-.57,1.14-.86,1.81-1.14,2.57-1.05-.86-1.62-1.9-1.81-3.24-.29-2.47.38-4.95.48-7.42.19-4.66,1.24-9.23,2.28-13.9.86-3.33,1.24-6.66,2.09-9.99,1.24-4.85,1.52-9.71,2.47-14.56l.95-4.09c.29-1.43.48-2.86.57-4.28,0-1.14.67-1.81,1.81-1.81.76.1,1.71-.1,1.9.95ZM741.21,219.99c-2.57,1.24-4.28,3.62-5.9,5.81-.19.19-.29.48-.29.67-.19,3.43-.57,6.76-.95,10.19-.38,2.67-.48,5.43-1.24,8.19-.1.76-.1,1.33.29,1.9.95,1.62,2,3.24,3.33,4.47.57.57,1.24.86,2.09,1.05.38.09.67,0,.95-.38,2.47-3.24,4.19-6.66,4.95-10.47l.67-4.28c.86-3.71.48-7.33,1.05-11.04.29-1.81,0-3.62,0-5.43,0-1.14-.67-1.9-1.43-1.71-1.14.19-2.47.48-3.52,1.05Z"/>
    <path class="cls-4" d="M777.47,214.09c0,.48-.67.76-.76,1.33.76.1,1.62.76,2-.76.1-.29.48-.19.67-.29,2.76-.29,4.76.95,6.76,2.38.09,0,.29.19.19.38.48,1.62,1.52,2.76,2.38,4.09,1.05,1.52.86,3.43,1.14,5.14,0,.95,0,1.9-.09,2.86-.29,2-.19,4-.19,6-.1,1.81-.1,3.62-1.43,5.33-.48.67-.76,1.62-.95,2.38-.19,2.19-1.24,4-2.57,5.81-1.14,1.62-2.19,3.05-3.43,4.66-.95,1.24-2.38,1.52-3.62,2-1.33-1.62.95-1.52,1.33-2.38-.57-.29-1.24.1-1.62.29-1.71.95-3.43,1.43-5.14,2.19-1.33.67-2.57.67-3.71-.1-1.9-1.14-3.52-2.57-5.04-4.09-1.62-1.9-2.57-4.38-2.95-7.14-.29-3.71.48-7.33,1.33-11.04.48-3.52,1.9-6.95,3.52-10.28,1.81-3.52,4-6.28,7.81-7.71.76-.29,1.52-.76,2.19-1.14.86-.38,1.52-.38,2.19.1ZM776.23,218.85c-.48,1.33-1.33,2.48-1.81,3.81-.57,1.33-1.24,2.57-1.33,4.09-.19,1.9-.19,3.9-.76,5.81-.48,1.43-.76,2.76-.76,4.09-.19,1.05-.29,2.19-.57,3.24-.76,3.52-.67,6.85.76,9.9.09.38.09.86.76.67,1.43-.48,1.52.57,1.71,1.52.95-.19,1.52-.67,1.81-1.14,2.19-2.09,3.33-4.57,4-7.14,1.05-3.9,1.81-7.81,2.57-11.71l1.05-8c.19-2-.29-3.81-1.71-5.04-.76-.67-1.52-1.05-2.57-.48-1.05.48-2.09.57-3.14.38ZM775.76,256.44c.38-.1.67-.38.57-.86,0-.48-.29-.29-.76-.19-.38.19-.67.19-1.05.76.38.19.86.29,1.24.29Z"/>
    <path class="cls-4" d="M809.54,200.95c.29,1.9.19,4.19.29,6.28,2-.19,2.76,0,3.81-.29.67-.1,4.38-.57,2.19,0,0,.29,3.33-.38,4.09-.38,1.14,0,4.28.76,2.38,1.52-.67.29,1.14.57,1.62,1.05-1.62,1.43-4.57,1.43-6.66,1.81-.76.1-1.81-.1-3.14.1-.48.09-2.38.48-3.14.38-1.43-.19-1.52.1-1.71,1.52-.48,3.52-.38,6.85-.76,10.28-.29,2.95-.48,5.9-1.05,8.76-.67,3.52-.57,6.85-.86,10.28-.19,2-.19,4-.38,6,0,1.43.86,2.28,1.71,3.05.29.29.57.29.95.1l2.09-.95c2.86-1.33,5.43-3.24,6.66-3.24.76,0,.09,2.09-1.62,2.95-1.52.86-2.19,2-3.43,2.76-1.62.95-1.81,1.43-3.43,2-.38.1-.95.38-1.43.67-2.19,1.62-3.62,1.71-6.28,1.52-.57,0-.95-.48-1.71.1-.38.29-.57-.19-.76-.48-.19-.76-.38-1.52-.67-2.28-.1-.48-.1-.95-.86-.67-.38.19-.48,0-.57-.29-.95-1.71-1.52-3.52-1.62-5.71.09-2.76.48-5.52.95-8.28.86-4.66,1.33-9.42,2.29-14.09.95-3.9,1.71-7.71,2.57-11.61.1-.57.38-1.24.1-2-1.33.29-4.95.38-4.85-.19,1.05-.1,2.86-.67,4-.76-1.43-.48-3.43.1-4.66.19-2,0-2.48-.1-2.19-2.28,2-.19,5.43-.95,7.52-1.14.67,0,.57-.1.67-.76.29-1.05.48-2.09.57-3.14,0-1.43.57-2.86,1.14-4.38.76-.48,0,2,.48,3.05.86-1.52,1.05-2.95,1.05-4.38.1-1.24.57-2.09,1.81-2.76,2.09,1.24,2.57,3.52,2.86,5.71ZM803.36,250.54c-.1.38.38.29.48.57.19.67,2.19,1.33,1.24.1-.95-1.05-1.52-3.52-1.9-3.52-.19,0,.19,2.67.19,2.86Z"/>
    <path class="cls-4" d="M832.96,214.75c-.29.67-1.9.48-2.19,1.14.38.38.86.19,1.24-.1,2.28-1.14,4-1.62,6.47-.67l1.33.57c.86.48,1.05.48,1.71.95l.95.67c1.24.86,2.38,4.76,2.19,7.81-.19,2.28-.57,3.81-1.71,6.09-.57.95-.95,2.09-2.19,2.48-.38.1-.48.38-.57.67-1.71.86-2.57,1.81-4.95,2.67-1.05.38-2,.95-3.05,1.33-1.43.48-2.57,1.33-4.28,2.19.48,2.19.48,4.28,1.43,6.09.57,1.05,1.24,1.24,1.81,2.28.86,1.43,1.71,1.71,3.43,1.14,5.04-1.81,6.66-1.52,11.42-4.47,1.52-.95,1.62-1.33,3.43-1.81,1.05-.38,1.62-.86,2.57-1.43.38-.19.67-.57,1.24-.38-.1,2.09-1.33,2.28-2.47,3.24-.57.38-1.05.57-1.62,1.24-1.05.95-5.04,3.24-5.43,3.43-2.28,1.05-1.33.48-3.43,1.9-.57.29-2.09,1.05-2.67,1.43-1.71,1.05-3.33,1.05-4.09,1.62-2.09,1.33-4.95,1.33-7.14,1.43-1.33,0-2.95-.48-4-1.71-1.9-2.19-3.33-4.19-3.81-7.14-.1-.38-.1-.67-.19-.95-.09-1.52-.38-2.19-.19-3.71l.57-5.04c.29-2.95,1.43-7.52,2.47-10.38,1.33-3.43,2.67-6.85,5.24-9.71,1.52-1.52,3.14-2.57,5.04-2.95.29,0,1.33-.29,1.43.1ZM824.68,248.45c.76,1.71,1.43,3.43,3.24,4.28.09-.19.19-.29.38-.38-.67-.95-1.14-2-1.9-2.86-.76-.95-.67-2.28-1.24-3.43-.76.86-.86,1.62-.48,2.38ZM832.67,219.23c-1.24,1.33-2.09,3.9-2.38,5.52-.86,3.33-.95,6.85-1.81,10.09-.1.67-.38,1.62-.29,2.38.67-.1,1.81-1.14,2.19-1.33,1.62-.95,2.76-2,4.19-2.76,1.71-1.05,1.81-2.47,2.57-4.66.19-.29.29-1.05.48-1.33.48-1.33.48-3.24.29-4.09-.19-1.43-.38-2.19-.38-3.24-.09-.76-.29-1.71-.86-2-1.9-.95-2.38-.38-4,1.43ZM830.2,252.54c-.19-.86-.67-1.24-1.24-1.33.1.67.38,1.14,1.24,1.33Z"/>
    <path class="cls-4" d="M858.65,246.26c.09,1.33.48,2,1.81,2,.48,0,.67.38.48.95-.48,1.05-.67,2.19-1.05,3.33-.38,1.52-2.09,2.57-3.52,2.48-1.43-.19-2.57.67-3.62.29-.29-.1-.76.09-1.05-.19-.57-1.24-1.62-2.38-1.33-3.9.19-1.52,1.05-2.95,2.47-4,1.05-.76,2.29-1.24,3.24-2.09.67-.57,2.47.19,2.57,1.14Z"/>
    <path class="cls-4" d="M875.59,246.26c.09,1.33.48,2,1.81,2,.48,0,.67.38.48.95-.48,1.05-.67,2.19-1.05,3.33-.38,1.52-2.09,2.57-3.52,2.48-1.43-.19-2.57.67-3.62.29-.29-.1-.76.09-1.05-.19-.57-1.24-1.62-2.38-1.33-3.9.19-1.52,1.05-2.95,2.47-4,1.05-.76,2.29-1.24,3.24-2.09.67-.57,2.47.19,2.57,1.14Z"/>
    <path class="cls-4" d="M892.53,246.26c.09,1.33.48,2,1.81,2,.48,0,.67.38.48.95-.48,1.05-.67,2.19-1.05,3.33-.38,1.52-2.09,2.57-3.52,2.48-1.43-.19-2.57.67-3.62.29-.29-.1-.76.09-1.05-.19-.57-1.24-1.62-2.38-1.33-3.9.19-1.52,1.05-2.95,2.47-4,1.05-.76,2.29-1.24,3.24-2.09.67-.57,2.47.19,2.57,1.14Z"/>
  </g>
</svg>