<?xml version="1.0" encoding="UTF-8"?>
<svg id="Calque_1" data-name="Calque 1" xmlns="http://www.w3.org/2000/svg" viewBox="0 0 475.96 475.96">
  <defs>
    <style>
      .cls-1 {
        fill: #17331e;
      }

      .cls-2, .cls-3 {
        isolation: isolate;
      }

      .cls-3 {
        fill: #fff;
        stroke: #17331e;
        stroke-miterlimit: 10;
        stroke-width: 21px;
      }
    </style>
  </defs>
  <rect class="cls-3" x="10.5" y="10.5" width="454.96" height="454.96" rx="80.21" ry="80.21"/>
  <g class="cls-2">
    <path class="cls-1" d="M158.22,128.74c1.18,4.44,2.66,8.58,5.03,12.43,2.07,3.55,2.66,7.69,2.96,11.83,2.07,21.6,3.85,46.15,5.92,67.75.3,6.8.59,13.61,1.78,21.6,3.55-6.81,5.03-12.72,6.8-18.64,2.96-9.17,5.03-18.34,7.99-27.22,3.55-10.06,6.8-20.12,10.65-29.88,3.25-8.28,5.92-18.05,10.95-25.74,2.66-3.85,6.51-7.1,10.65-6.21l6.8,1.48c1.78.3,2.66.89,4.14,2.07,2.96,3.55,3.55,3.25,6.51-1.78,0-.3.3-.3.89-.89,1.48.59,2.37,2.66,4.73.89.89-.89,2.66-.3,3.85.3.89.3,1.48,1.18,2.37,1.48,9.76,3.25,9.17,11.54,7.99,20.12l-.89,3.25c-.89,15.38-5.92,30.77-8.58,45.86-2.07,12.13-3.85,24.56-4.44,36.68-.3,10.06-2.07,20.71-2.37,30.77-.89,13.31-4.14,26.63-5.62,39.94-.59,5.62-.3,10.95-1.48,16.57-1.48,6.21-4.44,8.58-10.95,7.1-1.48.89-1.18,2.37-1.48,3.55-1.78,2.37-3.55,2.96-6.21,2.37-6.21-.89-10.06-4.73-14.5-7.99-5.33-3.85-5.92-8.88-5.03-14.5,1.18-8.58,1.78-16.86,4.14-25.44,1.48-5.33,1.77-10.35,1.77-15.38,1.18-18.64,4.44-36.98,5.92-55.62,1.18-17.46,4.44-34.91,4.73-52.37l-.59-2.37c-2.96,3.55-4.44,7.1-5.62,10.36-3.25,7.4-7.4,14.79-10.06,22.19-5.33,15.09-11.24,29.88-13.61,45.26-.59,3.25-2.07,6.51-2.96,10.06-1.18,5.03-4.44,10.06-3.25,15.09.89,5.03-3.55,7.69-6.21,10.95-.59,1.18-2.07.59-2.96,0-1.48-.59-3.25-1.78-5.33-1.48-.89,2.07-1.18,3.85,1.78,3.85,2.96.3,3.25,4.44,4.44,6.21-1.48,1.77-2.66,1.48-4.44,1.77-5.33.59-10.95.3-12.43-2.07-2.07-2.96-2.66-2.66-5.62-4.44-4.44-2.96-6.8-7.99-8.28-13.31-4.14-18.05-7.99-36.39-10.35-55.03-1.18-10.06-2.07-20.41-3.55-30.47-.3-3.25-.59-6.51-1.48-10.06,0,5.92-3.85,11.54-3.55,17.46,0,7.1-2.07,14.2-2.96,21.6-1.48,11.83-3.55,24.26-4.73,36.09-.59,10.35-1.78,20.71-1.78,30.77,0,5.92-.3,11.83-1.78,17.75-2.37,9.76-3.85,19.82-5.33,29.59.3,1.48,0,2.96-1.18,4.44-2.96,3.25-5.03,3.85-9.17,1.48-1.18.59-1.18,2.37-2.96,2.66-.3-.59-1.18-.89-.89-1.78l1.78-16.57,5.92-34.32c2.07-10.36,2.96-20.71,3.55-31.06,1.18-21.3,4.44-42.9,8.28-64.2,2.66-15.09,5.03-33.14,7.69-48.52.59-2.07.59-4.44.89-6.51,0-2.37,1.48-3.55,3.85-4.44,3.85-1.18,6.8-.89,9.76.3,2.07-.89,2.37-2.96,3.85-4.14,4.73-4.14,5.62-4.73,10.65-2.37,3.25,1.18,6.51,2.66,7.4,6.8,0,.59.59,1.18,1.78.89,1.18-2.66.3-5.62,2.07-7.99,1.78-.3,2.07.3,2.37,1.18ZM232.77,187.31c-3.85,6.8-1.48,12.43-2.37,19.23,3.55-5.92,5.03-15.68,2.37-19.23h0Z"/>
    <path class="cls-1" d="M390.76,135.54c5.33,3.55,7.4,9.76,6.51,16.27-1.18,12.13-6.51,52.37-12.13,42.6-3.55-5.33-2.07,3.25-4.44,5.33-1.77,1.48-1.77,3.55-3.25,5.03-6.51-7.4-4.44-17.75-5.03-26.92,0-7.69.3-15.38.89-23.08.89-10.95-11.54-17.75-22.78-12.72,1.78.3,2.96.59,4.14.59.59.59.59,1.18,0,1.48-5.33,3.25-8.28,7.4-10.95,13.02-3.25,6.51-7.4,12.72-9.47,19.53-2.66,9.17-7.69,17.75-10.65,26.92-2.07,5.33-4.14,10.65-5.62,16.27-3.25,11.83-5.03,31.36-6.8,39.35-.59,1.77-1.48,3.55-1.48,5.33.59,4.73-.89,9.47-2.07,14.2-.59,3.55,2.66,6.8,2.37,10.06-.59,8.58-.3,16.86,2.96,24.55,2.37,5.62,6.21,8.58,13.02,7.69l12.13-.89c2.07,0,3.85-1.18,5.92-2.37,8.58-4.73,11.24-5.62,18.93-11.83.89-.59,4.44-2.07,8.88-5.62,4.14-3.55,7.99-5.92,12.13-9.76,2.37-2.07,6.21-3.85,7.99-4.14,1.18,2.37-4.44,6.81-2.37,8.58-.3.59-.59,1.18-.59,1.48-2.66,2.96-6.21,3.85-7.99,6.21-2.66,3.55-3.25,5.33-5.62,7.69-2.07,1.78-4.44,3.25-6.8,5.03-1.18.89-2.07,2.37-3.55,3.85-7.4,6.81-9.76,9.76-16.27,12.72-5.62,2.66-11.24,5.92-16.86,9.47-5.62,3.25-11.83,4.73-17.75,6.8-5.62,1.78-7.1-.89-12.13,1.18-1.18.3-2.07-.59-2.96-.89-1.48-.59-2.66-1.18-4.14,0-.3.59-1.18.89-1.48.89-5.33-2.07-9.17-2.96-14.2-5.03-3.85-1.78-9.17-11.24-10.06-15.68-2.66-9.17-4.73-16.57-4.14-26.63.89-7.69,2.37-11.83.89-19.53-.59-2.96,1.18-6.51.3-9.76-1.18-2.37-.89-5.33.59-7.99,1.48-3.25,1.77-6.51,2.37-9.76,2.66-13.61,4.44-27.51,8.88-40.83,2.37-6.8,2.37-13.31,5.03-20.12,6.51-18.93,16.86-36.09,29.88-52.07.3-.3.59-.59,1.18-.89.3.3.89.3,1.18.59,1.77,2.07,3.25,1.77,4.73-.59,3.25-4.44,7.4-7.69,12.13-10.65.89-.59,1.77-1.77,2.96-1.18,5.92,2.07,12.72-.3,18.64-1.18,14.5-2.66,26.33.59,36.98,7.4ZM286.32,211.57c-.89,1.18-2.07,10.36-2.37,11.24-1.48,2.37,3.25,7.99,2.96,2.37,0-4.44,9.76-32.84,5.92-32.84-.3,0-6.21,18.64-6.51,19.23Z"/>
  </g>
</svg>