<?xml version="1.0" encoding="UTF-8"?>
<svg id="Calque_1" data-name="Calque 1" xmlns="http://www.w3.org/2000/svg" xmlns:xlink="http://www.w3.org/1999/xlink" viewBox="0 0 62.35 62.36">
  <defs>
    <style>
      .cls-1 {
        fill: #547854;
      }

      .cls-2 {
        fill: #15331c;
        filter: url(#drop-shadow-1);
      }

      .cls-3 {
        fill: #ea997d;
      }
    </style>
    <filter id="drop-shadow-1" x="8.95" y="11.53" width="44.46" height="39.31" filterUnits="userSpaceOnUse">
      <feOffset dx="0" dy="0"/>
      <feGaussianBlur result="blur" stdDeviation="5.67"/>
      <feFlood flood-color="#1d1d1b" flood-opacity=".75"/>
      <feComposite in2="blur" operator="in"/>
      <feComposite in="SourceGraphic"/>
    </filter>
  </defs>
  <path class="cls-3" d="M24.4,47.58c0,6.74-5.46,12.2-12.2,12.2-2.25,0-4.35-.61-6.16-1.67C2.45,56.01.04,52.13,0,47.68c0-.03,0-.07,0-.1,0-6.74,5.46-12.2,12.2-12.2,2.23,0,4.31.6,6.11,1.64.52.3,1.02.64,1.48,1.01-1.31,1.41-2.74,2.68-4.27,3.8,0,0,0,0,0,0-1.36,1-2.8,1.88-4.29,2.64-.31.1-.6.24-.87.42-.86.59-1.42,1.57-1.42,2.69,0,1.8,1.46,3.25,3.25,3.25.64,0,1.24-.18,1.74-.5,0,0,0,0,0,0,.05-.03.1-.07.15-.1,0,0,0,0,0,0,0,0,0,0,0,0,1.52-1.01,3.13-1.9,4.81-2.64,1.71-.75,3.5-1.34,5.35-1.77.08.58.13,1.16.13,1.77Z"/>
  <path class="cls-2" d="M53.41,47.58c0,1.8-1.46,3.25-3.25,3.25-.64,0-1.24-.18-1.74-.5-.05-.03-.11-.07-.15-.11-1.52-1.02-3.13-1.91-4.83-2.65-1.71-.75-3.5-1.34-5.35-1.77-2.22-.51-4.53-.78-6.9-.78s-4.69.27-6.91.78c-1.85.43-3.64,1.02-5.35,1.77-1.69.74-3.3,1.62-4.81,2.64,0,0,0,0,0,0,0,0,0,0,0,0-.05.03-.1.07-.15.1,0,0,0,0,0,0-.5.32-1.1.5-1.74.5-1.8,0-3.25-1.46-3.25-3.25,0-1.12.56-2.1,1.42-2.69.29-.13.58-.28.87-.42,1.49-.76,2.93-1.64,4.29-2.64,0,0,0,0,0,0,1.52-1.12,2.96-2.39,4.27-3.8,1.55-1.66,2.94-3.53,4.12-5.58,1.18-2.04,2.1-4.17,2.76-6.33.57-1.83.95-3.7,1.16-5.57,0,0,0,0,0,0,.19-1.73.24-3.48.14-5.2h0c-.01-.24-.03-.48-.05-.72h0c.08-1.73,1.5-3.11,3.25-3.11h0c1.75,0,3.17,1.38,3.25,3.1h0c-.02.25-.04.49-.05.73-.1,1.72-.06,3.46.14,5.19.21,1.87.59,3.74,1.16,5.58.67,2.17,1.58,4.29,2.76,6.33,1.18,2.05,2.57,3.92,4.12,5.58,1.31,1.41,2.74,2.68,4.27,3.8,1.36,1,2.8,1.88,4.29,2.64.29.15.58.29.87.42.85.59,1.41,1.57,1.41,2.68Z"/>
  <path class="cls-3" d="M62.35,47.58s0,.07,0,.1c-.03,4.45-2.45,8.33-6.04,10.43-1.81,1.06-3.91,1.67-6.16,1.67-6.74,0-12.2-5.46-12.2-12.2,0-.6.04-1.19.13-1.77,1.86.43,3.64,1.02,5.35,1.77,1.69.74,3.31,1.63,4.83,2.65.05.04.1.07.15.11.5.32,1.1.5,1.74.5,1.8,0,3.25-1.46,3.25-3.25,0-1.11-.56-2.1-1.41-2.68-.27-.18-.56-.33-.87-.42-1.49-.76-2.93-1.64-4.29-2.64-1.52-1.12-2.96-2.39-4.27-3.8.47-.37.96-.71,1.48-1.01,1.8-1.04,3.88-1.64,6.11-1.64,6.74,0,12.2,5.46,12.2,12.2Z"/>
  <path class="cls-3" d="M43.37,14.78c0,4.51-2.45,8.45-6.09,10.56-.51.3-1.05.56-1.61.78-.57-1.84-.95-3.71-1.16-5.58-.19-1.73-.24-3.47-.14-5.19.03-.19.05-.38.05-.58,0-.05,0-.1,0-.15h0c-.08-1.73-1.5-3.11-3.25-3.11h0c-1.74,0-3.17,1.38-3.25,3.1h0c0,.06,0,.1,0,.15,0,.19.02.38.05.57h0c.1,1.73.06,3.47-.14,5.2,0,0,0,0,0,0-.21,1.87-.59,3.73-1.16,5.57-.56-.22-1.1-.48-1.61-.78-3.64-2.11-6.09-6.05-6.09-10.56s2.49-8.52,6.19-10.62c1.78-1.01,3.83-1.58,6.01-1.58h0c2.19,0,4.24.58,6.01,1.58h0c3.69,2.1,6.18,6.07,6.18,10.62Z"/>
  <circle class="cls-1" cx="31.18" cy="36.65" r="2.21"/>
</svg>