<?xml version="1.0" encoding="UTF-8"?>
<svg id="Calque_1" data-name="Calque 1" xmlns="http://www.w3.org/2000/svg" xmlns:xlink="http://www.w3.org/1999/xlink" viewBox="0 0 424.04 388.93">
  <defs>
    <style>
      .cls-1 {
        fill: #98bf98;
        stroke: #3f6340;
        stroke-miterlimit: 10;
        stroke-width: 6px;
      }

      .cls-1, .cls-2, .cls-3, .cls-4, .cls-5 {
        isolation: isolate;
      }

      .cls-2 {
        fill: url(#Dégradé_sans_nom_30);
      }

      .cls-3 {
        fill: url(#Dégradé_sans_nom_30-2);
      }

      .cls-4 {
        fill: url(#Dégradé_sans_nom_24);
      }

      .cls-5 {
        fill: url(#Dégradé_sans_nom_30-3);
      }
    </style>
    <radialGradient id="Dégradé_sans_nom_30" data-name="Dégradé sans nom 30" cx="212.01" cy="82.96" fx="212.01" fy="82.96" r="82.96" gradientUnits="userSpaceOnUse">
      <stop offset="0" stop-color="#567955"/>
      <stop offset="1" stop-color="#98bf98"/>
    </radialGradient>
    <radialGradient id="Dégradé_sans_nom_30-2" data-name="Dégradé sans nom 30" cx="341.07" cy="305.96" fx="341.07" fy="305.96" r="82.96" xlink:href="#Dégradé_sans_nom_30"/>
    <radialGradient id="Dégradé_sans_nom_30-3" data-name="Dégradé sans nom 30" cx="82.96" cy="305.96" fx="82.96" fy="305.96" r="82.96" xlink:href="#Dégradé_sans_nom_30"/>
    <radialGradient id="Dégradé_sans_nom_24" data-name="Dégradé sans nom 24" cx="212.02" cy="231.6" fx="212.02" fy="231.6" r="15.06" gradientUnits="userSpaceOnUse">
      <stop offset="0" stop-color="#17331e"/>
      <stop offset="1" stop-color="#567955"/>
    </radialGradient>
  </defs>
  <circle class="cls-2" cx="212.01" cy="82.96" r="82.96"/>
  <circle class="cls-3" cx="341.07" cy="305.96" r="82.96"/>
  <circle class="cls-5" cx="82.96" cy="305.96" r="82.96"/>
  <path class="cls-1" d="M363.2,305.96c0,12.21-9.91,22.13-22.13,22.13-4.34,0-8.4-1.25-11.82-3.42-.36-.22-.72-.47-1.05-.72-10.33-6.93-21.31-12.97-32.82-17.99-11.63-5.07-23.79-9.11-36.41-12.01-15.09-3.47-30.8-5.31-46.95-5.31s-31.87,1.83-46.96,5.31c-12.6,2.9-24.78,6.93-36.41,12.01-11.49,5.01-22.43,11.03-32.74,17.92-.03.03-.04.04-.07.05,0,.01-.01.01-.01.01-.33.22-.66.44-.99.66-.03.03-.04.04-.07.05-3.42,2.17-7.47,3.42-11.82,3.42-12.21,0-22.11-9.91-22.11-22.13,0-7.58,3.81-14.28,9.64-18.28,1.98-.91,3.94-1.87,5.89-2.86,10.16-5.14,19.92-11.12,29.18-17.92.01-.01.01-.03.01-.03,10.37-7.6,20.1-16.23,29.03-25.85,10.54-11.32,19.97-23.99,28.02-37.94,8.03-13.91,14.27-28.34,18.8-43.07,3.85-12.47,6.46-25.16,7.9-37.87,0-.01.01-.03.01-.03,1.31-11.8,1.61-23.64.92-35.36v-.03c-.09-1.61-.2-3.24-.33-4.85v-.05c.55-11.73,10.22-21.09,22.09-21.09h.01c11.88.01,21.54,9.35,22.09,21.09v.05c-.13,1.64-.25,3.26-.33,4.9-.69,11.72-.39,23.52.92,35.3,1.43,12.72,4.05,25.42,7.91,37.92,4.53,14.72,10.77,29.16,18.8,43.07,8.05,13.96,17.48,26.63,28.02,37.94,8.94,9.61,18.67,18.25,29.03,25.86,9.26,6.8,19.03,12.8,29.19,17.94,1.96,1,3.94,1.96,5.93,2.89,5.8,3.99,9.61,10.68,9.61,18.25Z"/>
  <circle class="cls-4" cx="212.02" cy="231.6" r="15.06"/>
</svg>