<?xml version="1.0" encoding="UTF-8"?>
<svg id="Calque_1" data-name="Calque 1" xmlns="http://www.w3.org/2000/svg" viewBox="0 0 1923 1924.76">
  <defs>
    <style>
      .cls-1, .cls-2 {
        isolation: isolate;
      }

      .cls-2, .cls-3 {
        fill: none;
        stroke: #17331e;
        stroke-miterlimit: 10;
        stroke-width: 3px;
      }
    </style>
  </defs>
  <g class="cls-1">
    <path class="cls-3" d="M1720.77,1436.79c-1.2.34-2.35.67-3.56,1.07-.84-1.06-1.85-1.97-2.97-2.64,1.44-.56,2.77-.98,4.06-1.37.97.87,1.8,1.87,2.47,2.94ZM1720.77,1436.79c-1.2.34-2.35.67-3.56,1.07-.84-1.06-1.85-1.97-2.97-2.64,1.44-.56,2.77-.98,4.06-1.37.97.87,1.8,1.87,2.47,2.94ZM1904.69,1570.27c-14.6,33.63-41.12,65.22-73.19,87.18-32.07,21.97-69.71,34.31-106.61,29.46-5.49-.73-10.95-1.81-16.37-3.32-38.23-10.6-83-43.32-90.93-90.12-9.1-53.59,33.98-104.21,35.82-106.35.68-.8,2.38-2.72,4.36-4.92,1.06-1.17,2.14-2.33,3.18-3.47,2.54-2.77,5.08-5.42,7.56-7.95,1.03-.63,2.02-1.3,3.02-1.98.64-.44,1.65-1.08,2.78-1.77,2.01-1.23,5.75-3.52,6.36-4.46.48-.76.61-2.5.66-4.19,1.23-1.1,2.44-2.18,3.61-3.21-.04.68-.04,1.43-.07,2.15-.01.93-.03,1.84-.09,2.7-4.56,4.05-9.24,8.57-14.07,13.51-3.38,3.45-6.83,7.13-10.35,11.01-1.97,2.18-3.64,4.08-4.31,4.86-1.8,2.07-43.82,51.49-35.02,103.46,7.69,45.3,51.22,77.03,88.41,87.32,5.29,1.45,10.61,2.52,15.94,3.24,72.16,9.51,147.4-48.51,176.07-114.54,4.99-11.53,12.36-31.37,15.29-53.59,3.22-24.55,1.04-52.01-15.76-74.47-23.51-31.44-68.06-41.77-86.12-44.75-1.3-.2-2.54-.39-3.71-.54-8.71-1.14-13.76-.68-16.93-.21-8.41,1.28-14.4,4.28-20.4,8.47-3.02,2.13-6.06,4.56-9.41,7.25-2.24,1.8-4.58,3.69-7.14,5.63-.27.14-.56.29-.81.43-2.14,1.08-4.45,2.11-6.66,3.1-7.1,3.18-14.44,6.43-18.14,12.44h.43c-2.05.98-3.84,1.73-5.42,2.31l.58-1.4c.5-1.2,1.1-2.3,1.78-3.32,2.94-1.31,6.52-3.21,11.18-6.05,5.93-3.64,10.81-7.15,15.11-10.44,2.47-1.9,4.72-3.72,6.89-5.45,3.24-2.6,6.25-5.02,9.31-7.15,2.68-1.88,5.36-3.57,8.28-4.98,4.08-1.98,8.54-3.47,13.92-4.31,3.79-.58,10.21-1.14,21.73.77,18.48,3.05,64.07,13.64,88.35,46.12,33.11,44.28,11.64,106.75.88,131.56h.01ZM1717.21,1437.87c-.84-1.06-1.85-1.97-2.97-2.64,1.44-.56,2.77-.98,4.06-1.37.97.87,1.8,1.87,2.47,2.94-1.2.34-2.35.67-3.56,1.07ZM1720.77,1436.79c-1.2.34-2.35.67-3.56,1.07-.84-1.06-1.85-1.97-2.97-2.64,1.44-.56,2.77-.98,4.06-1.37.97.87,1.8,1.87,2.47,2.94Z"/>
    <path class="cls-3" d="M1794.54,1436.47l-2.18,2.65c-14.39,17.52-38.23,27.26-60.74,24.83-1.16-.13-2.32-.29-3.49-.44-5.18-.68-10.07-1.33-14.5.39-7.53,2.9-10.77,11.5-12.03,16.39-.76,2.95-1.3,6.06-1.8,9.07-.73,4.41-1.5,8.99-3.07,13.34-3.05,8.47-9.37,16.48-18.27,23.12-7.89,5.86-16.8,10.14-25.42,14.26l-2.94,1.43.44-3.24c2.27-16.39,4.61-33.34,11.76-48.78,3.29-7.1,7.44-13.35,12.25-18.5-.4.24-.76.49-1.04.68-.91.64-1.87,1.26-2.81,1.84-3.11,1.98-6.37,3.72-9.75,5.19-11.18,4.94-23.6,7.19-36.08,6.46-10.01-.57-19.79-3.17-28.29-7.47l-2.38-1.2,2.04-1.73c16.9-14.14,37.1-24.49,58.42-29.95l1.01-.26c6.87-1.75,14-3.57,17.47-9.04,2.08-3.28,2.48-7.56,2.85-11.33l4.51-45.84,1.64.07c11.07.44,21.26,8.47,24.3,19.1.41,1.47.76,3.07,1.07,4.59.96,4.51,1.85,8.77,4.79,10.81,19.65-22.39,50.09-33.32,74.62-42.14l2.85-1.03-.51,2.98c-1.43,8.33-4.72,16.32-9.4,23.38-1.8,2.7-3.78,5.25-5.97,7.65-4.72,5.19-10.32,9.6-16.55,12.88-.27.14-.56.29-.81.43-2.14,1.08-4.45,2.11-6.66,3.1-7.1,3.18-14.44,6.43-18.14,12.44h.43l62.44,3.85h-.04ZM1684.8,1460.01c-.07.9-.16,1.74-.34,2.51,4.55-3.05,9.45-5.28,14.56-6.58,1.58-.4,3.17-.7,4.71-1,2.64-.53,5.12-1,7.5-1.87,1.94-.73,6.62-2.87,7.91-7.2.83-2.8-.11-5.75-1.91-8-.84-1.06-1.85-1.97-2.97-2.64-.4-.24-.83-.46-1.24-.64-1.1-.46-2.25-.77-3.47-.93-3.45-.46-7.31.31-11.05,2.24-6.36,3.3-11.31,9.63-13.22,16.96-.17.63-.26,1.44-.3,2.33-.04.68-.04,1.43-.07,2.15-.01.93-.03,1.84-.09,2.7l-.03-.03ZM1787.32,1439.55l-61.01-3.74.37-.9.58-1.4c.5-1.2,1.1-2.3,1.78-3.32,4.28-6.53,11.92-9.93,19.35-13.24,2.17-.96,4.42-1.97,6.49-3.01.16-.07.3-.16.46-.24,6.1-3.15,11.58-7.47,16.2-12.6,6.6-7.35,11.38-16.35,13.6-25.95-25.07,9.03-52.83,19.57-71.11,41.12l-.84,1.01-1.21-.53c-5.49-2.37-6.79-8.5-7.93-13.92-.33-1.54-.64-3-1.03-4.35-2.48-8.67-10.48-15.35-19.38-16.42l-4.16,42.46c-.4,4.17-.87,8.87-3.39,12.87-4.21,6.65-12.38,8.73-19.56,10.57l-.98.24c-19.95,5.11-38.88,14.61-54.93,27.52,7.49,3.38,15.88,5.42,24.45,5.93,15.4.88,30.67-2.95,43.43-10.91,1.03-.63,2.02-1.3,3.02-1.98.64-.44,1.65-1.08,2.78-1.77,2.01-1.23,5.75-3.52,6.36-4.46.48-.76.61-2.5.66-4.19.03-.39.03-.76.04-1.13.03-1.85.07-3.77.47-5.29,2.18-8.27,7.79-15.43,15.01-19.19,4.38-2.27,8.98-3.15,13.12-2.6,1.54.2,3.01.58,4.38,1.18,1.45.61,2.78,1.48,3.92,2.52.97.87,1.8,1.87,2.47,2.94,1.98,3.04,2.71,6.75,1.71,10.08-1.23,4.11-4.89,7.57-10.05,9.5-2.64.97-5.39,1.51-8.04,2.01-1.5.3-3.04.6-4.51.97-14.17,3.58-26.71,15.11-34.35,31.62-6.47,13.95-8.93,29.43-11.04,44.53,7.53-3.64,15.17-7.49,21.87-12.52,8.36-6.22,14.26-13.67,17.08-21.48,1.45-4.05,2.17-8.26,2.89-12.72.53-3.08,1.06-6.26,1.85-9.37,1.44-5.53,5.19-15.35,14.19-18.8,5.26-2.03,10.82-1.28,16.21-.58,1.16.16,2.28.3,3.41.43,20.21,2.17,41.52-5.98,55.34-20.93h.01Z"/>
    <g>
      <path class="cls-3" d="M1880.75,1489.48c-2.91-23.75-20.05-44.92-42.68-52.69l1.14-3.32c23.86,8.2,41.95,30.54,45.02,55.6l-3.49.43h.01Z"/>
      <path class="cls-3" d="M1881.47,1521.22l-3.31-1.2c2.92-8.04,4.11-16.8,3.41-25.33l3.51-.29c.73,9.03-.53,18.3-3.62,26.82h.01Z"/>
    </g>
  </g>
  <path class="cls-2" d="M972.93,163.77c.71-3.05,2.18-6.49,3.85-9.94l30.67-64.07,3.04,1.45-30.67,64.07c-1.07,2.21-3.82,7.99-3.98,11.64-.04,1.01.1,1.85.56,2.42.44.6,1.28.81,2.22.84.88.06,1.88-.07,2.72-.26,3.32-.68,6.73-3.89,9.72-6.72,1.51-1.45,2.97-2.82,4.39-3.89,5.89-4.41,11.68-9.1,17.25-13.95,22.2-19.26,41.51-41.49,57.36-66.01l2.82,1.83c-16.04,24.81-35.55,47.24-57.98,66.74-5.62,4.88-11.48,9.61-17.44,14.08-1.27.96-2.64,2.25-4.11,3.62-3.32,3.17-7.09,6.73-11.34,7.59-.29.06-.57.1-.84.16-1.67.26-3.12.26-4.32-.04-1.41-1.75-2.85-3.45-4.33-5.11-.14-1.34.03-2.85.4-4.46h-.01Z"/>
  <path class="cls-2" d="M984.44,181.96c1.11,0,2.22-.03,3.34-.09,15.49-.84,30.24-7.53,44.59-13.98,14.84-6.69,30.2-13.61,46.63-14.38l.16,3.35c-15.77.74-30.84,7.53-45.39,14.09-13.92,6.29-28.26,12.75-43.48,14.09-1.35.13-2.72.23-4.09.24-.6-.74-1.17-1.48-1.75-2.21v-1.11h0Z"/>
  <path class="cls-2" d="M969.58,102.75l2.95,1.63c-8.38,15.13-14.12,31.45-17.05,48.51l-3.32-.57c2.99-17.43,8.87-34.11,17.42-49.57Z"/>
  <path class="cls-2" d="M996.29,198.82c1.16-.3,2.32-.57,3.48-.86,16.57-3.95,33.57-5.92,50.62-5.93v3.37c-16.43,0-32.81,1.9-48.81,5.61-1.14.27-2.28.53-3.42.83-.58-1.01-1.21-2.01-1.85-3h-.01Z"/>
  <path class="cls-2" d="M615.48,411.27c3.98-8.8,10.82-15.78,16.88-21.91,37.74-38.28,77.57-75.67,116.08-111.83l105.39-98.91c11.84-11.1,24.07-22.58,39.35-29.33,11.25-4.98,23.63-6.99,35.8-6.02,7.1.57,14.12,2.14,20.79,4.72,1,.39,1.98.8,2.92,1.21,1.07.48,2.14,1,3.14,1.54,6.84,3.54,12.28,8,17.08,13.02,1,1.01,1.97,2.07,2.91,3.15.94,1.06,1.87,2.15,2.78,3.27.88,1.06,1.74,2.11,2.57,3.2,1.43,1.78,2.82,3.61,4.23,5.42.78,1.01,1.55,2.03,2.35,3.05.81,1.04,1.64,2.11,2.5,3.17.36.47.71.94,1.1,1.41,3.17,3.92,5.97,7.72,8.38,11.53.61,1.01,1.23,2.03,1.8,3.04,6.1,10.74,8.68,21.77,6.02,35.83-4.09,21.5-18.38,37.59-29.64,47.3-14.63,12.6-32.07,21.7-47.45,29.71-85.75,44.69-173.93,87.48-262.11,127.18-7.84,3.54-16.75,7.55-26.22,8.27-8.34.64-19.44-1.75-25.51-10.34-6.13-8.66-4.62-19.97-1.15-27.67h.01ZM619.41,437c4.16,5.89,11.18,8.4,17.61,8.92,1.7.13,3.35.13,4.89,0,8.88-.66,17.5-4.55,25.1-7.97,88.11-39.68,176.23-82.45,261.92-127.11,15.21-7.93,32.48-16.92,46.81-29.27,10.85-9.36,24.61-24.83,28.52-45.36,2.57-13.42-.07-23.99-6.13-34.38-.58-1.01-1.21-2.01-1.85-3-2.18-3.38-4.71-6.78-7.53-10.27-.87-1.1-1.74-2.18-2.58-3.27-.6-.74-1.17-1.48-1.75-2.21-.57-.76-1.11-1.47-1.68-2.21-1.98-2.6-3.92-5.09-5.89-7.52-1.41-1.75-2.85-3.45-4.33-5.11-6.37-7.07-13.55-13.04-23.96-17.09-6.39-2.48-13.08-3.98-19.85-4.52-11.61-.93-23.43.98-34.16,5.75-14.77,6.53-26.79,17.8-38.41,28.7l-105.39,98.91c-38.5,36.13-78.31,73.5-115.98,111.73-5.86,5.95-12.49,12.68-16.21,20.95-3.08,6.83-4.46,16.82.86,24.33h.01Z"/>
  <polygon class="cls-2" points="897.1 255.35 899.65 253.15 914.03 270 911.46 272.19 897.1 255.35"/>
  <polygon class="cls-2" points="885.85 199.01 888.43 196.81 902.79 213.65 900.24 215.85 885.85 199.01"/>
  <polygon class="cls-2" points="847.29 281.45 849.85 279.26 866.49 298.77 863.92 300.97 847.29 281.45"/>
  <polygon class="cls-2" points="757.55 322.22 760.11 320.04 774.47 336.88 771.92 339.08 757.55 322.22"/>
  <polygon class="cls-2" points="777.15 273.19 779.72 271 794.09 287.87 791.53 290.04 777.15 273.19"/>
  <polygon class="cls-2" points="687.34 362.51 689.9 360.32 701.99 374.51 699.43 376.71 687.34 362.51"/>
  <polygon class="cls-2" points="649.92 399.34 652.49 397.18 661.48 407.73 658.92 409.91 649.92 399.34"/>
  <path class="cls-2" d="M100.99,960.22c-.83,1.04-1.57,2.17-2.25,3.37-1.15.84-2.52,2.01-3.61,3.98-.54,1-.96,2.07-1.21,3.21-.03-.03-.04-.04-.06-.09,1.3-4.42,3.37-8.53,6.05-11.9.51.5.88.97,1.08,1.4v.03ZM250.2,1095.32c2.18,22.52-2.28,42.91-13.29,60.59-1.7,2.74-3.56,5.38-5.53,7.86-.11.13-.26.23-.41.27-.27.09-.57.04-.8-.14-.37-.3-.43-.84-.13-1.21,1.15-1.45,1.65-4.55,1.83-7.97.19-3.42.03-7.2-.07-10.01-.06-1.38-.1-2.58-.1-3.49-.06-19.94-4.72-38.78-13.45-54.5-11.61-20.87-31.77-33.76-51.28-46.23-3.54-2.25-7.19-4.59-10.71-6.92-2.62-1.74-5.26-3.54-7.81-5.29-10.1-6.9-20.52-14.04-32.23-18.39-10.31-3.82-17.32-8.96-20.95-15.29-.39-.67-.73-1.36-1.03-2.04-.8-1.78-1.34-3.65-1.63-5.61-.7-4.68-.41-9.57.7-14.21.16-.68.34-1.36.54-2.01,1.3-4.42,3.37-8.53,6.05-11.9.36-.46.74-.9,1.13-1.31.3-.34.61-.67.93-1,3.79-3.79,8.44-6.6,13.53-8.37.3-.11.61-.21.91-.31.26-.09.5-.16.76-.23,8.04-2.4,17.1-2.24,25.69.74,18.89,6.55,33.38,21.7,46.16,35.06,17.71,18.51,30.69,35.16,40.84,52.38,11.42,19.33,18.45,39.91,20.36,59.54h-.01ZM228.35,1036.65c-10.08-17.09-22.99-33.62-40.6-52.05-12.65-13.22-26.96-28.2-45.47-34.62-8.13-2.82-16.67-3.01-24.27-.83-.57.16-1.11.33-1.67.51-4.98,1.68-9.48,4.39-13.18,8.07-.36.34-.68.71-1.01,1.08-.41.44-.8.91-1.18,1.41-.83,1.04-1.57,2.17-2.25,3.37-1.74,3-3.04,6.38-3.84,9.9-.98,4.32-1.23,8.86-.58,13.19.34,2.24,1.03,4.36,2.08,6.38.33.66.73,1.3,1.14,1.93,3.62,5.43,10.05,9.87,19.26,13.29,11.91,4.42,22.43,11.63,32.6,18.59,2.54,1.74,5.18,3.55,7.79,5.28,3.51,2.33,7.16,4.66,10.69,6.92,19.68,12.58,40.04,25.59,51.85,46.83,8.87,15.96,13.59,35.1,13.66,55.34,0,.88.06,2.05.1,3.42.16,4.08.37,9.51-.26,13.75.77-1.1,1.51-2.24,2.22-3.38,20.16-32.41,17.52-76.66-7.1-118.35v-.04ZM100.99,960.22c-.83,1.04-1.57,2.17-2.25,3.37-1.15.84-2.52,2.01-3.61,3.98-.54,1-.96,2.07-1.21,3.21-.03-.03-.04-.04-.06-.09,1.3-4.42,3.37-8.53,6.05-11.9.51.5.88.97,1.08,1.4v.03Z"/>
  <path class="cls-2" d="M102.16,958.81c-.41.44-.8.91-1.18,1.41-.21-.43-.57-.9-1.08-1.4-1.1-1.08-2.85-2.38-5.09-4.05l-.36-.26c-2.18-1.63-3.62-2.7-6.3-4.05-6.67-3.37-14.49-6.92-22.42-6.4-6.4.41-15.83,5.83-16.01,13.41-.11,4.81,3.59,8.62,6.17,10.66-.86-2.71-1.48-6.99.84-11.34,2.72-5.09,8.38-8.24,13.46-7.49,4.55.67,8.26,3.71,11.28,6.6,3.08,2.92,5.65,6.25,8.13,9.47,1.38,1.77,2.78,3.61,4.26,5.35.01.03.03.06.06.09.26-1.14.67-2.21,1.21-3.21,1.08-1.97,2.45-3.14,3.61-3.98-1.74,3-3.04,6.38-3.84,9.9-.04.03-.09.04-.14.06h-.01c-.31.11-.67.01-.9-.23-.19-.2-.36-.4-.53-.58-1.8-2.04-3.46-4.21-5.09-6.3-2.44-3.17-4.98-6.45-7.96-9.29-1.41-1.34-2.98-2.74-4.71-3.87-1.73-1.11-3.61-1.98-5.63-2.28-4.38-.64-9.28,2.13-11.69,6.59-3.32,6.19.19,12.24.34,12.5.2.34.14.77-.13,1.04-.29.29-.7.34-1.04.14-.39-.23-9.61-5.63-9.41-13.84.2-8.53,10.58-14.63,17.62-15.09,8.37-.54,16.41,3.12,23.3,6.6,2.81,1.41,4.31,2.52,6.56,4.19l.34.26c2.27,1.68,4.01,2.97,5.2,4.12.47.44.86.88,1.14,1.31v-.04Z"/>
  <path class="cls-2" d="M123.13,968.45c-.04,8-3.05,15.45-8.28,20.43-2.54,2.41-5.55,4.17-8.73,5.18-2.81.9-5.73,1.21-8.57.91-.77-.09-1.53-.21-2.27-.39-.39-.67-.73-1.36-1.03-2.04v-.03c.7.23,1.43.4,2.15.53,5.89,1.08,12.59-.97,17.27-5.42,4.89-4.65,7.7-11.64,7.74-19.19.03-6.08-1.73-12.52-5.06-18.79-.27-.51-.56-1.01-.86-1.53.3-.11.61-.21.91-.31.26-.09.5-.16.76-.23.3.51.58,1.03.86,1.54,3.39,6.42,5.15,13.05,5.12,19.3v.03Z"/>
  <path class="cls-2" d="M177.43,998.05c-12.85-8.93-26.76-16.29-41.37-21.88l.61-1.61c14.73,5.65,28.77,13.07,41.74,22.08l-.98,1.41h0Z"/>
  <path class="cls-2" d="M198.14,1018.88c-3.32-7.37-9.51-13.39-16.95-16.52l.67-1.58c7.84,3.3,14.36,9.64,17.87,17.4l-1.57.71h-.01Z"/>
  <g class="cls-1">
    <path class="cls-3" d="M680.49,1526.91c-1.98-.37-4.02-.58-6.1-.67-1.95-.96-4.48-1.97-7.87-2.04-1.73-.04-3.44.17-5.16.63.01-.06.04-.09.06-.14,6.83-1.36,13.8-1.47,20.19-.23-.31,1.04-.68,1.87-1.11,2.45h0ZM604.11,1822.05c-28.67,18.74-59.15,27.07-90.6,24.72-4.86-.36-9.72-1-14.43-1.91-.26-.06-.48-.19-.66-.36-.3-.3-.46-.73-.37-1.18.14-.7.83-1.17,1.53-1.03,2.77.54,7.26-.98,11.98-3.15s9.68-5.01,13.39-7.13c1.81-1.04,3.39-1.94,4.61-2.58,26.71-14.09,48.71-33.56,63.65-56.33,19.83-30.23,22.96-66.34,25.98-101.28.54-6.32,1.11-12.87,1.75-19.24.48-4.74,1.06-9.54,1.61-14.19,2.17-18.39,4.42-37.4,2.02-56.16-2.11-16.52-.14-29.54,5.8-38.86.63-.98,1.3-1.93,2.01-2.81,1.83-2.31,3.96-4.36,6.39-6.12,5.77-4.22,12.55-7.29,19.55-9.04,1.03-.26,2.05-.5,3.08-.68,6.83-1.36,13.8-1.47,20.19-.23.86.17,1.71.36,2.54.6.67.16,1.33.34,1.98.56,7.76,2.44,14.79,6.68,20.73,12.28.36.31.71.67,1.06,1.01.29.29.57.56.83.86,8.87,9.11,15.01,21.37,17.05,35,4.49,29.95-5.66,60.04-14.6,86.55-12.41,36.79-25.61,65.87-41.55,91.59-17.9,28.88-40.57,52.79-65.55,69.14l.03-.03ZM667.44,1751.52c15.84-25.53,28.96-54.46,41.31-91.03,8.85-26.26,18.88-56,14.49-85.36-1.92-12.89-7.67-24.48-15.94-33.16-.6-.66-1.23-1.27-1.87-1.88-5.75-5.49-12.55-9.64-20.08-12.01-.71-.23-1.43-.43-2.15-.6-.88-.23-1.78-.43-2.71-.6-1.98-.37-4.02-.58-6.1-.67-5.23-.23-10.69.4-15.97,1.8-6.49,1.7-12.73,4.58-18.09,8.49-2.77,2.03-5.13,4.45-7.07,7.27-.64.91-1.23,1.88-1.77,2.88-4.73,8.67-6.19,20.43-4.29,35.2,2.44,19.09.16,38.27-2.02,56.8-.56,4.64-1.13,9.44-1.61,14.15-.66,6.35-1.21,12.88-1.77,19.21-3.04,35.25-6.2,71.69-26.39,102.47-15.19,23.12-37.53,42.91-64.62,57.2-1.17.63-2.72,1.51-4.52,2.54-5.38,3.08-12.51,7.17-18.64,9.31,2.02.26,4.05.46,6.1.61,57.63,4.29,115.11-30.33,153.74-92.65h-.01ZM680.49,1526.91c-1.98-.37-4.02-.58-6.1-.67-1.95-.96-4.48-1.97-7.87-2.04-1.73-.04-3.44.17-5.16.63.01-.06.04-.09.06-.14,6.83-1.36,13.8-1.47,20.19-.23-.31,1.04-.68,1.87-1.11,2.45h0Z"/>
    <path class="cls-3" d="M683.2,1527.49c-.88-.23-1.78-.43-2.71-.6.43-.58.8-1.4,1.11-2.45.68-2.24,1.2-5.49,1.85-9.69l.1-.66c.66-4.07,1.07-6.75,1-11.31-.17-11.33-.9-24.29-7.14-34.59-5.05-8.3-18.95-17.15-29.23-12.08-6.54,3.22-9.03,10.87-9.95,15.76,3.02-3.05,8.33-6.9,15.8-6.83,8.74.09,16.94,5.46,19.49,12.79,2.3,6.58.81,13.68-.93,19.78-1.77,6.18-4.42,11.97-7,17.56-1.41,3.1-2.89,6.26-4.18,9.49-.03.04-.04.09-.06.14,1.73-.46,3.44-.67,5.16-.63,3.39.06,5.93,1.08,7.87,2.04-5.23-.23-10.69.4-15.97,1.8-.07-.04-.11-.09-.17-.14h-.01c-.36-.37-.48-.9-.31-1.38.14-.39.29-.74.41-1.13,1.48-3.85,3.22-7.6,4.88-11.25,2.52-5.51,5.15-11.2,6.86-17.19.81-2.84,1.58-5.93,1.87-9.03.29-3.11.13-6.23-.9-9.17-2.21-6.32-9.37-10.97-17.05-11.05-10.62-.1-16.28,8.84-16.51,9.23-.31.51-.93.73-1.48.56-.58-.17-.96-.7-.93-1.3.03-.68.81-16.86,11.95-22.34,11.59-5.72,27.06,3.92,32.62,13.07,6.6,10.85,7.34,24.22,7.51,35.9.09,4.78-.36,7.55-1.01,11.75l-.11.64c-.66,4.22-1.17,7.47-1.88,9.87-.27.94-.58,1.77-.96,2.45h.01Z"/>
    <path class="cls-3" d="M685.01,1562.41c-10.77,5.56-22.87,6.75-33.21,3.22-5.02-1.7-9.48-4.52-13.08-8.07-3.17-3.14-5.66-6.85-7.24-10.87-.43-1.08-.78-2.18-1.08-3.32.63-.98,1.3-1.93,2.01-2.81h.04c.19,1.08.46,2.18.8,3.25,2.69,8.67,10.15,16.22,19.39,19.37,9.67,3.3,21.03,2.17,31.17-3.07,8.16-4.22,15.6-11.11,21.63-20,.5-.73.97-1.45,1.44-2.23.36.31.71.67,1.06,1.01.29.29.57.56.83.86-.47.76-.97,1.5-1.47,2.23-6.22,9.06-13.87,16.08-22.29,20.43h0Z"/>
    <path class="cls-3" d="M683.44,1656.07c2.95-23.51,3.05-47.36.3-70.89l2.58-.3c2.78,23.74,2.68,47.8-.3,71.52l-2.58-.33h0Z"/>
    <path class="cls-3" d="M670.07,1698.49c7.54-9.64,11.28-22.17,10.24-34.36l2.6-.21c1.1,12.85-2.84,26.03-10.79,36.19l-2.05-1.61h.01Z"/>
  </g>
  <g class="cls-1">
    <path class="cls-3" d="M183.97,78.06c-1.98-.37-4.02-.58-6.1-.67-1.95-.96-4.48-1.97-7.87-2.04-1.73-.04-3.44.17-5.16.63.01-.06.04-.09.06-.14,6.83-1.36,13.8-1.47,20.19-.23-.31,1.04-.68,1.87-1.11,2.45h0ZM107.58,373.2c-28.67,18.74-59.15,27.07-90.6,24.72-4.86-.36-9.72-1-14.43-1.91-.26-.06-.48-.19-.66-.36-.3-.3-.46-.73-.37-1.18.14-.7.83-1.17,1.53-1.03,2.77.54,7.26-.98,11.98-3.15s9.68-5.01,13.39-7.13c1.81-1.04,3.39-1.94,4.61-2.58,26.71-14.09,48.71-33.56,63.65-56.33,19.83-30.23,22.96-66.34,25.98-101.28.54-6.32,1.11-12.87,1.75-19.24.48-4.74,1.06-9.54,1.61-14.19,2.17-18.39,4.42-37.4,2.02-56.16-2.11-16.52-.14-29.54,5.8-38.86.63-.98,1.3-1.93,2.01-2.81,1.83-2.31,3.96-4.36,6.39-6.12,5.77-4.22,12.55-7.29,19.55-9.04,1.03-.26,2.05-.5,3.08-.68,6.83-1.36,13.8-1.47,20.19-.23.86.17,1.71.36,2.54.6.67.16,1.33.34,1.98.56,7.76,2.44,14.79,6.68,20.73,12.28.36.31.71.67,1.06,1.01.29.29.57.56.83.86,8.87,9.11,15.01,21.37,17.05,35,4.49,29.95-5.66,60.04-14.6,86.55-12.41,36.79-25.61,65.87-41.55,91.59-17.9,28.88-40.57,52.79-65.55,69.14l.03-.03ZM170.92,302.68c15.84-25.53,28.96-54.46,41.31-91.03,8.85-26.26,18.88-56,14.49-85.36-1.92-12.89-7.67-24.48-15.94-33.16-.6-.66-1.23-1.27-1.87-1.88-5.75-5.49-12.55-9.64-20.08-12.01-.71-.23-1.43-.43-2.15-.6-.88-.23-1.78-.43-2.71-.6-1.98-.37-4.02-.58-6.1-.67-5.23-.23-10.69.4-15.97,1.8-6.49,1.7-12.73,4.58-18.09,8.49-2.77,2.03-5.13,4.45-7.07,7.27-.64.91-1.23,1.88-1.77,2.88-4.73,8.67-6.19,20.43-4.29,35.2,2.44,19.09.16,38.27-2.02,56.8-.56,4.64-1.13,9.44-1.61,14.15-.66,6.35-1.21,12.88-1.77,19.21-3.04,35.25-6.2,71.69-26.39,102.47-15.19,23.12-37.53,42.91-64.62,57.2-1.17.63-2.72,1.51-4.52,2.54-5.38,3.08-12.51,7.17-18.64,9.31,2.02.26,4.05.46,6.1.61,57.63,4.29,115.11-30.33,153.74-92.65h-.01ZM183.97,78.06c-1.98-.37-4.02-.58-6.1-.67-1.95-.96-4.48-1.97-7.87-2.04-1.73-.04-3.44.17-5.16.63.01-.06.04-.09.06-.14,6.83-1.36,13.8-1.47,20.19-.23-.31,1.04-.68,1.87-1.11,2.45h0Z"/>
    <path class="cls-3" d="M186.68,78.65c-.88-.23-1.78-.43-2.71-.6.43-.58.8-1.4,1.11-2.45.68-2.24,1.2-5.49,1.85-9.69l.1-.66c.66-4.07,1.07-6.75,1-11.31-.17-11.33-.9-24.29-7.14-34.59-5.05-8.3-18.95-17.15-29.23-12.08-6.54,3.22-9.03,10.87-9.95,15.76,3.02-3.05,8.33-6.9,15.8-6.83,8.74.09,16.94,5.46,19.49,12.79,2.3,6.58.81,13.68-.93,19.78-1.77,6.18-4.42,11.97-7,17.56-1.41,3.1-2.89,6.26-4.18,9.49-.03.04-.04.09-.06.14,1.73-.46,3.44-.67,5.16-.63,3.39.06,5.93,1.08,7.87,2.04-5.23-.23-10.69.4-15.97,1.8-.07-.04-.11-.09-.17-.14h-.01c-.36-.37-.48-.9-.31-1.38.14-.39.29-.74.41-1.13,1.48-3.85,3.22-7.6,4.88-11.25,2.52-5.51,5.15-11.2,6.86-17.19.81-2.84,1.58-5.93,1.87-9.03.29-3.11.13-6.23-.9-9.17-2.21-6.32-9.37-10.97-17.05-11.05-10.62-.1-16.28,8.84-16.51,9.23-.31.51-.93.73-1.48.56-.58-.17-.96-.7-.93-1.3.03-.68.81-16.86,11.95-22.34,11.59-5.72,27.06,3.92,32.62,13.07,6.6,10.85,7.34,24.22,7.51,35.9.09,4.78-.36,7.55-1.01,11.75l-.11.64c-.66,4.22-1.17,7.47-1.88,9.87-.27.94-.58,1.77-.96,2.45h.01Z"/>
    <path class="cls-3" d="M188.49,113.57c-10.77,5.56-22.87,6.75-33.21,3.22-5.02-1.7-9.48-4.52-13.08-8.07-3.17-3.14-5.66-6.85-7.24-10.87-.43-1.08-.78-2.18-1.08-3.32.63-.98,1.3-1.93,2.01-2.81h.04c.19,1.08.46,2.18.8,3.25,2.69,8.67,10.15,16.22,19.39,19.37,9.67,3.3,21.03,2.17,31.17-3.07,8.16-4.22,15.6-11.11,21.63-20,.5-.73.97-1.45,1.44-2.23.36.31.71.67,1.06,1.01.29.29.57.56.83.86-.47.76-.97,1.5-1.47,2.23-6.22,9.06-13.87,16.08-22.29,20.43h0Z"/>
    <path class="cls-3" d="M186.92,207.23c2.95-23.51,3.05-47.36.3-70.89l2.58-.3c2.78,23.74,2.68,47.8-.3,71.52l-2.58-.33h0Z"/>
    <path class="cls-3" d="M173.54,249.65c7.54-9.64,11.28-22.17,10.24-34.36l2.6-.21c1.1,12.85-2.84,26.03-10.79,36.19l-2.05-1.61h.01Z"/>
  </g>
  <g class="cls-1">
    <path class="cls-3" d="M1069.68,1681.56c1.25.73,13.25,7.4,35.32,9.66,20.99,2.14,55.42.44,100.28-19.84,85.57-38.68,95.54-48.37,103.61-56.66l8.01-1.57c.21-.04.41-.14.57-.29,1.03-.87,24.94-21.6,17.95-45.07l-1.3-3.45,15.8-4.08s.1-.03.14-.04l3.05-1.18c.21-.09.39-.21.53-.4.14-.17,3.42-4.38,2.45-8.79-.54-2.47-2.27-4.46-5.13-5.91-.26-.13-.57-.17-.86-.1l-17.54,4.07s-.1.03-.16.04l-6.43,2.35-10.27-7.13s-.1-.07-.16-.1c-.2-.1-20.58-9.89-37.66,4.46-1.74,1.45-3.14,2.64-4.26,3.58-.16.04-.3.11-.43.21-.17.13-17.14,13.04-42.53,20.26-23.4,6.65-58.89,9.63-95.11-13.84-.23-.17-23.3-16.79-52.5-12.1-21.06,3.38-40.04,16.73-56.41,39.7-.03.04-.07.1-.1.16-.14.27-13.73,27.16-3.59,54.2,3.08,8.22,7.99,15.59,14.66,22.11,8.1,7.89,18.81,14.49,32.07,19.76h-.01ZM1083.42,1548.16c28.15-4.54,50.42,11.48,50.71,11.68,37.07,24.02,73.33,20.98,97.23,14.19,17.3-4.91,30.79-12.45,37.87-16.93.39.3.77.21,1.5-.3h0s.04-.03.09-.07c.43-.31.97-.77,1.7-1.37,1.37-1.14,3.58-3,6.99-5.86,15.29-12.85,33.49-4.79,34.83-4.18l10.72,7.45c.34.23.77.29,1.16.14l6.97-2.55,17.01-3.94c1.91,1.06,3.07,2.4,3.41,3.98.6,2.72-1.17,5.58-1.77,6.43l-2.64,1.03-17.08,4.42c-.34.09-.64.33-.8.64-.17.31-.19.68-.06,1.03l1.75,4.68c6.13,20.61-14.47,39.91-16.97,42.14l-8.06,1.57c-.26.04-.48.17-.66.36-7.97,8.19-17.01,17.47-103.11,56.4-84.63,38.26-132.88,10.54-133.35,10.26-.06-.03-.11-.07-.19-.09-23.54-9.31-38.8-22.92-45.37-40.41-9.5-25.29,2.65-50.54,3.42-52.11,15.94-22.32,34.34-35.3,54.67-38.58h.01Z"/>
    <path class="cls-3" d="M1309.24,1614.1c-.27-.27-.43-.66-.37-1.07l3.56-27.52-27.75,2.62c-.48.04-.96-.2-1.21-.61-.24-.43-.23-.94.04-1.36l15.59-22.99-23.94-11c-.63-.3-.91-1.04-.61-1.67.29-.63,1.04-.91,1.67-.63l25.3,11.61c.34.16.58.46.68.81s.04.74-.17,1.04l-14.91,22.01,26.65-2.52c.39-.03.76.1,1.03.39.27.27.4.66.34,1.04l-3.76,29.08c-.09.68-.73,1.18-1.41,1.08-.29-.04-.53-.16-.71-.34h0Z"/>
    <path class="cls-3" d="M1329.76,1562.58c-4.45-4.34-5.05-10.71-5.08-11.01l2.51-.21c0,.07.71,7.4,6.07,10.81l-1.35,2.13c-.81-.51-1.53-1.1-2.17-1.71h.01Z"/>
    <path class="cls-3" d="M1052.87,1591.24h-.01c-.48-.51-.48-1.31.01-1.81,33.44-32.88,66.06-13.99,66.39-13.79.6.36.8,1.13.44,1.73-.36.6-1.13.8-1.73.44-1.27-.76-31.31-18.04-63.32,13.42-.48.48-1.27.48-1.77,0h-.01Z"/>
    <path class="cls-3" d="M1045.57,1632.28c-.1-.1-.19-.21-.26-.36-6.87-14.08,1.33-31.75,1.68-32.49.3-.63,1.06-.9,1.68-.6.63.3.9,1.06.6,1.68-.09.17-8.03,17.33-1.7,30.31.3.63.04,1.38-.58,1.68-.5.24-1.07.13-1.44-.23h.01Z"/>
  </g>
  <g class="cls-1">
    <path class="cls-3" d="M1434.72,305.67c.8-.21,8.3-2.35,18.07-10.31,9.29-7.57,22.45-22.09,32.32-48.26,18.84-49.92,18.95-57.82,18.86-64.39l2.59-3.85c.07-.1.11-.22.11-.34.06-.76,1.34-18.7-10.9-25.32l-1.91-.87,4.71-7.99s.03-.05.04-.07l.75-1.7c.05-.12.07-.24.05-.37-.01-.13-.38-3.13-2.54-4.52-1.21-.77-2.7-.88-4.43-.31-.15.05-.3.16-.38.3l-5.41,8.68s-.03.05-.05.08l-1.64,3.53-6.99,1.26s-.07.01-.1.02c-.12.04-12.24,4.3-13.34,16.92-.11,1.28-.2,2.32-.27,3.15-.05.08-.07.17-.09.26-.02.12-1.65,12.12-8.95,25.23-6.73,12.07-19.79,27.53-43.77,32.65-.16.02-16.11,2.62-25.95,16.23-7.1,9.82-9.36,22.81-6.71,38.61,0,.03.01.07.02.1.05.17,5.39,16.43,20.33,23.22,4.54,2.06,9.47,3.06,14.77,2.99,6.42-.08,13.38-1.73,20.82-4.95h-.01ZM1386.65,246.55c9.49-13.13,24.87-15.64,25.06-15.68,24.55-5.24,37.89-21.03,44.77-33.36,4.98-8.92,7.37-17.37,8.41-22.02.28-.03.4-.22.48-.72h0s0-.03,0-.06c.05-.3.08-.7.13-1.23.09-1.01.23-2.64.45-5.16.98-11.3,11.53-15.38,12.32-15.67l7.3-1.32c.23-.05.42-.19.52-.41l1.78-3.83,5.25-8.42c1.19-.34,2.19-.27,2.97.23,1.34.85,1.77,2.71,1.87,3.29l-.65,1.47-5.09,8.64c-.1.17-.13.39-.06.58.06.19.2.35.39.44l2.58,1.18c10.74,5.82,10.22,21.85,10.11,23.75l-2.61,3.87c-.09.12-.13.26-.12.41.09,6.49.19,13.85-18.76,64.08-18.63,49.37-49.15,57.62-49.45,57.7-.03.01-.07.02-.11.04-13.2,5.72-24.8,6.38-34.46,1.99-13.98-6.35-19.24-21.37-19.56-22.31-2.56-15.37-.39-27.98,6.46-37.47h0Z"/>
    <path class="cls-3" d="M1503.87,182.32c-.22,0-.44-.09-.58-.28l-9.62-12.49-10.09,12.2c-.18.21-.46.3-.73.24-.27-.07-.47-.29-.53-.56l-2.98-15.5-14.04,5.2c-.37.13-.78-.05-.92-.42-.14-.37.05-.78.42-.92l14.83-5.5c.2-.07.42-.05.6.05s.32.28.35.49l2.85,14.83,9.69-11.72c.14-.17.34-.26.57-.26.22,0,.42.1.56.28l10.17,13.2c.24.31.18.77-.13,1-.13.1-.27.15-.42.15h0Z"/>
    <path class="cls-3" d="M1491.41,153.37c-3.53.05-6.33-2.28-6.46-2.38l.92-1.09s3.26,2.69,6.78,1.9l.31,1.4c-.53.12-1.05.17-1.56.18h0Z"/>
    <path class="cls-3" d="M1391.68,276.13h0c-.4,0-.72-.33-.72-.73.22-26.64,20.92-32.16,21.13-32.21.38-.1.77.13.87.52.1.38-.13.77-.52.87-.81.21-19.83,5.33-20.05,30.83,0,.39-.32.7-.71.71h0Z"/>
    <path class="cls-3" d="M1405.23,295.55c-.08,0-.16-.01-.25-.04-8.42-2.9-12.22-13.29-12.38-13.73-.13-.37.06-.78.44-.92.37-.13.78.06.92.44.03.1,3.74,10.19,11.5,12.86.37.13.57.54.44.91-.1.3-.38.48-.67.49h0Z"/>
  </g>
  <path class="cls-2" d="M911.03,940.17c.13-1.27.23-2.5.31-3.65.37-4.51.76-9.17,2.08-9.83.33-.16,1.41-.34,4.42,1.54,9.04,5.65,17.44,6.26,17.78,6.29,4.72.3,13.93-1.53,14.93-10.81.66-6.06.57-9.14.29-10.77,1.38-.58,5.02-1.04,12.21,4.22,6.62,4.84,11.16,6.36,14.76,4.92,3.25-1.3,5.32-4.94,6.5-11.45,2.22-12.28-1.24-27.76-1.38-28.41l-33.55-143.55c-.64-1.9-15.96-46.52-38.17-51.31-7.36-1.6-14.57,1.33-21.45,8.67l-12.26,25.42c-4.36-3.52-16.53-12.32-29.26-11.58-15.73.86-30.1,18.67-33.54,41.07-6.23-3.95-22.83-13.44-31.47-8.06-4.31,2.67-5.85,8.44-4.58,17.16,4.93,33.99,11.99,46.24,12.31,46.77l82.55,135.42,13.29,10.41h.54c.07.01.27.01.58.01,3.62,0,21.93-.58,23.07-12.48h.04ZM793.82,805.1c-.07-.11-7.06-12.35-11.88-45.56-1.06-7.3-.03-11.97,3.05-13.89,7.06-4.39,24.11,5.32,30.09,9.44l2.27,1.55.31-2.72c2.5-22.05,16.01-39.97,30.8-40.78,14.17-.77,28.39,12.01,28.53,12.14l1.64,1.48,13.76-28.69c5.96-6.3,12.08-8.84,18.17-7.53,20.39,4.41,35.59,48.7,35.7,49l33.51,143.4c.03.16,3.47,15.48,1.35,27.09-.96,5.22-2.42,8.16-4.49,8.99-2.35.94-6.15-.54-11.59-4.52-12.16-8.92-16.85-3.89-17.35-3.3l-.96,1.16.84.84c.14.54.53,2.84-.26,10.14-.91,8.44-11.01,7.92-11.44,7.87-.09,0-7.97-.61-16.27-5.79-2.28-1.43-5.22-2.91-7.64-1.7-2.98,1.5-3.34,5.88-3.89,12.5-.1,1.14-.2,2.35-.31,3.61-.86,8.94-16.65,9.49-19.76,9.5l-11.95-9.36-82.22-134.9v.03Z"/>
  <path class="cls-2" d="M814.38,753.81c-.04-1.03-4.72-102.66-24.71-114.03-6.05-3.44-11.65-4.39-16.68-2.85-7.91,2.42-11.88,10.31-11.92,10.38l-.4.81-.91.09c-.33.03-8.06.74-11.76-3.78-2.05-2.51-2.42-6.01-1.1-10.36,2.62-8.63,16.08-26.2,33.54-30.5,11.51-2.82,22.66.81,32.24,10.53,27.89,28.3,65.33,105.94,66.9,109.23l-2.97,1.43c-.39-.8-38.78-80.44-66.29-108.35-8.84-8.97-18.64-12.22-29.1-9.64-16.03,3.94-28.82,20.5-31.18,28.26-.98,3.24-.83,5.71.5,7.3,2.01,2.45,6.26,2.67,8.06,2.64,1.38-2.37,5.72-8.83,13.4-11.2,5.95-1.84,12.43-.78,19.31,3.12,21.55,12.27,26.18,112.49,26.36,116.75l-3.29.14h.01Z"/>
  <polygon class="cls-2" points="863.59 850.52 828.16 782.93 831.08 781.41 866.5 848.99 863.59 850.52"/>
  <polygon class="cls-2" points="938.89 878.38 910.06 803.38 913.13 802.19 941.96 877.19 938.89 878.38"/>
  <g class="cls-1">
    <path class="cls-3" d="M633.95,1149.48c-.31,8.57-2.75,17.35-6.86,25.58-1.75,3.57-3.82,7.02-6.13,10.33-1.65,2.38-3.48,4.66-5.42,6.86-7.02,7.96-15.64,14.62-25.22,19-9.92,4.56-20.88,6.6-32.33,6.6-35.68,0-76.24-19.7-106.13-43.99-24.41-19.86-40.5-40.95-45.54-58.85-.94-3.25-1.47-6.39-1.65-9.39-.19-3.1.03-6.05.66-8.83,2.15-9.43,9.45-18.19,21.13-25.29,27.92-17.03,75.36-22.41,112.82-12.81,37.49,9.61,96.33,42.74,94.67,90.79h.01ZM626.59,1158c.63-2.91,1-5.82,1.1-8.73,1.47-42.01-51.73-74.7-89.97-84.53-12.05-3.07-25.17-4.56-38.24-4.56-26.04,0-52.05,5.89-69.76,16.66-10.17,6.23-16.5,13.62-18.28,21.38-.03.13-.06.26-.06.37-.6,2.78-.66,5.82-.21,9.04,2.25,17.35,18.68,40.3,44.66,61.39,38,30.9,93.51,54.16,131.91,36.53,14.27-6.55,26.25-18.57,33.29-32.18,2.57-4.98,4.48-10.14,5.58-15.38h-.01Z"/>
    <path class="cls-3" d="M627.5,1170.31c-.06,1.57-.19,3.17-.41,4.76-1.31,10.77-5.85,21.6-12.58,31.15-7.73,10.98-18.44,20.28-30.64,25.89-9.92,4.54-20.88,6.58-32.33,6.58-35.68,0-76.24-19.66-106.13-43.99-33.37-27.12-51.18-56.64-46.54-77.05.97-4.17,4.61-12.35,7.49-16.16,1.88-2.44.86-5.96,3.46-8.22-.6,2.78.88,11.14,1.31,14.36-2.1,2.38-3.72,4.85-4.82,7.39-.6,1.31-1.03,2.67-1.34,4.01-4.04,17.82,13.36,45.62,44.37,70.82,38,30.9,93.51,54.16,131.91,36.57,14.96-6.86,27.42-19.73,34.26-34.16,2.91-6.11,4.82-12.52,5.48-18.89,2.57-4.98,4.48-10.14,5.58-15.38.76,4.01,1.07,8.1.91,12.31h.01Z"/>
    <path class="cls-3" d="M599.59,1154.89c-3.59,15.69-25.17,25.56-44.56,25.56-2.15,0-4.28-.11-6.36-.36-15.54-1.85-32.01-11.45-40.97-23.85-5.5-7.59-7.61-15.45-6.16-22.67,3.58-17.79,28.63-28.37,48.82-26.73,15.93,1.28,33.05,10.91,42.65,24.01,5.95,8.1,8.28,16.62,6.57,24.03h0ZM594.14,1150.05c0-4.91-2.07-10.31-5.95-15.63-8.64-11.78-24.03-20.44-38.31-21.61-1.23-.09-2.45-.14-3.71-.14-16.91,0-36.1,8.79-38.78,22.1-1.44,7.03,2,13.67,5.13,18,8.04,11.13,22.83,19.73,36.85,21.41,17.84,2.18,41.15-6.36,44.37-20.57.27-1.14.39-2.33.39-3.52v-.03Z"/>
  </g>
  <g class="cls-1">
    <path class="cls-3" d="M237.3,1834.05c-.31,8.57-2.75,17.35-6.86,25.58-1.75,3.57-3.82,7.02-6.13,10.33-1.65,2.38-3.48,4.66-5.42,6.86-7.02,7.96-15.64,14.62-25.22,19-9.92,4.56-20.88,6.6-32.33,6.6-35.68,0-76.24-19.7-106.13-43.99-24.41-19.86-40.5-40.95-45.54-58.85-.94-3.25-1.47-6.39-1.65-9.39-.19-3.1.03-6.05.66-8.83,2.15-9.43,9.45-18.19,21.13-25.29,27.92-17.03,75.36-22.41,112.82-12.81,37.49,9.61,96.33,42.74,94.67,90.79h.01ZM229.94,1842.56c.63-2.91,1-5.82,1.1-8.73,1.47-42.01-51.73-74.7-89.97-84.53-12.05-3.07-25.17-4.56-38.24-4.56-26.04,0-52.05,5.89-69.76,16.66-10.17,6.23-16.5,13.62-18.28,21.38-.03.13-.06.26-.06.37-.6,2.78-.66,5.82-.21,9.04,2.25,17.35,18.68,40.3,44.66,61.39,38,30.9,93.51,54.16,131.91,36.53,14.27-6.55,26.25-18.57,33.29-32.18,2.57-4.98,4.48-10.14,5.58-15.38h-.01Z"/>
    <path class="cls-3" d="M230.85,1854.87c-.06,1.57-.19,3.17-.41,4.76-1.31,10.77-5.85,21.6-12.58,31.15-7.73,10.98-18.44,20.28-30.64,25.89-9.92,4.54-20.88,6.58-32.33,6.58-35.68,0-76.24-19.66-106.13-43.99-33.37-27.12-51.18-56.64-46.54-77.05.97-4.17,4.61-12.35,7.49-16.16,1.88-2.44.86-5.96,3.46-8.22-.6,2.78.88,11.14,1.31,14.36-2.1,2.38-3.72,4.85-4.82,7.39-.6,1.31-1.03,2.67-1.34,4.01-4.04,17.82,13.36,45.62,44.37,70.82,38,30.9,93.51,54.16,131.91,36.57,14.96-6.86,27.42-19.73,34.26-34.16,2.91-6.11,4.82-12.52,5.48-18.89,2.57-4.98,4.48-10.14,5.58-15.38.76,4.01,1.07,8.1.91,12.31h.01Z"/>
    <path class="cls-3" d="M202.94,1839.45c-3.59,15.69-25.17,25.56-44.56,25.56-2.15,0-4.28-.11-6.36-.36-15.54-1.85-32.01-11.45-40.97-23.85-5.5-7.59-7.61-15.45-6.16-22.67,3.58-17.79,28.63-28.37,48.82-26.73,15.93,1.28,33.05,10.91,42.65,24.01,5.95,8.1,8.28,16.62,6.57,24.03h0ZM197.49,1834.62c0-4.91-2.07-10.31-5.95-15.63-8.64-11.78-24.03-20.44-38.31-21.61-1.23-.09-2.45-.14-3.71-.14-16.91,0-36.1,8.79-38.78,22.1-1.44,7.03,2,13.67,5.13,18,8.04,11.13,22.83,19.73,36.85,21.41,17.84,2.18,41.15-6.36,44.37-20.57.27-1.14.39-2.33.39-3.52v-.03Z"/>
  </g>
  <g class="cls-1">
    <path class="cls-3" d="M477.71,312.53c-.2,5.41-1.74,10.94-4.32,16.13-1.11,2.25-2.41,4.42-3.86,6.52-1.04,1.5-2.2,2.94-3.41,4.32-4.42,5.02-9.87,9.21-15.91,11.98-6.26,2.88-13.16,4.17-20.39,4.17-22.5,0-48.08-12.42-66.93-27.74-15.4-12.52-25.54-25.83-28.72-37.12-.6-2.05-.93-4.02-1.04-5.92-.11-1.95.01-3.81.41-5.56,1.37-5.95,5.96-11.47,13.32-15.95,17.61-10.74,47.53-14.14,71.15-8.07,23.64,6.06,60.76,26.94,59.7,57.26h0ZM473.08,317.89c.4-1.84.63-3.67.68-5.51.93-26.5-32.62-47.11-56.75-53.3-7.6-1.94-15.87-2.88-24.13-2.88-16.43,0-32.82,3.71-43.99,10.5-6.42,3.92-10.39,8.59-11.52,13.48-.01.09-.04.16-.04.24-.37,1.75-.41,3.67-.14,5.71,1.43,10.94,11.78,25.42,28.16,38.73,23.96,19.48,58.98,34.16,83.2,23.04,9-4.12,16.55-11.71,21-20.3,1.63-3.14,2.82-6.39,3.51-9.7h.01Z"/>
    <path class="cls-3" d="M473.65,325.65c-.04.98-.11,2-.26,3-.83,6.79-3.69,13.62-7.93,19.64-4.88,6.93-11.62,12.79-19.32,16.33-6.26,2.87-13.16,4.15-20.39,4.15-22.5,0-48.08-12.4-66.93-27.74-21.05-17.1-32.27-35.72-29.35-48.6.61-2.62,2.91-7.79,4.72-10.2,1.18-1.54.54-3.77,2.18-5.18-.37,1.75.56,7.03.83,9.06-1.33,1.5-2.35,3.07-3.04,4.66-.37.83-.66,1.68-.86,2.52-2.55,11.24,8.43,28.77,27.99,44.66,23.96,19.48,58.98,34.16,83.2,23.07,9.44-4.32,17.3-12.44,21.62-21.54,1.84-3.85,3.04-7.9,3.45-11.91,1.63-3.14,2.82-6.39,3.51-9.7.47,2.52.67,5.12.57,7.76h0Z"/>
    <path class="cls-3" d="M456.04,315.94c-2.27,9.9-15.87,16.12-28.1,16.12-1.35,0-2.69-.07-4.02-.23-9.8-1.17-20.19-7.22-25.84-15.05-3.46-4.79-4.81-9.74-3.88-14.29,2.27-11.21,18.05-17.89,30.8-16.86,10.04.81,20.85,6.88,26.89,15.13,3.75,5.11,5.22,10.48,4.15,15.16h0ZM452.62,312.87c0-3.1-1.3-6.5-3.75-9.86-5.45-7.43-15.16-12.89-24.15-13.64-.77-.06-1.54-.1-2.34-.1-10.67,0-22.77,5.55-24.47,13.94-.9,4.44,1.27,8.62,3.24,11.35,5.08,7.02,14.4,12.44,23.24,13.49,11.25,1.37,25.95-4.02,27.99-12.97.17-.71.24-1.47.24-2.23h0Z"/>
  </g>
  <g class="cls-1">
    <path class="cls-3" d="M1148.74,595.62c27.05-3.92,55.52-28.01,54.36-60.12-.51-14.11-7-27.6-18.27-37.97-13.12-12.1-31.33-18.83-48.75-18.06-32.68,1.47-61.31,28.76-61.29,58.4,0,15.29,7.2,29.93,20.25,41.22,12.75,11.04,29.09,17.16,45.04,17.16,2.91,0,5.79-.2,8.66-.61h0ZM1181.25,501.4c10.22,9.43,16.1,21.6,16.55,34.28,1.06,29.17-25.04,51.11-49.82,54.69-16.78,2.47-35.75-3.44-49.46-15.31-11.86-10.27-18.41-23.48-18.42-37.22-.03-26.94,26.25-51.78,56.24-53.12.84-.04,1.68-.06,2.52-.06,15.26,0,30.94,6.15,42.41,16.72h-.01Z"/>
    <path class="cls-3" d="M1275.62,579.9c29.59-2.68,60.83-27.24,60.16-59.54h0c-.3-14.28-7.09-28.04-19.15-38.74-14.52-12.89-35.09-19.78-53.67-17.9-29.97,2.97-61.03,28.27-59.49,61.19.64,13.94,7.46,27.24,19.19,37.47,12.85,11.2,30.54,17.74,47.34,17.74,1.88,0,3.76-.09,5.62-.24h0ZM1313.14,485.59c10.94,9.7,17.11,22.1,17.37,34.88h0c.6,28.91-28.69,51.75-55.35,54.16-17,1.54-35.78-4.68-49.01-16.22-10.62-9.27-16.8-21.25-17.38-33.73-1.37-29.48,27.75-53.01,54.73-55.69,1.84-.19,3.71-.27,5.59-.27,15.6,0,32.04,6.2,44.05,16.86h.01Z"/>
    <path class="cls-3" d="M1146.26,482.35l-4.99-1.74c.74-2.13,18.35-52.39,28.58-69.44l1.83-3c10.51-17.19,30.07-49.2,7.13-97.71l4.78-2.27c24.17,51.11,3.64,84.7-7.4,102.74l-1.8,2.95c-9.95,16.59-27.93,67.94-28.12,68.47h0Z"/>
    <path class="cls-3" d="M1260.72,467.17c-.31-.96-31.21-96.24-70.03-116.99l2.5-4.68c40.7,21.77,71.3,116.04,72.58,120.05l-5.03,1.61h-.01Z"/>
    <path class="cls-3" d="M1100.46,442.07c2.35-1.45,3.12-3.97,3.74-5.96l.23-.73c2.48-7.65,10.22-13.71,23.01-18.02,1.68-.57,3.41-1.11,5.12-1.65,9.04-2.87,18.38-5.83,25.32-12.71,3.14-3.11,5.5-6.78,7.79-10.33.96-1.48,1.91-2.97,2.92-4.41,5.62-7.96,13.02-14.54,21.56-19.14.4.24.87.39,1.35.39,1.27-.21,2.44-.96,2.64-2.25.29-1.84.93-6.16-.36-9.89.2-3.77.86-7.5,1.94-11.1.21-.73.11-1.53-.3-2.17-.41-.64-1.07-1.08-1.83-1.2-31.85-5.02-65.35,4.66-89.6,25.9-7.13,6.23-11.82,12.07-14.74,18.36-6.45,13.85-4.15,29.9-1.24,45.16.44,2.33,1,5.22,2.88,7.59,1.45,1.83,3.85,3.11,6.26,3.11,1.13,0,2.27-.29,3.31-.93v-.03ZM1189.84,347.69c-.34,1.43-.61,2.87-.84,4.32-3.32-1.48-6.97-.6-10.45.61-22.12,7.7-42.96,18.56-61.96,32.29-6.52,4.71-13.09,10.06-17.13,17.3-6.03,10.83-5.28,24.08-4.06,34.75-.14-.11-.27-.26-.39-.4-1.07-1.34-1.47-3.42-1.83-5.26-2.87-15.01-4.95-29.5.83-41.94,2.61-5.59,6.87-10.87,13.43-16.6,19.08-16.7,44.16-25.89,69.4-25.89,4.33,0,8.67.27,12.98.83h.01ZM1187.21,357.05c.5.3.9.71,1.23,1.27-.06,1.88-.01,3.77.11,5.63-9.65,5.02-18.01,12.31-24.3,21.24-1.06,1.5-2.05,3.04-3.05,4.59-2.22,3.45-4.33,6.72-7.06,9.43-6.03,5.99-14.76,8.76-23.2,11.43-1.75.56-3.49,1.11-5.2,1.68-13.33,4.49-21.92,10.97-25.54,19.26-.83-10.03-.43-19.06,3.89-26.8,3.52-6.33,9.58-11.23,15.6-15.58,18.58-13.42,38.96-24.05,60.59-31.58,1.68-.58,3.39-1.08,4.85-1.08.78,0,1.5.14,2.08.5h0Z"/>
  </g>
  <g class="cls-1">
    <path class="cls-3" d="M869.21,1406.23c22-1.5,39.97-12.54,51.15-21.52,10.25-8.24,19.71-18.4,29.9-32.24,5.69-4.61,9.71-10.17,11.68-16.15,4.91-2.98,9.33-6.65,13.39-10.03,10.24-8.5,20.83-17.29,29.64-27.69,15.2-17.93,23.91-39.54,24.55-60.82.7-23.39-8.7-45.87-25.1-60.14-15.56-13.52-35.92-19.06-55.6-24.42l-6.39-1.74c-38.04-10.56-74.9-25.36-109.69-44.05-.74-1.58-1.63-3.05-2.65-4.38s-4.18-5.39-7.71-4.17c-4.25,1.44-4.68,8.82-4.76,17.6l-.03,1.77c-.16,6.38-.11,12.81-.03,19.13-.58,2.04-1,3.78-1.11,5.08-.96,10.95-2.54,25.33-6.25,39.4-3.68,13.99-9.25,27.72-14.64,40.98-5.49,13.54-11.18,27.53-14.93,41.95-8.94,34.32-5.86,67.84,8.67,94.36,15.74,28.74,45.44,47.26,75.1,47.26,1.6,0,3.19-.06,4.79-.16v-.03ZM817.05,1181.45c-1.9,23.89-5.52,47.83-10.77,71.16l-.97,4.26c-5.02,22.04-10.21,44.83-1.16,65.46,6.29,14.32,18.48,24.78,30.7,33.93,9.57,7.16,20.05,14.18,31.9,17.03,19.14,4.62,39.23-2.1,55.35-7.49,5.58-1.87,11.26-3.78,16.7-6.33-7.14,8.69-14.09,15.65-21.43,21.55-10.67,8.57-27.73,19.09-48.51,20.5-29.39,2.01-59.7-15.93-75.42-44.65-13.75-25.09-16.74-58.23-8.24-90.91,3.68-14.12,9.3-27.97,14.74-41.37,5.45-13.41,11.08-27.29,14.83-41.57,1.14-4.35,2.1-8.73,2.88-13.04-.11,3.82-.31,7.63-.61,11.44h0ZM823.51,1134.1c2.05,5.18,5.23,9.39,9.3,12.21-.03.2-.06.39-.07.58-.58,4.36-1.18,8.89-1.08,13.95.16,7.69,1.35,15.32,2.5,22.71.83,5.32,1.68,10.81,2.12,16.2.67,8.16.46,16.55.23,24.66-.26,9.46-.51,19.23.61,28.84,2.71,23.07,13.89,45.52,30.67,61.58,16.78,16.06,39.7,26.23,62.85,27.91,8.71.63,15.98-.07,22.2-2.15-2.05,3-4.06,5.85-6.05,8.54-.83.66-1.68,1.28-2.58,1.88-7.1,4.76-15.49,7.57-23.61,10.28-15.56,5.22-34.93,11.7-52.76,7.39-10.41-2.51-19.59-8.3-30.19-16.22-11.71-8.77-23.36-18.71-29.2-32.05-8.43-19.19-3.41-41.21,1.44-62.49l.97-4.28c5.29-23.55,8.94-47.71,10.87-71.83,1.04-13.07.83-26.15.63-38.78-.03-1.67-.06-3.35-.07-5.04.36-1.23.78-2.57,1.2-3.89h.03ZM904.93,1297.4c8.11,11.14,18.28,22.79,32.28,24.89,1.88.29,3.81.39,5.72.47,2.14.1,4.16.2,6.13.57,3.82.73,6.67,2.65,7.64,5.14.66,1.7.47,3.57-.17,5.45-1.4.71-2.82,1.36-4.31,1.9-5.79,2.11-12.73,2.85-21.22,2.23-22.09-1.61-43.93-11.31-59.93-26.62-16-15.31-26.66-36.72-29.25-58.71-1.1-9.29-.84-18.89-.58-28.17.23-8.24.46-16.77-.24-25.18-.46-5.56-1.33-11.14-2.17-16.53-1.13-7.23-2.3-14.72-2.44-22.08-.04-1.91.03-3.77.17-5.58,16.6,51.34,43.3,107.82,68.39,142.24h-.03ZM837.8,1127.98l-.56-3.28c-.54-3.34-1.16-7.08-2.14-10.68,33.74,17.7,69.36,31.81,106.07,41.99l6.4,1.75c19.16,5.22,38.98,10.6,53.73,23.42,15.36,13.35,24.13,34.45,23.47,56.44-.6,20.23-8.93,40.78-23.43,57.91-8.54,10.08-18.98,18.74-29.06,27.12-2.94,2.44-5.93,4.92-9.07,7.15.27-3.12.09-6.23-.09-9.26-.16-2.74-.3-5.32-.16-7.9.31-5.29,1.9-10.4,3.56-15.8,2-6.46,4.06-13.15,3.78-20.17-.47-11.63-7.17-20.98-12.7-26.8-5.8-6.11-12.73-11.01-19.42-15.73l-3.28-2.33c-38.11-27.29-71.27-62.09-96.8-101.52-.09-.76-.2-1.51-.34-2.28l.03-.03ZM838.34,1139.12c25.25,37.33,57.31,70.35,93.85,96.5l3.29,2.34c6.5,4.61,13.23,9.37,18.72,15.15,7.03,7.39,11.09,15.82,11.41,23.74.26,6.22-1.6,12.22-3.56,18.59-1.68,5.43-3.42,11.05-3.76,16.92-.17,2.85,0,5.71.14,8.44.04.73.09,1.44.11,2.14-2.1-2.07-5.09-3.58-8.6-4.25-2.3-.44-4.59-.54-6.8-.66-1.75-.07-3.51-.16-5.23-.41-12.28-1.84-21.65-12.67-29.17-23.01-26.46-36.34-54.78-97.54-70.84-150.93.17-1.5.33-3.01.43-4.56h.01ZM827.09,1121.92c1.31,5.43,2.79,11.01,4.41,16.69-2.6-3.27-4.46-7.57-5.32-12.44-.03-.16-.06-.31-.09-.47.39-1.34.71-2.61,1-3.79h0ZM829.87,1112.92c.73,2.18,1.27,4.52,1.73,6.88-.09-.14-.17-.29-.26-.44-.51-2.17-1-4.32-1.47-6.43h0ZM829.1,1110.82s.04.1.06.14l-3.42.71c.06-.86.13-1.73.2-2.58,1.06.58,2.11,1.16,3.17,1.73Z"/>
    <path class="cls-3" d="M960.24,1334.8l-3.25-3.42c6.09-5.79,14.57-22.94,20.19-34.28,1.47-2.97,2.77-5.58,3.81-7.57,8.24-15.76,9.7-35.23,3.89-52.05-7.39-21.38-26.11-39.95-55.65-55.2-8.74-4.51-17.92-8.6-26.81-12.57-15.83-7.05-32.18-14.34-46.8-24.32l-1.06-.71v-1.26c0,.11-.27-.11-.47-.29-.68-.56-1.18-.84-1.68-1.14-.39-.23-.78-.46-1.16-.7-2.87-1.91-7.39-7.46-12.63-13.88-4.79-5.86-10.22-12.52-12.69-14.01l2.42-4.05c3.19,1.91,8.4,8.3,13.93,15.08,4.38,5.36,9.33,11.43,11.59,12.94.3.2.61.39.93.57.71.41,1.43.86,2.07,1.38.83.67,1.81,1.47,2.24,2.74,14.06,9.46,29.9,16.52,45.24,23.35,8.94,3.99,18.19,8.1,27.06,12.68,30.66,15.83,50.15,35.29,57.95,57.86,6.23,18.03,4.66,38.88-4.16,55.77-1.03,1.97-2.31,4.55-3.75,7.47-6.1,12.34-14.47,29.24-21.17,35.6h-.04Z"/>
    <path class="cls-3" d="M978.98,1390.51c-16.34-7.15-28.8-23.15-31.74-40.75l4.66-.77c2.68,16.06,14.05,30.67,28.97,37.2l-1.9,4.32h0Z"/>
    <path class="cls-3" d="M928.31,1408.16c-.68-11.25,1.13-22.75,5.23-33.25.41-1.08.87-2.15,1.31-3.22,1.91-4.59,3.71-8.94,3.59-13.45l4.72-.11c.13,5.51-1.95,10.53-3.96,15.36-.43,1.04-.87,2.1-1.27,3.14-3.85,9.87-5.55,20.67-4.92,31.24l-4.72.29h.01Z"/>
    <path class="cls-3" d="M987.43,1359.42c-5.56,0-11.12-.86-16.38-2.54-4.11-1.31-7.17-2.88-9.62-4.92-2.62-2.2-3.19-7.96-3.62-14.71-.06-.98-.11-1.83-.19-2.42l4.69-.49c.07.66.13,1.55.2,2.62.16,2.51.64,10.17,1.95,11.38,1.97,1.64,4.52,2.92,8.03,4.05,6.67,2.14,13.86,2.82,20.85,1.95l.57,4.69c-2.14.26-4.31.39-6.47.39h0Z"/>
    <path class="cls-3" d="M972.94,1341.57h-.29c-6.62-.07-12.42-2.61-15.9-7l3.69-2.94c2.55,3.21,7.13,5.16,12.25,5.22,4.51-.04,9.18-1.24,14.6-3.2,5-1.8,10.24-3.94,14.67-7.3,4.58-3.49,7.6-7.93,8.51-12.52l4.63.93c-1.14,5.71-4.79,11.17-10.28,15.35-4.93,3.77-10.58,6.06-15.93,8-5.02,1.8-10.41,3.47-15.96,3.47h-.01Z"/>
  </g>
  <path class="cls-2" d="M1283.85,1428.17c3.42,2.07,7.24,4.02,11.21,3.55,6.8-.81,10.64-8.02,13.33-14.32,7.44-17.43,14.89-34.86,22.33-52.29,1.08-2.52,2.34-5.25,4.76-6.53,4.72-2.47,10.04,1.9,13.45,5.99,7.64,9.13,14.69,18.86,23.53,26.83s19.89,14.21,31.8,14.61c16.91.56,32.27-10.83,41.99-24.68,18.17-25.86,20.78-60.65,11.42-90.83-9.35-30.18-29.54-56.1-53.27-76.98-10.84-9.54-22.64-18.27-36.05-23.68-23.78-9.6-50.39-8.03-75.99-6.29-13.62.93-27.96,2.08-39.24,9.77-9.68,6.6-15.78,17.15-21.57,27.33-3.68,6.48-7.43,13.19-8.17,20.61-.63,6.3,1.03,12.65,3.41,18.51,7.14,17.5,21.3,32.02,38.63,39.58,6.25,2.72,12.98,4.64,18.41,8.74,5.43,4.11,9.35,11.33,7.07,17.74-1.9,5.35-7.31,8.47-12.31,11.13-7.87,4.19-15.73,8.39-23.6,12.58-18.41,9.81-22.7,22.22-11.45,39.45,10.35,15.85,24.01,29.38,40.25,39.17h.06Z"/>
  <circle class="cls-2" cx="1304.2" cy="1219.49" r="7.2"/>
  <circle class="cls-2" cx="1352.83" cy="1217.31" r="7.2"/>
  <circle class="cls-2" cx="1329.41" cy="1239.96" r="7.2"/>
  <circle class="cls-2" cx="1364.04" cy="1249.37" r="7.2"/>
  <path class="cls-2" d="M1713.69,945.76c-3.3.82-6.77,1.92-8.87,4.6-3.6,4.57-1.58,11.2.59,16.6,6,14.94,12,29.88,17.99,44.81.88,2.17,1.76,4.56,1.06,6.79-1.35,4.32-7.17,4.89-11.67,4.49-10.07-.9-20.15-2.5-30.25-1.98-10.1.52-20.48,3.41-27.86,10.33-10.5,9.83-12.87,25.88-10.4,40.05,4.62,26.44,23.94,48.9,47.69,61.42,23.75,12.52,51.44,15.95,78.23,14.24,12.24-.78,24.58-2.63,35.87-7.43,20.06-8.52,35.09-25.45,49.42-41.85,7.62-8.73,15.54-18.04,17.69-29.43,1.84-9.77-.82-19.78-3.46-29.38-1.69-6.1-3.46-12.39-7.48-17.28-3.42-4.17-8.21-6.98-13.17-9.08-14.8-6.22-32.03-6.44-46.97-.57-5.38,2.12-10.58,5.01-16.32,5.81-5.74.8-12.41-1.18-14.91-6.42-2.07-4.35-.7-9.47.7-14.08,2.21-7.25,4.41-14.48,6.62-21.73,5.17-16.95.29-26.98-16.82-30.57-15.73-3.31-32.08-3.22-47.7.66h.02Z"/>
  <circle class="cls-2" cx="1826.81" cy="1083.33" r="6.12" transform="translate(-230.97 1609.05) rotate(-45)"/>
  <circle class="cls-2" cx="1798.91" cy="1113.84" r="6.12" transform="translate(-260.71 1598.25) rotate(-45)"/>
  <circle class="cls-2" cx="1799.38" cy="1086.15" r="6.12" transform="translate(-241 1590.48) rotate(-45)"/>
  <circle class="cls-2" cx="1772.93" cy="1101.31" r="6.12" transform="translate(-259.46 1576.21) rotate(-45)"/>
  <g class="cls-1">
    <path class="cls-3" d="M1482.95,942.34c1.33,7.65,3.27,24.48,2.4,32.19-.87,7.72-4.25,15.48-10.61,19.91-5.4,3.77-12.23,4.71-18.78,5.43-91.56,10.33-185.12,2.58-273.74-22.64-3.95-1.13-8.08-2.4-10.89-5.39-3.22-3.44-4.04-8.42-4.51-13.11-1.8-17.96-.74-36.66,3.82-54.16,4.38-16.77,22.61-7.9,34.39-2.41,32.4,15.09,63.45,33.05,92.7,53.6,8.1,5.69,16.3,11.71,25.85,14.32,4.98,1.37,10.38,1.5,15.37.14,9.21-2.51,17.15-8.12,26.29-10.77,6.42-1.87,12.88-3.61,19.36-5.19,12.96-3.17,26.08-5.78,39.28-7.73,26.75-3.97,53.91-5.26,80.91-3.37,7.63-9.51,7.14-23.91.81-34.33-6.32-10.43-17.47-17.2-29.15-20.73-11.68-3.52-24-4.12-36.18-4.72-42.19-2.04-84.37-4.08-126.56-6.11-41.24-2-83.96-4.19-122.3-21.01-7.26-3.18-11.71-6.99-19.35-4.44-7.06,2.37-14.43,11.23-18.98,16.8-11.39,13.94-18.21,31.75-18.22,49.81,6.09,2.01,12.62-1.7,17.11-6.28,4.49-4.58,8.04-10.21,13.45-13.67,1.98-1.27,8.74-.9,10.91-1.48"/>
    <path class="cls-3" d="M1478.48,991.08c4.55-.14,8.95,11.25,8.95,15.8s-2.37,8.72-4.66,12.62c-8.2,13.94-17.2,28.64-31.75,35.67-14.57,7.05-31.67,4.95-47.8,3.51-69.41-6.18-141.76,2.58-206.97-22-9.58-3.61-19.66-8.64-23.93-17.96-4.41-9.61,1.04-33.34,4.18-43.43"/>
    <path class="cls-3" d="M1178.52,851c-13.69-17.23-14.93-47.03-4.92-66.63s28-33.98,47.1-44.89c37.1-21.18,80.42-31.34,123.08-28.81,42.65,2.51,84.48,17.67,118.85,43.08,19.65,14.52,37.47,33.34,44.13,56.86,6.66,23.52-2.89,67.41-23.97,79.79"/>
    <path class="cls-3" d="M1244.17,935.65c15.16,10.26,29.87,21.21,45.6,30.6,14.66,8.74,29.56,17.74,47.28,16.52,13.15-.91,25.41-6.58,37.74-11.2,35.13-13.19,72.78-18.47,110.24-20.7.83-2.64-1.01-5.52-3.47-6.79s-5.32-1.34-8.08-1.34c-38.34-.01-75.97,6.78-112.4,18.5-11.59,3.74-23.19,9.96-35.72,8.87-10.71-.91-19.96-7.52-28.77-13.68-31.2-21.82-64.24-41-98.67-57.23-4.78-2.25-9.81-4.51-15.1-4.31-5.63.21-15.78,6.19-6.53,8.87,8.08,2.34,16.06,4.05,23.9,7.26,15.6,6.36,30.04,15.23,43.96,24.65l.03-.03Z"/>
    <g>
      <ellipse class="cls-3" cx="1202.08" cy="801.14" rx="2.18" ry="5.45" transform="translate(-185.21 398.35) rotate(-17.49)"/>
      <ellipse class="cls-3" cx="1235.11" cy="814.5" rx="2.18" ry="5.45" transform="translate(-187.7 408.9) rotate(-17.49)"/>
      <ellipse class="cls-3" cx="1298.88" cy="797.27" rx="2.18" ry="5.45" transform="translate(-179.57 427.27) rotate(-17.49)"/>
      <ellipse class="cls-3" cx="1339.55" cy="797.27" rx="2.18" ry="5.45" transform="translate(-177.7 439.5) rotate(-17.49)"/>
      <ellipse class="cls-3" cx="1286.94" cy="766.46" rx="2.18" ry="5.45" transform="translate(-170.87 422.26) rotate(-17.49)"/>
      <ellipse class="cls-3" cx="1322.65" cy="767.98" rx="2.18" ry="5.45" transform="translate(-169.67 433.06) rotate(-17.49)"/>
      <ellipse class="cls-3" cx="1364.21" cy="766.46" rx="2.18" ry="5.45" transform="translate(-167.29 445.48) rotate(-17.49)"/>
      <ellipse class="cls-3" cx="1400.07" cy="766.46" rx="2.18" ry="5.45" transform="translate(-165.64 456.26) rotate(-17.49)"/>
      <ellipse class="cls-3" cx="1250.26" cy="766.44" rx="2.18" ry="5.45" transform="translate(-172.56 411.23) rotate(-17.49)"/>
      <ellipse class="cls-3" cx="1261.25" cy="792.03" rx="2.18" ry="5.45" transform="translate(-179.74 415.72) rotate(-17.49)"/>
      <ellipse class="cls-3" cx="1309.47" cy="741.42" rx="2.18" ry="5.45" transform="translate(-162.3 427.87) rotate(-17.49)"/>
      <ellipse class="cls-3" cx="1380.97" cy="745.15" rx="2.18" ry="5.45" transform="translate(-160.11 449.54) rotate(-17.49)"/>
      <ellipse class="cls-3" cx="1343.29" cy="739.91" rx="2.18" ry="5.45" transform="translate(-160.28 437.97) rotate(-17.49)"/>
      <ellipse class="cls-3" cx="1378.57" cy="797.26" rx="2.18" ry="5.45" transform="translate(-175.89 451.22) rotate(-17.49)"/>
      <ellipse class="cls-3" cx="1413.36" cy="792.03" rx="2.18" ry="5.45" transform="translate(-172.71 461.44) rotate(-17.49)"/>
      <ellipse class="cls-3" cx="1432.34" cy="767.98" rx="2.18" ry="5.45" transform="translate(-164.6 466.03) rotate(-17.49)"/>
      <ellipse class="cls-3" cx="1217.05" cy="773.23" rx="2.18" ry="5.45" transform="translate(-176.13 401.57) rotate(-17.49)"/>
      <ellipse class="cls-3" cx="1274.6" cy="818.62" rx="2.18" ry="5.45" transform="translate(-187.12 420.96) rotate(-17.49)"/>
      <ellipse class="cls-3" cx="1322.64" cy="818.63" rx="2.18" ry="5.45" transform="translate(-184.9 435.4) rotate(-17.49)"/>
      <ellipse class="cls-3" cx="1359.03" cy="821.97" rx="2.18" ry="5.45" transform="translate(-184.22 446.49) rotate(-17.49)"/>
      <ellipse class="cls-3" cx="1400.08" cy="817.87" rx="2.18" ry="5.45" transform="translate(-181.09 458.64) rotate(-17.49)"/>
      <ellipse class="cls-3" cx="1424.84" cy="814.5" rx="2.18" ry="5.45" transform="translate(-178.93 465.93) rotate(-17.49)"/>
      <ellipse class="cls-3" cx="1470.84" cy="817.86" rx="2.18" ry="5.45" transform="translate(-177.81 479.91) rotate(-17.49)"/>
      <ellipse class="cls-3" cx="1447.84" cy="817.86" rx="2.18" ry="5.45" transform="translate(-178.88 473) rotate(-17.49)"/>
      <ellipse class="cls-3" cx="1452.68" cy="797.27" rx="2.18" ry="5.45" transform="translate(-172.46 473.5) rotate(-17.49)"/>
    </g>
    <ellipse class="cls-3" cx="1189.74" cy="925.68" rx="1.73" ry="3.67" transform="translate(-223.21 400.38) rotate(-17.49)"/>
    <ellipse class="cls-3" cx="1187.74" cy="954.61" rx="1.73" ry="3.67" transform="translate(-232 401.12) rotate(-17.49)"/>
    <ellipse class="cls-3" cx="1203.15" cy="946.39" rx="1.73" ry="3.67" transform="translate(-228.81 405.37) rotate(-17.49)"/>
    <ellipse class="cls-3" cx="1218" cy="934.59" rx="1.73" ry="3.67" transform="translate(-224.58 409.28) rotate(-17.49)"/>
    <ellipse class="cls-3" cx="1212.07" cy="962.27" rx="1.73" ry="3.67" transform="translate(-233.17 408.78) rotate(-17.49)"/>
    <ellipse class="cls-3" cx="1235.65" cy="951.07" rx="1.73" ry="3.67" transform="translate(-228.72 415.35) rotate(-17.49)"/>
    <ellipse class="cls-3" cx="1467.83" cy="963.8" rx="1.73" ry="3.67" transform="translate(-221.81 485.72) rotate(-17.49)"/>
    <ellipse class="cls-3" cx="1459.74" cy="983.74" rx="1.73" ry="3.67" transform="translate(-228.18 484.21) rotate(-17.49)"/>
    <ellipse class="cls-3" cx="1452.9" cy="969.4" rx="1.73" ry="3.67" transform="translate(-224.18 481.49) rotate(-17.49)"/>
    <ellipse class="cls-3" cx="1439.18" cy="982.8" rx="1.73" ry="3.67" transform="translate(-228.84 477.99) rotate(-17.49)"/>
    <ellipse class="cls-3" cx="1432.35" cy="966.77" rx="1.73" ry="3.67" transform="translate(-224.34 475.2) rotate(-17.49)"/>
    <ellipse class="cls-3" cx="1419.56" cy="986.34" rx="1.73" ry="3.67" transform="translate(-230.81 472.26) rotate(-17.49)"/>
    <ellipse class="cls-3" cx="1405.56" cy="972.2" rx="1.73" ry="3.67" transform="translate(-227.21 467.4) rotate(-17.49)"/>
    <ellipse class="cls-3" cx="1396.26" cy="990.8" rx="1.73" ry="3.67" transform="translate(-233.23 465.46) rotate(-17.49)"/>
    <ellipse class="cls-3" cx="1368.58" cy="989.9" rx="1.73" ry="3.67" transform="translate(-234.24 457.1) rotate(-17.49)"/>
    <ellipse class="cls-3" cx="1231.58" cy="975.26" rx="1.73" ry="3.67" transform="translate(-236.17 415.25) rotate(-17.49)"/>
    <ellipse class="cls-3" cx="1254" cy="958.14" rx="1.73" ry="3.67" transform="translate(-229.99 421.19) rotate(-17.49)"/>
    <ellipse class="cls-3" cx="1253.06" cy="980.82" rx="1.73" ry="3.67" transform="translate(-236.85 421.96) rotate(-17.49)"/>
    <ellipse class="cls-3" cx="1271.99" cy="975.25" rx="1.73" ry="3.67" transform="translate(-234.31 427.39) rotate(-17.49)"/>
    <ellipse class="cls-3" cx="1290.7" cy="982.8" rx="1.73" ry="3.67" transform="translate(-235.71 433.36) rotate(-17.49)"/>
    <ellipse class="cls-3" cx="1313.71" cy="992.27" rx="1.73" ry="3.67" transform="translate(-237.49 440.72) rotate(-17.49)"/>
    <ellipse class="cls-3" cx="1340.16" cy="990.8" rx="1.73" ry="3.67" transform="translate(-235.83 448.6) rotate(-17.49)"/>
    <ellipse class="cls-3" cx="1381.1" cy="978.8" rx="1.73" ry="3.67" transform="translate(-230.33 460.35) rotate(-17.49)"/>
  </g>
  <g class="cls-1">
    <path class="cls-3" d="M1691.39,168.86c-4.18-24.73.84-52.01,17.88-70.42,9.7-10.47,22.5-17.43,35.05-24.19,13.65-7.36,27.28-14.71,40.92-22.07,6.69-3.61,13.52-7.32,18.67-12.92,8.57-9.34,11.26-22.49,13.62-34.96,9.58,7.73,13.9,21.42,10.47,33.26,12.19-11.44,24.38-22.87,36.57-34.31,1,14.44-2.12,29.13-8.91,41.91,14.27-4.99,27.76-12.24,39.81-21.41-8.88,13.22-9.87,30.48-6.49,46.06,3.38,15.58,10.69,29.95,17.51,44.36,6.8,14.41,13.25,29.36,14.7,45.23,1.74,19.16-4.06,38.5-13.9,55.02-18.85,31.65-53.09,53.62-89.7,57.57-23.9,2.57-48.44-2.58-69.57-13.94-21.35-11.47-30.86-26.17-41.75-47.09-6.9-13.25-12.36-27.34-14.86-42.12h-.01Z"/>
    <path class="cls-3" d="M1711.74,189.53c8.7,16.63,20.88,31.45,35.51,43.21"/>
    <path class="cls-3" d="M1718.84,182.63c7.17,7.37,14.34,14.76,21.5,22.14,3.66,3.78,7.67,7.75,12.83,8.77"/>
    <path class="cls-3" d="M1717.08,164.47c11.99,7.86,22.32,18.26,30.12,30.3"/>
    <path class="cls-3" d="M1728.01,154.23c7.74,4.69,14.54,10.93,19.88,18.26"/>
    <path class="cls-3" d="M1741.02,146.55c3.22,2.25,6.45,4.51,9.67,6.76"/>
  </g>
  <g class="cls-1">
    <path class="cls-3" d="M421.15,779.47l20.9,8.46s9.88,2.01,3.39-5.53c-6.49-7.53-17.18-24.05-17.18-24.05"/>
    <path class="cls-3" d="M339.12,633.56s5.93,41.34,9.55,44.48l1.6,1.36s.71-1.04,1.88-2.6c1.28-1.71,3.12-4.05,5.19-6.35,3.56-3.97,7.79-7.83,11.02-8.19,0,0-7.7,3.04-10.44,8.03l-5.48,6.72-3.31,3.32s-8.84,6.36-8.9,10.8c-.06,4.44-.34,17.86-.34,17.86l.09,8.03s8.13-19.84,19.34-8.23c11.21,11.6,17.25,14.39,17.25,14.39"/>
    <path class="cls-3" d="M251.09,653.72c-3.74-1.63-7.77-2.88-11.82-3.38-9.41-1.16-16.33,6.69-22.6,12.52-3.59,3.34-7.12,6.76-10.37,10.44-2.12,2.4-4.95,5.25-5.83,8.43-1.83,6.56-3.82,17.79,2.5,35.46,1,2.78,2.12,5.75,3.32,8.77,6.39,16.12,14.66,33.71,14.66,33.71,1.67,3.54-.04,12.74.14,17,.27,6.32.83,12.62,1.8,18.87,1.9,12.31,5.42,24.52,11.65,35.37,6.03,10.48,13.97,19.74,22.23,28.51,4.86,5.16,9.62,10.57,15.36,14.78,3.54,2.58,8.27,3.92,12.29,6.03,4.73,2.5,7.89,6.35,11.62,10.07,0,0,4.29,6.29,4.75-4.14s-2.69-41.38-4.55-44.18,1.24-2.7,1.24-2.7c0,0,4.26,3.2,4.52,1.93.27-1.27,1.07-31.84-.37-34.36s30.81,37.97,57.39,48.95c26.58,10.98,36,9.47,36,9.47,8.27-.5,18.32-3.11,26.51-1.61,4.05.73,7.16,3.72,10.39,6.33,8.7,7.03,19.11,16.09,22.14,27.33,0,0,20.25-1.84,28.4-28.76,0,0-24.18,9.34-27.59,25.86l-.5,2.44-.31.46"/>
    <path class="cls-3" d="M482.46,868.61c-7.39-2.25-13.97-7.37-19.92-12.14-3.02-2.42-5.96-4.95-8.83-7.56-1.51-1.37-3.51-2.57-4.92-4.18-1.84-2.11-1.7-3.91-1.83-6.53-.31-6.06-.44-12.15-.51-18.23-.17-15.78-9.54-22.71-17.51-31.92-7.97-9.21-35.59-37.86-35.59-37.86l-16.75-27.07,30,20.8s31.06,21.64,48.04,29.7c16.98,8.06,39.17,9.51,57.09,7.42,17.92-2.1-.11-10.56-.11-10.56,0,0-5.1-3.11-17.64-10.58-12.53-7.47-46.7-42.38-46.7-42.38,0,0-24.77-25.29-42.46-41.37-17.7-16.08-36.6-13.34-36.6-13.34,3.51-14.12,18.37-19.63,18.37-19.63,19.48,4.29,21.23,36.94,21.23,36.94l4.12,3.05-.19-4.22c1.17-9.71-4.85-20.03-9.68-27.99-2.58-4.24-5.38-8.34-8.33-12.34-1.65-2.24-3.32-5.06-5.4-6.95-1.5-1.37-3.94-1.1-5.8-1.44-2.25-.41-4.51-.87-6.73-1.37-5.45-1.21-10.87-2.67-16.1-4.64-4.95-1.87-10.08-.78-14.26,2.31-1.58,1.18-3.01,2.58-4.26,4.09-.61.76-1.1,2.13-2,2.52-.34-1.26-.07-2.98-.07-4.31v-6.55c0-2.82.3-5.83,0-8.63-.66-6.02.31-12.38.98-18.36,1.07-9.57,2.48-19.1,3.96-28.6,1.6-10.18,3.31-20.35,5.09-30.51,1.41-8.03,2.85-16.06,4.35-24.08.27-1.45.54-2.92.81-4.38.46-2.42,1.03-5.09-.09-7.42-.74-1.57-1.63-3.07-2.65-4.46-2.84-3.88-6.79-6.89-11.51-8.02-2.14-.51-4.35-.63-6.53-.43-16.45,1.44-44.02,30.61-44.02,30.61-51.15,61.95-36.45,172.2-36.45,172.2l-10.35,12.15-15.36-14.41c-26.38-18.94-20.16,30.64-20.16,30.64l1.27,12.75,12.46,28.29s10.91-46.16,21.17-54.3l.77-2.7-.16-.26"/>
    <path class="cls-3" d="M253.08,690.25s36.89.87,53.04,10.14c16.14,9.26,32.88,33.59,32.88,33.59l1.01-16.97"/>
    <path class="cls-3" d="M295.64,840.33s-17.51-44.46-14.1-67.88l20.08,34.43-20.08-34.43s4.93-65.67,39.01-57.17l8.95,8.36,30.2,40.44s50.35,68,65.21,74.87"/>
    <path class="cls-3" d="M360.2,666.78c1-2.62,1.21-5.48,1.95-8.19,1.34-4.88,4.41-9.2,8.27-12.47s8.48-5.56,13.29-7.17c1.9-.63,3.85-1.17,5.85-1.17s4.06.6,5.5,1.97"/>
    <path class="cls-3" d="M374.98,688.25c10.91,3.78,17.82,14.21,26.56,21.74,5.53,4.78,11.93,8.47,17.38,13.35,4.68,4.19,8.57,9.2,13.03,13.62,4.46,4.42,9.74,8.37,15.88,9.67"/>
    <path class="cls-3" d="M462.09,754.69c3.24,2.04,6.47,4.09,9.71,6.13"/>
    <path class="cls-3" d="M266.41,838.34c6.74,7.83,11.89,17.02,15.06,26.86"/>
    <path class="cls-3" d="M267.35,707.68c-1.24,4.44-3.59,8.47-5.73,12.55-8.07,15.29-13.66,32.07-14.87,49.31-1.21,17.25,2.15,35,10.89,49.92"/>
    <path class="cls-3" d="M285.23,536.96s18.32-32.58,45.9-43.31"/>
  </g>
  <path class="cls-2" d="M491.86,1506.88c6.09,2.91,12.36,5.35,18.91,7.09,3.72.98,7.6,1.78,10.78,3.94,7.09,4.79,8.5,14.69,7.53,23.19-2.55,22.34-16.87,41.99-34.55,55.87-17.68,13.88-38.66,22.82-59.35,31.61-19.73,8.37-39.48,16.76-59.22,25.13-9.33,3.95-21.84,7.22-28.16-.7-3.86-4.84-3.31-11.88-1.35-17.76,1.97-5.88,5.13-11.41,5.99-17.54,1.87-13.35-9.71-26.99-23.2-27.3-8.2-.2-15.86,3.77-23.9,5.39-8.03,1.63-18.14-.21-21.27-7.79-3.75-9.06,4.89-18.13,12.63-24.15-9.44-.56-21.55-3.51-22.47-12.92-.71-7.25,6.29-12.85,12.99-15.72,6.7-2.87,14.4-4.92,18.55-10.91,6.76-9.77-.37-23.49-9.78-30.74-9.94-7.66-22.51-11.85-35.06-11.7-6.89.09-13.73,1.44-20.6,1.06s-14.14-2.9-17.9-8.66c-3.76-5.76-2.05-15.09,4.43-17.39-5.13,3.59-13.2,1.81-16.34-3.62-3.14-5.43-.66-13.31,5.02-15.98-1.91-.26-3.81-.5-5.72-.76-.09-2.27-.16-4.52-.24-6.79-15.26,2.8-31.38.57-45.32-6.23,10.45-10.36,25.94-13.18,40.28-16.43,14.34-3.25,29.83-8.37,37.4-21,7.29-12.12,4.08-24.88,1.95-37.83-2.11-12.82,7.69-19.34,20.72-14.41,7.97,3.02,13.95,9.61,19.79,15.83,39.24,41.78,85.92,75.76,132.95,108.52,12.72,8.86,25.47,17.64,38.23,26.43,9.74,6.7,30.46,14.59,36.22,24.48,6.86,11.77.27,30.4-6.73,40.37-8.34,11.88-20.65,20.33-33.04,27.9-32.54,19.87-67.63,35.56-104.13,46.54"/>
  <path class="cls-2" d="M404.02,1494.6c-11.07.97-24.35-5.16-28.89-16.96-.48-1.27-4.83-13.11,2.14-21.77,4.91-6.11,12.41-6.88,14.8-7.13,11.31-1.17,24.3,5.38,28.89,16.96.57,1.44,5.08,13.32-1.81,21.9-4.89,6.09-12.52,6.76-15.14,6.99h.01Z"/>
  <path class="cls-2" d="M310.98,1442.71c-11.07.97-24.35-5.16-28.89-16.96-.48-1.27-4.83-13.11,2.14-21.77,4.91-6.11,12.41-6.88,14.8-7.13,11.31-1.17,24.3,5.38,28.89,16.96.57,1.44,5.08,13.32-1.81,21.9-4.89,6.09-12.52,6.76-15.14,6.99h.01Z"/>
  <path class="cls-2" d="M388.59,1578.22c-11.88,1.04-26.14-5.55-31.01-18.2-.53-1.37-5.19-14.06,2.3-23.36,5.28-6.55,13.32-7.39,15.9-7.65,12.13-1.26,26.08,5.78,31.01,18.2.61,1.54,5.45,14.31-1.94,23.51-5.25,6.55-13.45,7.26-16.26,7.5Z"/>
  <ellipse class="cls-2" cx="310.45" cy="1413.25" rx="1.68" ry="3.44" transform="translate(-1135.42 1357.23) rotate(-75.39)"/>
  <ellipse class="cls-2" cx="307.03" cy="1427.46" rx="1.68" ry="3.44" transform="translate(-1151.72 1364.55) rotate(-75.39)"/>
  <ellipse class="cls-2" cx="294.16" cy="1420.96" rx="1.68" ry="3.44" transform="translate(-1155.05 1347.24) rotate(-75.39)"/>
  <ellipse class="cls-2" cx="393.01" cy="1465.87" rx="1.68" ry="3.44" transform="translate(-1124.58 1476.48) rotate(-75.39)"/>
  <ellipse class="cls-2" cx="369.45" cy="1551.09" rx="1.68" ry="3.44" transform="translate(-1224.67 1517.4) rotate(-75.39)"/>
  <ellipse class="cls-2" cx="376.17" cy="1563.22" rx="1.68" ry="3.44" transform="translate(-1231.39 1532.98) rotate(-75.39)"/>
  <ellipse class="cls-2" cx="385.58" cy="1552.84" rx="1.68" ry="3.44" transform="translate(-1214.31 1534.32) rotate(-75.39)"/>
  <ellipse class="cls-2" cx="398.35" cy="1556.46" rx="1.68" ry="3.44" transform="translate(-1208.26 1549.39) rotate(-75.39)"/>
  <ellipse class="cls-2" cx="384.28" cy="1540.54" rx="1.68" ry="3.44" transform="translate(-1203.38 1523.86) rotate(-75.39)"/>
  <ellipse class="cls-2" cx="408.62" cy="1470.77" rx="1.68" ry="3.44" transform="translate(-1117.66 1495.25) rotate(-75.39)"/>
  <ellipse class="cls-2" cx="396.76" cy="1480.22" rx="1.68" ry="3.44" transform="translate(-1135.67 1490.83) rotate(-75.39)"/>
  <g class="cls-1">
    <path class="cls-3" d="M1865.57,462.4l-172.33,197.46s124.05,95.98,197.39-3.67c73.33-99.65-4.28-188.29-25.05-193.79h0Z"/>
    <path class="cls-3" d="M1701.85,649.98s113.62,63.66,169.83-11.53c56.22-75.19,12.88-136.59-15.87-164.88l-153.97,176.42h.01Z"/>
    <ellipse class="cls-3" cx="1748" cy="645.25" rx="7.84" ry="3.57" transform="translate(55.93 1425.47) rotate(-45.02)"/>
    <ellipse class="cls-3" cx="1774.29" cy="652.59" rx="6.42" ry="2.85" transform="translate(58.44 1446.2) rotate(-45.02)"/>
    <ellipse class="cls-3" cx="1801.66" cy="636.48" rx="6.42" ry="2.85" transform="translate(77.85 1460.84) rotate(-45.02)"/>
    <ellipse class="cls-3" cx="1823.35" cy="614.8" rx="6.42" ry="2.85" transform="translate(99.55 1469.83) rotate(-45.02)"/>
    <ellipse class="cls-3" cx="1843.49" cy="591.35" rx="6.42" ry="2.85" transform="translate(122.03 1477.2) rotate(-45.02)"/>
    <ellipse class="cls-3" cx="1861.65" cy="570.14" rx="6.42" ry="2.85" transform="translate(142.36 1483.83) rotate(-45.02)"/>
    <ellipse class="cls-3" cx="1873.75" cy="558.04" rx="6.42" ry="2.85" transform="translate(154.46 1488.84) rotate(-45.02)"/>
    <ellipse class="cls-3" cx="1769.33" cy="621.64" rx="7.84" ry="3.57" transform="translate(78.88 1433.63) rotate(-45.02)"/>
    <ellipse class="cls-3" cx="1789.42" cy="603.84" rx="7.84" ry="3.57" transform="translate(97.36 1442.63) rotate(-45.02)"/>
    <ellipse class="cls-3" cx="1809.01" cy="579.93" rx="7.84" ry="3.57" transform="translate(120.01 1449.47) rotate(-45.02)"/>
    <ellipse class="cls-3" cx="1826.31" cy="558.05" rx="7.84" ry="3.57" transform="translate(140.56 1455.3) rotate(-45.02)"/>
    <ellipse class="cls-3" cx="1845.73" cy="541.14" rx="7.84" ry="3.57" transform="translate(158.21 1464.08) rotate(-45.02)"/>
    <ellipse class="cls-3" cx="1861.66" cy="525.23" rx="7.84" ry="3.57" transform="translate(174.13 1470.68) rotate(-45.02)"/>
  </g>
  <g class="cls-1">
    <path class="cls-3" d="M1455.71,1677.4l-172.33,197.46s124.05,95.98,197.39-3.67c73.33-99.65-4.28-188.29-25.05-193.79h0Z"/>
    <path class="cls-3" d="M1291.99,1864.98s113.62,63.66,169.83-11.53c56.22-75.19,12.88-136.59-15.87-164.88l-153.97,176.42h.01Z"/>
    <ellipse class="cls-3" cx="1338.14" cy="1860.25" rx="7.84" ry="3.57" transform="translate(-923.56 1491.67) rotate(-45.02)"/>
    <ellipse class="cls-3" cx="1364.43" cy="1867.59" rx="6.42" ry="2.85" transform="translate(-921.04 1512.41) rotate(-45.02)"/>
    <ellipse class="cls-3" cx="1391.8" cy="1851.48" rx="6.42" ry="2.85" transform="translate(-901.63 1527.04) rotate(-45.02)"/>
    <ellipse class="cls-3" cx="1413.49" cy="1829.8" rx="6.42" ry="2.85" transform="translate(-879.94 1536.03) rotate(-45.02)"/>
    <ellipse class="cls-3" cx="1433.63" cy="1806.35" rx="6.42" ry="2.85" transform="translate(-857.45 1543.4) rotate(-45.02)"/>
    <ellipse class="cls-3" cx="1451.79" cy="1785.14" rx="6.42" ry="2.85" transform="translate(-837.13 1550.04) rotate(-45.02)"/>
    <ellipse class="cls-3" cx="1463.89" cy="1773.04" rx="6.42" ry="2.85" transform="translate(-825.03 1555.04) rotate(-45.02)"/>
    <ellipse class="cls-3" cx="1359.47" cy="1836.64" rx="7.84" ry="3.57" transform="translate(-900.61 1499.84) rotate(-45.02)"/>
    <ellipse class="cls-3" cx="1379.56" cy="1818.84" rx="7.84" ry="3.57" transform="translate(-882.13 1508.83) rotate(-45.02)"/>
    <ellipse class="cls-3" cx="1399.15" cy="1794.93" rx="7.84" ry="3.57" transform="translate(-859.48 1515.68) rotate(-45.02)"/>
    <ellipse class="cls-3" cx="1416.45" cy="1773.05" rx="7.84" ry="3.57" transform="translate(-838.93 1521.51) rotate(-45.02)"/>
    <ellipse class="cls-3" cx="1435.88" cy="1756.14" rx="7.84" ry="3.57" transform="translate(-821.28 1530.29) rotate(-45.02)"/>
    <ellipse class="cls-3" cx="1451.8" cy="1740.23" rx="7.84" ry="3.57" transform="translate(-805.36 1536.89) rotate(-45.02)"/>
  </g>
</svg>