<?xml version="1.0" encoding="UTF-8"?>
<svg id="Layer_1" data-name="Layer 1" xmlns="http://www.w3.org/2000/svg" viewBox="0 0 1009 560.56">
  <defs>
    <style>
      .cls-1 {
        fill-rule: evenodd;
      }

      .cls-1, .cls-2 {
        fill: #7c170f;
      }

      .cls-3 {
        isolation: isolate;
      }
    </style>
  </defs>
  <g class="cls-3">
    <g>
      <g>
        <path class="cls-2" d="M28.17,118.16c7.63-5.71,8.07-8.18,8.65-11.51.79-4.48,1.83-10.37,17.41-25.48,15.77-15.29,13.03-21.24,10.27-27.21-2.29-4.97-4.59-9.95,1.65-19.2,6.15-9.11,2.36-13.01-1.49-16.96C60.55,13.57,56.37,9.28,61.52,0h2.24c-5.2,8.76-1.43,12.64,2.3,16.46,4.39,4.51,8.73,8.97,1.7,19.38-5.63,8.35-3.56,12.84-1.5,17.31,3.04,6.59,6.07,13.16-10.68,29.4-15.15,14.68-16.12,20.23-16.87,24.44-.8,4.56-1.66,7.07-10.8,13.74l-3.93,39.57-3.53-.17,4.89-41.48c-13.61-16.64,4.05-9.4-16.58-41.49C-3.85,57.53.59,51.83,5.05,46.1c3.03-3.89,6.07-7.79,2.48-17.2-4.48-11.74.76-15.09,6.07-18.48C17.2,8.12,20.82,5.8,20.57,0h2.02c.38,6.71-3.81,9.39-7.95,12.04-4.64,2.97-9.22,5.9-5.3,16.17,3.97,10.42.6,14.75-2.76,19.07-4.04,5.19-8.07,10.36,3.81,28.83,20.14,31.32,4.72,26.15,15.28,39.85L39.34,0h.56l-11.72,118.16Z"/>
        <path class="cls-1" d="M42.11,8.25s1.18-3.46,3.88-8.25h1.12c-1.85,2.73-3.59,5.54-5,8.25Z"/>
        <path class="cls-1" d="M38.92,49.57s5.5-16.11,19.93-26.99c0,0-13.45,14.49-19.93,26.99Z"/>
        <path class="cls-1" d="M35.74,90.89s5.5-16.11,19.93-26.99c0,0-13.45,14.49-19.93,26.99h0Z"/>
        <path class="cls-1" d="M36.09.51s-.03-.18-.09-.51h-.07c.05.17.11.34.16.51Z"/>
        <path class="cls-1" d="M28.25,46.61s-2.23-15.26-13.28-27.32c0,0,9.58,15.13,13.28,27.32h0Z"/>
        <path class="cls-1" d="M23.76,84.59s-2.23-15.26-13.28-27.33c0,0,9.58,15.13,13.28,27.33Z"/>
      </g>
      <g>
        <path class="cls-2" d="M217.44,0c-.66.33-1.26.7-1.9,1.11-3.85,2.42-8.92,5.6-30.58,4.18-21.92-1.44-24.49,4.58-27.07,10.63-2.15,5.03-4.3,10.08-15.34,11.65-10.89,1.55-11.23,6.98-11.58,12.48-.44,6.89-.88,13.88-17.15,15.18-16.23,1.3-17.59,8.86-18.98,16.58-1.11,6.2-2.24,12.49-10.02,16.28-15.23,7.44-11.76,21.62-11.12,23.82,1.86,1.31,14.16,9.22,26.15-2.8,6.11-6.12,12.43-5.15,18.65-4.2,7.75,1.19,15.35,2.35,21.84-12.58,6.5-14.97,13.26-13.13,19.92-11.31,5.31,1.45,10.56,2.88,15.55-6.91,5.07-9.94,10.54-10.34,15.99-10.74,6.56-.48,13.1-.97,18.83-22.16,9.72-35.94,16.23-21.04,19.31-38.07l-119.56,84.96L229.61,0h4.73l-2.21,1.57c-3.21,21.25-9.69,3.3-19.65,40.13-6.09,22.52-13.3,23.05-20.54,23.58-4.92.36-9.85.73-14.42,9.7-5.7,11.19-11.7,9.56-17.78,7.9-5.86-1.6-11.81-3.22-17.65,10.21-7.08,16.3-15.4,15.02-23.89,13.72-5.75-.88-11.58-1.77-17,3.66-14.19,14.22-28.87,2.83-28.91,2.79-.29-.22-.21-.11-.33-.47-.02-.05-6.04-17.63,12.01-26.45,6.89-3.37,7.94-9.17,8.97-14.89,1.52-8.46,3.01-16.74,20.72-18.16,14.61-1.17,15-7.32,15.38-13.39.4-6.28.79-12.49,13.23-14.26,9.97-1.42,11.91-5.97,13.85-10.5,2.85-6.68,5.69-13.33,28.96-11.8,19.47,1.28,25.01-1.18,28.6-3.36h3.76Z"/>
        <path class="cls-1" d="M139.01,63.19s-15.64,6.73-33.38,3.32c0,0,19.77.25,33.38-3.32Z"/>
        <path class="cls-1" d="M171.79,37.84s-15.64,6.73-33.39,3.32c0,0,19.77.25,33.39-3.32Z"/>
        <path class="cls-1" d="M204.58,12.49s-15.64,6.73-33.39,3.32c0,0,19.77.25,33.39-3.32Z"/>
        <path class="cls-1" d="M137.31,72.84s-9.82,11.89-11.36,28.18c0,0,4.8-17.25,11.36-28.18Z"/>
        <path class="cls-1" d="M176.76,47.74s-9.82,11.89-11.36,28.18c0,0,4.8-17.25,11.36-28.18h0Z"/>
        <path class="cls-1" d="M207.93,25.59s-9.82,11.89-11.36,28.18c0,0,4.8-17.25,11.36-28.18h0Z"/>
      </g>
      <g>
        <path class="cls-2" d="M286.08,118.16c7.63-5.71,8.07-8.18,8.65-11.51.79-4.48,1.83-10.37,17.41-25.48,15.77-15.29,13.03-21.24,10.27-27.21-2.29-4.97-4.59-9.95,1.65-19.2,6.15-9.11,2.36-13.01-1.49-16.96C318.46,13.57,314.28,9.28,319.43,0h2.24c-5.2,8.76-1.43,12.64,2.3,16.46,4.39,4.51,8.73,8.97,1.7,19.38-5.63,8.35-3.56,12.84-1.5,17.31,3.04,6.59,6.07,13.16-10.68,29.4-15.15,14.68-16.13,20.23-16.87,24.44-.8,4.56-1.66,7.07-10.8,13.74l-3.93,39.57-3.53-.17,4.89-41.48c-13.61-16.64,4.05-9.4-16.58-41.49-12.62-19.62-8.17-25.32-3.71-31.05,3.03-3.89,6.07-7.79,2.48-17.2-4.48-11.74.76-15.09,6.07-18.48,3.59-2.3,7.22-4.62,6.97-10.42h2.02c.38,6.71-3.81,9.39-7.96,12.04-4.64,2.97-9.22,5.9-5.3,16.17,3.97,10.42.6,14.75-2.76,19.07-4.04,5.19-8.07,10.36,3.81,28.83,20.14,31.32,4.72,26.15,15.28,39.85L297.25,0h.56l-11.72,118.16h0Z"/>
        <path class="cls-1" d="M300.02,8.25s1.18-3.46,3.88-8.25h1.11c-1.85,2.73-3.59,5.54-5,8.25h0Z"/>
        <path class="cls-1" d="M296.83,49.57s5.5-16.11,19.93-26.99c0,0-13.45,14.49-19.93,26.99Z"/>
        <path class="cls-1" d="M293.65,90.89s5.5-16.11,19.93-26.99c0,0-13.45,14.49-19.93,26.99h0Z"/>
        <path class="cls-1" d="M294,.51s-.03-.18-.09-.51h-.07c.05.17.11.34.16.51Z"/>
        <path class="cls-1" d="M286.16,46.61s-2.23-15.26-13.28-27.32c0,0,9.58,15.13,13.28,27.32Z"/>
        <path class="cls-1" d="M281.67,84.59s-2.23-15.26-13.28-27.33c0,0,9.58,15.13,13.28,27.33Z"/>
      </g>
      <g>
        <path class="cls-2" d="M475.35,0c-.66.33-1.26.7-1.9,1.11-3.85,2.42-8.92,5.6-30.58,4.18-21.92-1.44-24.49,4.58-27.07,10.63-2.15,5.03-4.3,10.08-15.34,11.65-10.89,1.55-11.23,6.98-11.58,12.48-.44,6.89-.88,13.88-17.15,15.18-16.23,1.3-17.59,8.86-18.98,16.58-1.11,6.2-2.24,12.49-10.02,16.28-15.23,7.44-11.76,21.62-11.12,23.82,1.86,1.31,14.16,9.22,26.15-2.8,6.11-6.12,12.43-5.15,18.65-4.2,7.75,1.19,15.35,2.35,21.84-12.58,6.5-14.97,13.26-13.13,19.92-11.31,5.31,1.45,10.56,2.88,15.55-6.91,5.07-9.94,10.54-10.34,15.99-10.74,6.56-.48,13.1-.97,18.83-22.16,9.72-35.94,16.23-21.04,19.31-38.07l-119.56,84.96L487.52,0h4.73l-2.21,1.57c-3.21,21.25-9.69,3.3-19.65,40.13-6.09,22.52-13.3,23.05-20.54,23.58-4.92.36-9.85.73-14.42,9.7-5.71,11.19-11.7,9.56-17.78,7.9-5.86-1.6-11.81-3.22-17.65,10.21-7.08,16.3-15.4,15.02-23.89,13.72-5.75-.88-11.58-1.77-17,3.66-14.19,14.22-28.87,2.83-28.91,2.79-.29-.22-.21-.11-.33-.47-.02-.05-6.04-17.63,12.01-26.45,6.89-3.37,7.94-9.17,8.97-14.89,1.52-8.46,3.01-16.74,20.72-18.16,14.61-1.17,15-7.32,15.38-13.39.4-6.28.79-12.49,13.23-14.26,9.97-1.42,11.91-5.97,13.85-10.5,2.85-6.68,5.69-13.33,28.96-11.8,19.47,1.28,25.01-1.18,28.59-3.36h3.76,0Z"/>
        <path class="cls-1" d="M396.92,63.19s-15.64,6.73-33.39,3.32c0,0,19.77.25,33.39-3.32Z"/>
        <path class="cls-1" d="M429.7,37.84s-15.64,6.73-33.39,3.32c0,0,19.77.25,33.39-3.32Z"/>
        <path class="cls-1" d="M462.49,12.49s-15.64,6.73-33.39,3.32c0,0,19.77.25,33.39-3.32Z"/>
        <path class="cls-1" d="M395.22,72.84s-9.82,11.89-11.36,28.18c0,0,4.8-17.25,11.36-28.18Z"/>
        <path class="cls-1" d="M434.67,47.74s-9.82,11.89-11.36,28.18c0,0,4.8-17.25,11.36-28.18h0Z"/>
        <path class="cls-1" d="M465.84,25.59s-9.82,11.89-11.36,28.18c0,0,4.8-17.25,11.36-28.18h0Z"/>
      </g>
      <g>
        <path class="cls-2" d="M544,118.16c7.63-5.71,8.07-8.18,8.65-11.51.79-4.48,1.83-10.37,17.42-25.48,15.77-15.29,13.03-21.24,10.27-27.21-2.29-4.97-4.59-9.95,1.65-19.2,6.15-9.11,2.36-13.01-1.49-16.96-4.13-4.24-8.3-8.53-3.16-17.81h2.24c-5.2,8.76-1.43,12.64,2.3,16.46,4.39,4.51,8.73,8.97,1.7,19.38-5.63,8.35-3.56,12.84-1.5,17.31,3.04,6.59,6.07,13.16-10.68,29.4-15.15,14.68-16.12,20.23-16.87,24.44-.8,4.56-1.66,7.07-10.8,13.74l-3.93,39.57-3.53-.17,4.89-41.48c-13.61-16.64,4.05-9.4-16.58-41.49-12.62-19.62-8.17-25.32-3.71-31.05,3.03-3.89,6.07-7.79,2.48-17.2-4.48-11.74.76-15.09,6.07-18.48,3.59-2.3,7.22-4.62,6.97-10.42h2.02c.38,6.71-3.81,9.39-7.96,12.04-4.64,2.97-9.22,5.9-5.3,16.17,3.97,10.42.6,14.75-2.76,19.07-4.04,5.19-8.07,10.36,3.81,28.83,20.14,31.32,4.72,26.15,15.28,39.85L555.16,0h.55l-11.72,118.16h0Z"/>
        <path class="cls-1" d="M557.93,8.25s1.18-3.46,3.88-8.25h1.11c-1.85,2.73-3.59,5.54-5,8.25Z"/>
        <path class="cls-1" d="M554.74,49.57s5.5-16.11,19.93-26.99c0,0-13.45,14.49-19.93,26.99Z"/>
        <path class="cls-1" d="M551.56,90.89s5.5-16.11,19.93-26.99c0,0-13.45,14.49-19.93,26.99h0Z"/>
        <path class="cls-1" d="M551.91.51s-.03-.18-.09-.51h-.07c.05.17.11.34.16.51Z"/>
        <path class="cls-1" d="M544.07,46.61s-2.24-15.26-13.28-27.32c0,0,9.58,15.13,13.28,27.32Z"/>
        <path class="cls-1" d="M539.58,84.59s-2.23-15.26-13.28-27.33c0,0,9.58,15.13,13.28,27.33Z"/>
      </g>
      <g>
        <path class="cls-2" d="M733.26,0c-.66.33-1.26.7-1.9,1.11-3.85,2.42-8.92,5.6-30.58,4.18-21.92-1.44-24.49,4.58-27.07,10.63-2.15,5.03-4.3,10.08-15.34,11.65-10.89,1.55-11.23,6.98-11.58,12.48-.44,6.89-.88,13.88-17.15,15.18-16.23,1.3-17.59,8.86-18.98,16.58-1.11,6.2-2.25,12.49-10.02,16.28-15.23,7.44-11.76,21.62-11.12,23.82,1.86,1.31,14.16,9.22,26.15-2.8,6.11-6.12,12.43-5.15,18.65-4.2,7.75,1.19,15.35,2.35,21.84-12.58,6.5-14.97,13.26-13.13,19.92-11.31,5.31,1.45,10.56,2.88,15.55-6.91,5.07-9.94,10.54-10.34,15.99-10.74,6.56-.48,13.1-.97,18.83-22.16,9.72-35.94,16.23-21.04,19.31-38.07l-119.56,84.96L745.43,0h4.73l-2.21,1.57c-3.21,21.25-9.69,3.3-19.65,40.13-6.09,22.52-13.3,23.05-20.54,23.58-4.92.36-9.85.73-14.42,9.7-5.71,11.19-11.7,9.56-17.78,7.9-5.86-1.6-11.81-3.22-17.65,10.21-7.08,16.3-15.4,15.02-23.89,13.72-5.75-.88-11.58-1.77-17,3.66-14.19,14.22-28.87,2.83-28.91,2.79-.29-.22-.21-.11-.33-.47-.02-.05-6.04-17.63,12.01-26.45,6.89-3.37,7.94-9.17,8.97-14.89,1.52-8.46,3.01-16.74,20.72-18.16,14.61-1.17,15-7.32,15.38-13.39.4-6.28.79-12.49,13.23-14.26,9.97-1.42,11.91-5.97,13.85-10.5,2.85-6.68,5.69-13.33,28.96-11.8,19.47,1.28,25.01-1.18,28.6-3.36h3.76,0Z"/>
        <path class="cls-1" d="M654.83,63.19s-15.64,6.73-33.39,3.32c0,0,19.77.25,33.39-3.32Z"/>
        <path class="cls-1" d="M687.61,37.84s-15.64,6.73-33.38,3.32c0,0,19.77.25,33.38-3.32Z"/>
        <path class="cls-1" d="M720.4,12.49s-15.64,6.73-33.39,3.32c0,0,19.77.25,33.39-3.32Z"/>
        <path class="cls-1" d="M653.13,72.84s-9.82,11.89-11.36,28.18c0,0,4.8-17.25,11.36-28.18Z"/>
        <path class="cls-1" d="M692.58,47.74s-9.82,11.89-11.36,28.18c0,0,4.8-17.25,11.36-28.18h0Z"/>
        <path class="cls-1" d="M723.75,25.59s-9.82,11.89-11.36,28.18c0,0,4.8-17.25,11.36-28.18h0Z"/>
      </g>
      <g>
        <path class="cls-2" d="M801.91,118.16c7.63-5.71,8.07-8.18,8.65-11.51.79-4.48,1.83-10.37,17.41-25.48,15.77-15.29,13.03-21.24,10.27-27.21-2.29-4.97-4.59-9.95,1.65-19.2,6.15-9.11,2.36-13.01-1.49-16.96-4.13-4.24-8.3-8.53-3.16-17.81h2.24c-5.2,8.76-1.43,12.64,2.3,16.46,4.39,4.51,8.73,8.97,1.7,19.38-5.63,8.35-3.56,12.84-1.5,17.31,3.04,6.59,6.07,13.16-10.68,29.4-15.15,14.68-16.12,20.23-16.87,24.44-.8,4.56-1.66,7.07-10.8,13.74l-3.93,39.57-3.53-.17,4.89-41.48c-13.61-16.64,4.05-9.4-16.58-41.49-12.62-19.62-8.17-25.32-3.71-31.05,3.03-3.89,6.07-7.79,2.48-17.2-4.48-11.74.76-15.09,6.07-18.48,3.59-2.3,7.22-4.62,6.97-10.42h2.02c.38,6.71-3.81,9.39-7.96,12.04-4.64,2.97-9.22,5.9-5.3,16.17,3.97,10.42.6,14.75-2.76,19.07-4.04,5.19-8.07,10.36,3.81,28.83,20.14,31.32,4.72,26.15,15.28,39.85L813.07,0h.55l-11.72,118.16h0Z"/>
        <path class="cls-1" d="M815.84,8.25s1.18-3.46,3.88-8.25h1.11c-1.85,2.73-3.59,5.54-5,8.25Z"/>
        <path class="cls-1" d="M812.65,49.57s5.5-16.11,19.93-26.99c0,0-13.45,14.49-19.93,26.99Z"/>
        <path class="cls-1" d="M809.47,90.89s5.5-16.11,19.93-26.99c0,0-13.45,14.49-19.93,26.99h0Z"/>
        <path class="cls-1" d="M809.82.51s-.03-.18-.09-.51h-.07c.05.17.11.34.16.51Z"/>
        <path class="cls-1" d="M801.98,46.61s-2.24-15.26-13.28-27.32c0,0,9.58,15.13,13.28,27.32Z"/>
        <path class="cls-1" d="M797.49,84.59s-2.23-15.26-13.28-27.33c0,0,9.58,15.13,13.28,27.33Z"/>
      </g>
      <g>
        <path class="cls-2" d="M991.17,0c-.66.33-1.26.7-1.9,1.11-3.85,2.42-8.92,5.6-30.58,4.18-21.92-1.44-24.49,4.58-27.07,10.63-2.15,5.03-4.3,10.08-15.34,11.65-10.89,1.55-11.23,6.98-11.58,12.48-.44,6.89-.88,13.88-17.15,15.18-16.23,1.3-17.59,8.86-18.98,16.58-1.11,6.2-2.24,12.49-10.02,16.28-15.23,7.44-11.76,21.62-11.12,23.82,1.86,1.31,14.16,9.22,26.14-2.8,6.11-6.12,12.43-5.15,18.65-4.2,7.75,1.19,15.35,2.35,21.84-12.58,6.51-14.97,13.26-13.13,19.92-11.31,5.31,1.45,10.56,2.88,15.55-6.91,5.07-9.94,10.54-10.34,15.99-10.74,6.56-.48,13.1-.97,18.83-22.16,9.72-35.94,16.23-21.04,19.31-38.07l-119.56,84.96L1003.34,0h4.73l-2.21,1.57c-3.21,21.25-9.69,3.3-19.65,40.13-6.09,22.52-13.3,23.05-20.54,23.58-4.92.36-9.85.73-14.42,9.7-5.7,11.19-11.7,9.56-17.78,7.9-5.86-1.6-11.81-3.22-17.65,10.21-7.08,16.3-15.4,15.02-23.89,13.72-5.75-.88-11.58-1.77-17,3.66-14.19,14.22-28.87,2.83-28.91,2.79-.29-.22-.21-.11-.33-.47-.02-.05-6.04-17.63,12.02-26.45,6.89-3.37,7.94-9.17,8.96-14.89,1.52-8.46,3.01-16.74,20.72-18.16,14.6-1.17,15-7.32,15.38-13.39.4-6.28.79-12.49,13.23-14.26,9.97-1.42,11.91-5.97,13.85-10.5,2.85-6.68,5.69-13.33,28.96-11.8,19.47,1.28,25.01-1.18,28.59-3.36h3.76Z"/>
        <path class="cls-1" d="M912.74,63.19s-15.64,6.73-33.39,3.32c0,0,19.77.25,33.39-3.32Z"/>
        <path class="cls-1" d="M945.53,37.84s-15.64,6.73-33.38,3.32c0,0,19.77.25,33.38-3.32Z"/>
        <path class="cls-1" d="M978.31,12.49s-15.64,6.73-33.39,3.32c0,0,19.77.25,33.39-3.32Z"/>
        <path class="cls-1" d="M911.04,72.84s-9.82,11.89-11.36,28.18c0,0,4.8-17.25,11.36-28.18Z"/>
        <path class="cls-1" d="M950.49,47.74s-9.82,11.89-11.36,28.18c0,0,4.8-17.25,11.36-28.18h0Z"/>
        <path class="cls-1" d="M981.66,25.59s-9.82,11.89-11.36,28.18c0,0,4.8-17.25,11.36-28.18h0Z"/>
      </g>
    </g>
    <g>
      <path class="cls-2" d="M134.04,161.37c-9.35-1.83-11.48-.49-14.34,1.3-3.85,2.42-8.92,5.6-30.58,4.18-21.92-1.44-24.49,4.58-27.07,10.63-2.15,5.03-4.3,10.08-15.34,11.65-10.88,1.55-11.23,6.98-11.58,12.48-.44,6.89-.88,13.88-17.15,15.18C5.13,217.81,1.6,222.76,0,228.61v-5.3c2.47-4.31,7.26-7.59,17.82-8.44,14.6-1.17,15-7.32,15.38-13.39.4-6.28.79-12.49,13.23-14.26,9.97-1.42,11.91-5.97,13.85-10.5,2.85-6.68,5.69-13.33,28.96-11.8,21.05,1.39,25.82-1.61,29.44-3.88,3.93-2.47,6.35-3.51,17.44-1.21l31.98-23.63,2.24,2.74-34.05,24.19c-3.21,21.25-9.69,3.3-19.65,40.13-6.09,22.52-13.3,23.05-20.54,23.58-4.92.36-9.85.73-14.42,9.7-5.7,11.19-11.7,9.56-17.78,7.9-5.86-1.6-11.81-3.22-17.65,10.21-7.08,16.3-15.4,15.02-23.89,13.72-5.75-.88-11.58-1.77-17,3.66-1.79,1.8-3.59,3.18-5.37,4.24v-2.28c1.33-.88,2.67-1.97,4.01-3.31,6.11-6.12,12.43-5.15,18.65-4.2,7.75,1.19,15.35,2.35,21.84-12.58,6.51-14.97,13.26-13.13,19.92-11.31,5.32,1.45,10.56,2.88,15.55-6.91,5.07-9.94,10.54-10.34,15.99-10.74,6.56-.48,13.1-.97,18.83-22.16,9.72-35.94,16.23-21.04,19.31-38.07L14.54,249.65l119.5-88.29h0Z"/>
      <path class="cls-1" d="M43.18,224.75s-15.64,6.73-33.39,3.32c0,0,19.77.25,33.39-3.32Z"/>
      <path class="cls-1" d="M75.96,199.4s-15.64,6.73-33.39,3.32c0,0,19.77.25,33.39-3.32Z"/>
      <path class="cls-1" d="M108.75,174.05s-15.64,6.73-33.39,3.32c0,0,19.77.25,33.39-3.32Z"/>
      <path class="cls-1" d="M41.47,234.4s-9.82,11.89-11.36,28.18c0,0,4.8-17.25,11.36-28.18Z"/>
      <path class="cls-1" d="M80.93,209.3s-9.82,11.89-11.36,28.18c0,0,4.8-17.25,11.36-28.18Z"/>
      <path class="cls-1" d="M112.1,187.15s-9.82,11.89-11.36,28.18c0,0,4.8-17.25,11.36-28.18Z"/>
    </g>
    <g>
      <path class="cls-2" d="M190.25,279.72c7.63-5.71,8.07-8.18,8.65-11.51.79-4.48,1.83-10.37,17.41-25.48,15.77-15.29,13.03-21.24,10.27-27.21-2.29-4.97-4.59-9.95,1.65-19.2,6.15-9.11,2.36-13.01-1.49-16.96-4.82-4.95-9.7-9.96.24-22.91,9.92-12.91,5.23-18.99.43-25.2-3.85-4.98-7.76-10.04-5.36-18.35,4.7-16.29-8.14-23.22-10.22-24.22-2.22.5-16.33,4.32-15.46,21.27.45,8.64-4.51,12.67-9.39,16.65-6.08,4.95-12.04,9.81-5.31,24.64,6.74,14.86.84,18.64-4.98,22.36-4.64,2.97-9.22,5.9-5.31,16.17,3.98,10.42.6,14.75-2.76,19.07-4.04,5.19-8.07,10.36,3.81,28.83,20.14,31.32,4.72,26.15,15.28,39.85l17.18-145.66-14.67,147.85h0ZM186.07,321.86l-3.53-.17,4.89-41.48c-13.61-16.64,4.05-9.4-16.58-41.49-12.62-19.62-8.17-25.33-3.71-31.05,3.03-3.89,6.07-7.79,2.48-17.2-4.48-11.74.76-15.09,6.07-18.48,5.12-3.27,10.31-6.6,4.26-19.94-7.34-16.18-.81-21.5,5.85-26.92,4.51-3.67,9.08-7.4,8.69-15.06-1.03-20.06,17.27-23.31,17.32-23.32.36-.07.23-.09.57.07.05.02,17.13,7.35,11.56,26.65-2.13,7.37,1.48,12.04,5.03,16.64,5.25,6.8,10.4,13.46-.43,27.55-8.93,11.62-4.63,16.03-.39,20.39,4.39,4.51,8.73,8.96,1.7,19.38-5.63,8.35-3.56,12.84-1.5,17.31,3.04,6.59,6.07,13.16-10.68,29.4-15.15,14.68-16.13,20.23-16.87,24.44-.8,4.57-1.66,7.07-10.8,13.74l-3.93,39.57h0Z"/>
      <path class="cls-1" d="M204.18,169.81s5.5-16.11,19.93-26.99c0,0-13.45,14.5-19.93,26.99Z"/>
      <path class="cls-1" d="M201,211.13s5.5-16.11,19.93-26.99c0,0-13.45,14.5-19.93,26.99Z"/>
      <path class="cls-1" d="M197.81,252.45s5.5-16.11,19.93-26.99c0,0-13.45,14.5-19.93,26.99Z"/>
      <path class="cls-1" d="M198.17,162.07s-2.23-15.26-13.28-27.33c0,0,9.58,15.13,13.28,27.33Z"/>
      <path class="cls-1" d="M190.32,208.17s-2.23-15.26-13.28-27.33c0,0,9.58,15.13,13.28,27.33Z"/>
      <path class="cls-1" d="M185.84,246.15s-2.23-15.26-13.28-27.33c0,0,9.58,15.13,13.28,27.33Z"/>
    </g>
    <g>
      <path class="cls-2" d="M391.95,161.37c-9.35-1.83-11.48-.49-14.34,1.3-3.85,2.42-8.92,5.6-30.58,4.18-21.92-1.44-24.49,4.58-27.07,10.63-2.15,5.03-4.3,10.08-15.35,11.65-10.88,1.55-11.23,6.98-11.58,12.48-.44,6.89-.88,13.88-17.15,15.18-16.23,1.3-17.59,8.86-18.98,16.58-1.11,6.2-2.24,12.49-10.02,16.28-15.23,7.44-11.76,21.62-11.12,23.83,1.86,1.31,14.16,9.22,26.15-2.8,6.11-6.12,12.43-5.15,18.65-4.2,7.75,1.19,15.35,2.35,21.84-12.58,6.5-14.97,13.26-13.13,19.92-11.31,5.32,1.45,10.56,2.88,15.55-6.91,5.07-9.94,10.54-10.34,15.99-10.74,6.56-.48,13.1-.97,18.83-22.16,9.72-35.94,16.23-21.04,19.31-38.07l-119.56,84.96,119.5-88.29h0ZM426.01,136.2l2.24,2.74-34.05,24.19c-3.21,21.25-9.69,3.3-19.65,40.13-6.09,22.52-13.3,23.05-20.54,23.58-4.92.36-9.85.73-14.42,9.7-5.71,11.19-11.7,9.56-17.78,7.9-5.86-1.6-11.81-3.22-17.65,10.21-7.08,16.3-15.4,15.02-23.89,13.72-5.75-.88-11.58-1.77-17,3.66-14.19,14.22-28.87,2.83-28.91,2.8-.29-.22-.21-.11-.33-.47-.02-.05-6.04-17.63,12.01-26.45,6.89-3.37,7.94-9.17,8.97-14.89,1.52-8.46,3.01-16.74,20.72-18.16,14.61-1.17,15-7.32,15.38-13.39.4-6.28.79-12.49,13.23-14.26,9.97-1.42,11.91-5.97,13.85-10.5,2.85-6.68,5.69-13.33,28.96-11.8,21.05,1.39,25.82-1.61,29.44-3.88,3.93-2.47,6.35-3.51,17.44-1.21l31.98-23.63h0Z"/>
      <path class="cls-1" d="M301.09,224.75s-15.64,6.73-33.38,3.32c0,0,19.77.25,33.38-3.32Z"/>
      <path class="cls-1" d="M333.87,199.4s-15.64,6.73-33.39,3.32c0,0,19.77.25,33.39-3.32Z"/>
      <path class="cls-1" d="M366.66,174.05s-15.64,6.73-33.39,3.32c0,0,19.77.25,33.39-3.32Z"/>
      <path class="cls-1" d="M299.38,234.4s-9.82,11.89-11.36,28.18c0,0,4.8-17.25,11.36-28.18Z"/>
      <path class="cls-1" d="M338.84,209.3s-9.82,11.89-11.36,28.18c0,0,4.8-17.25,11.36-28.18Z"/>
      <path class="cls-1" d="M370.01,187.15s-9.82,11.89-11.36,28.18c0,0,4.8-17.25,11.36-28.18Z"/>
    </g>
    <g>
      <path class="cls-2" d="M448.16,279.72c7.63-5.71,8.07-8.18,8.65-11.51.79-4.48,1.83-10.37,17.41-25.48,15.77-15.29,13.03-21.24,10.27-27.21-2.29-4.97-4.59-9.95,1.65-19.2,6.15-9.11,2.36-13.01-1.49-16.96-4.82-4.95-9.7-9.96.24-22.91,9.92-12.91,5.23-18.99.43-25.2-3.85-4.98-7.76-10.04-5.36-18.35,4.7-16.29-8.14-23.22-10.22-24.22-2.22.5-16.33,4.32-15.46,21.27.45,8.64-4.51,12.67-9.39,16.65-6.08,4.95-12.04,9.81-5.31,24.64,6.74,14.86.84,18.64-4.98,22.36-4.64,2.97-9.22,5.9-5.3,16.17,3.97,10.42.6,14.75-2.76,19.07-4.04,5.19-8.07,10.36,3.81,28.83,20.14,31.32,4.72,26.15,15.28,39.85l17.18-145.66-14.67,147.85h0ZM443.98,321.86l-3.53-.17,4.89-41.48c-13.61-16.64,4.05-9.4-16.58-41.49-12.62-19.62-8.17-25.33-3.71-31.05,3.03-3.89,6.07-7.79,2.48-17.2-4.48-11.74.76-15.09,6.07-18.48,5.12-3.27,10.31-6.6,4.26-19.94-7.34-16.18-.81-21.5,5.85-26.92,4.51-3.67,9.08-7.4,8.69-15.06-1.03-20.06,17.27-23.31,17.32-23.32.36-.07.23-.09.57.07.05.02,17.13,7.35,11.56,26.65-2.13,7.37,1.48,12.04,5.03,16.64,5.25,6.8,10.4,13.46-.43,27.55-8.93,11.62-4.63,16.03-.39,20.39,4.39,4.51,8.73,8.96,1.7,19.38-5.63,8.35-3.56,12.84-1.5,17.31,3.04,6.59,6.07,13.16-10.68,29.4-15.15,14.68-16.13,20.23-16.87,24.44-.8,4.57-1.66,7.07-10.8,13.74l-3.93,39.57h0Z"/>
      <path class="cls-1" d="M462.09,169.81s5.5-16.11,19.93-26.99c0,0-13.45,14.5-19.93,26.99Z"/>
      <path class="cls-1" d="M458.91,211.13s5.5-16.11,19.93-26.99c0,0-13.45,14.5-19.93,26.99Z"/>
      <path class="cls-1" d="M455.72,252.45s5.5-16.11,19.93-26.99c0,0-13.45,14.5-19.93,26.99Z"/>
      <path class="cls-1" d="M456.08,162.07s-2.23-15.26-13.28-27.33c0,0,9.58,15.13,13.28,27.33Z"/>
      <path class="cls-1" d="M448.23,208.17s-2.23-15.26-13.28-27.33c0,0,9.58,15.13,13.28,27.33Z"/>
      <path class="cls-1" d="M443.75,246.15s-2.23-15.26-13.28-27.33c0,0,9.58,15.13,13.28,27.33Z"/>
    </g>
    <g>
      <path class="cls-2" d="M649.86,161.37c-9.35-1.83-11.48-.49-14.34,1.3-3.85,2.42-8.92,5.6-30.58,4.18-21.92-1.44-24.49,4.58-27.07,10.63-2.15,5.03-4.3,10.08-15.34,11.65-10.89,1.55-11.23,6.98-11.58,12.48-.44,6.89-.88,13.88-17.15,15.18-16.23,1.3-17.59,8.86-18.98,16.58-1.11,6.2-2.24,12.49-10.02,16.28-15.23,7.44-11.76,21.62-11.12,23.83,1.86,1.31,14.16,9.22,26.15-2.8,6.11-6.12,12.43-5.15,18.65-4.2,7.75,1.19,15.35,2.35,21.84-12.58,6.5-14.97,13.26-13.13,19.92-11.31,5.31,1.45,10.56,2.88,15.55-6.91,5.07-9.94,10.54-10.34,15.99-10.74,6.56-.48,13.1-.97,18.83-22.16,9.72-35.94,16.23-21.04,19.31-38.07l-119.56,84.96,119.5-88.29h0ZM683.92,136.2l2.24,2.74-34.05,24.19c-3.21,21.25-9.69,3.3-19.65,40.13-6.09,22.52-13.3,23.05-20.54,23.58-4.92.36-9.85.73-14.42,9.7-5.71,11.19-11.7,9.56-17.78,7.9-5.86-1.6-11.81-3.22-17.65,10.21-7.08,16.3-15.4,15.02-23.89,13.72-5.75-.88-11.58-1.77-17,3.66-14.19,14.22-28.87,2.83-28.91,2.8-.29-.22-.21-.11-.33-.47-.02-.05-6.04-17.63,12.01-26.45,6.89-3.37,7.94-9.17,8.97-14.89,1.52-8.46,3.01-16.74,20.72-18.16,14.61-1.17,15-7.32,15.38-13.39.4-6.28.79-12.49,13.23-14.26,9.97-1.42,11.91-5.97,13.85-10.5,2.85-6.68,5.69-13.33,28.96-11.8,21.05,1.39,25.82-1.61,29.44-3.88,3.92-2.47,6.35-3.51,17.44-1.21l31.98-23.63h0Z"/>
      <path class="cls-1" d="M559,224.75s-15.64,6.73-33.39,3.32c0,0,19.77.25,33.39-3.32Z"/>
      <path class="cls-1" d="M591.78,199.4s-15.64,6.73-33.39,3.32c0,0,19.77.25,33.39-3.32Z"/>
      <path class="cls-1" d="M624.57,174.05s-15.64,6.73-33.39,3.32c0,0,19.77.25,33.39-3.32Z"/>
      <path class="cls-1" d="M557.29,234.4s-9.82,11.89-11.36,28.18c0,0,4.8-17.25,11.36-28.18Z"/>
      <path class="cls-1" d="M596.75,209.3s-9.82,11.89-11.36,28.18c0,0,4.8-17.25,11.36-28.18Z"/>
      <path class="cls-1" d="M627.92,187.15s-9.82,11.89-11.36,28.18c0,0,4.8-17.25,11.36-28.18Z"/>
    </g>
    <g>
      <path class="cls-2" d="M706.07,279.72c7.63-5.71,8.07-8.18,8.65-11.51.79-4.48,1.83-10.37,17.42-25.48,15.77-15.29,13.03-21.24,10.27-27.21-2.29-4.97-4.59-9.95,1.65-19.2,6.15-9.11,2.36-13.01-1.49-16.96-4.82-4.95-9.7-9.96.24-22.91,9.92-12.91,5.23-18.99.43-25.2-3.85-4.98-7.76-10.04-5.36-18.35,4.7-16.29-8.14-23.22-10.22-24.22-2.22.5-16.33,4.32-15.46,21.27.45,8.64-4.51,12.67-9.39,16.65-6.08,4.95-12.04,9.81-5.31,24.64,6.74,14.86.84,18.64-4.98,22.36-4.64,2.97-9.22,5.9-5.3,16.17,3.97,10.42.6,14.75-2.76,19.07-4.04,5.19-8.07,10.36,3.81,28.83,20.14,31.32,4.72,26.15,15.28,39.85l17.18-145.66-14.67,147.85h0ZM701.89,321.86l-3.53-.17,4.89-41.48c-13.61-16.64,4.05-9.4-16.58-41.49-12.62-19.62-8.17-25.33-3.71-31.05,3.03-3.89,6.07-7.79,2.48-17.2-4.48-11.74.76-15.09,6.07-18.48,5.12-3.27,10.31-6.6,4.26-19.94-7.34-16.18-.81-21.5,5.85-26.92,4.51-3.67,9.08-7.4,8.69-15.06-1.03-20.06,17.27-23.31,17.32-23.32.36-.07.23-.09.57.07.05.02,17.13,7.35,11.56,26.65-2.13,7.37,1.48,12.04,5.03,16.64,5.25,6.8,10.4,13.46-.43,27.55-8.93,11.62-4.63,16.03-.39,20.39,4.39,4.51,8.73,8.96,1.7,19.38-5.63,8.35-3.56,12.84-1.5,17.31,3.04,6.59,6.07,13.16-10.68,29.4-15.15,14.68-16.12,20.23-16.87,24.44-.8,4.57-1.66,7.07-10.8,13.74l-3.93,39.57h0Z"/>
      <path class="cls-1" d="M720,169.81s5.5-16.11,19.93-26.99c0,0-13.45,14.5-19.93,26.99Z"/>
      <path class="cls-1" d="M716.82,211.13s5.5-16.11,19.93-26.99c0,0-13.45,14.5-19.93,26.99Z"/>
      <path class="cls-1" d="M713.63,252.45s5.5-16.11,19.93-26.99c0,0-13.45,14.5-19.93,26.99Z"/>
      <path class="cls-1" d="M713.99,162.07s-2.23-15.26-13.28-27.33c0,0,9.58,15.13,13.28,27.33Z"/>
      <path class="cls-1" d="M706.15,208.17s-2.24-15.26-13.28-27.33c0,0,9.58,15.13,13.28,27.33Z"/>
      <path class="cls-1" d="M701.66,246.15s-2.23-15.26-13.28-27.33c0,0,9.58,15.13,13.28,27.33Z"/>
    </g>
    <g>
      <path class="cls-2" d="M907.77,161.37c-9.35-1.83-11.48-.49-14.34,1.3-3.85,2.42-8.92,5.6-30.58,4.18-21.92-1.44-24.49,4.58-27.07,10.63-2.15,5.03-4.3,10.08-15.34,11.65-10.89,1.55-11.23,6.98-11.58,12.48-.44,6.89-.88,13.88-17.15,15.18-16.23,1.3-17.59,8.86-18.98,16.58-1.11,6.2-2.24,12.49-10.02,16.28-15.23,7.44-11.76,21.62-11.12,23.83,1.86,1.31,14.16,9.22,26.15-2.8,6.11-6.12,12.43-5.15,18.65-4.2,7.75,1.19,15.35,2.35,21.84-12.58,6.5-14.97,13.26-13.13,19.92-11.31,5.31,1.45,10.56,2.88,15.55-6.91,5.07-9.94,10.54-10.34,15.99-10.74,6.56-.48,13.1-.97,18.83-22.16,9.72-35.94,16.23-21.04,19.31-38.07l-119.56,84.96,119.5-88.29h0ZM941.83,136.2l2.24,2.74-34.05,24.19c-3.21,21.25-9.69,3.3-19.65,40.13-6.09,22.52-13.3,23.05-20.54,23.58-4.92.36-9.85.73-14.42,9.7-5.71,11.19-11.7,9.56-17.78,7.9-5.86-1.6-11.81-3.22-17.65,10.21-7.08,16.3-15.4,15.02-23.89,13.72-5.75-.88-11.58-1.77-17,3.66-14.19,14.22-28.87,2.83-28.91,2.8-.29-.22-.21-.11-.33-.47-.02-.05-6.04-17.63,12.01-26.45,6.89-3.37,7.94-9.17,8.97-14.89,1.52-8.46,3.01-16.74,20.72-18.16,14.61-1.17,15-7.32,15.38-13.39.4-6.28.79-12.49,13.23-14.26,9.97-1.42,11.91-5.97,13.85-10.5,2.85-6.68,5.69-13.33,28.96-11.8,21.05,1.39,25.82-1.61,29.44-3.88,3.92-2.47,6.35-3.51,17.44-1.21l31.98-23.63h0Z"/>
      <path class="cls-1" d="M816.91,224.75s-15.64,6.73-33.39,3.32c0,0,19.77.25,33.39-3.32Z"/>
      <path class="cls-1" d="M849.69,199.4s-15.64,6.73-33.39,3.32c0,0,19.77.25,33.39-3.32Z"/>
      <path class="cls-1" d="M882.48,174.05s-15.64,6.73-33.39,3.32c0,0,19.77.25,33.39-3.32Z"/>
      <path class="cls-1" d="M815.21,234.4s-9.82,11.89-11.36,28.18c0,0,4.8-17.25,11.36-28.18Z"/>
      <path class="cls-1" d="M854.66,209.3s-9.82,11.89-11.36,28.18c0,0,4.8-17.25,11.36-28.18Z"/>
      <path class="cls-1" d="M885.83,187.15s-9.82,11.89-11.36,28.18c0,0,4.8-17.25,11.36-28.18Z"/>
    </g>
    <g>
      <g>
        <g>
          <path class="cls-2" d="M92.6,431.73c7.63-5.71,8.07-8.18,8.65-11.51.79-4.48,1.83-10.37,17.41-25.48,15.77-15.29,13.03-21.24,10.27-27.21-2.29-4.97-4.59-9.95,1.65-19.2,6.15-9.11,2.36-13.01-1.49-16.96-4.82-4.95-9.7-9.96.24-22.91,9.92-12.91,5.23-18.99.43-25.2-3.85-4.98-7.76-10.04-5.36-18.35,4.7-16.29-8.14-23.22-10.22-24.22-2.22.5-16.33,4.32-15.46,21.27.44,8.64-4.51,12.67-9.39,16.65-6.08,4.95-12.04,9.81-5.31,24.64,6.74,14.87.84,18.64-4.98,22.36-4.64,2.97-9.22,5.9-5.3,16.17,3.97,10.42.6,14.75-2.76,19.07-4.04,5.19-8.07,10.36,3.81,28.83,20.14,31.32,4.72,26.15,15.28,39.85l17.18-145.66-14.67,147.85h0ZM88.42,473.87l-3.53-.17,4.89-41.48c-13.61-16.64,4.05-9.4-16.58-41.49-12.62-19.62-8.17-25.32-3.71-31.05,3.03-3.89,6.07-7.79,2.48-17.2-4.48-11.74.76-15.09,6.07-18.48,5.12-3.27,10.31-6.6,4.26-19.94-7.34-16.18-.81-21.5,5.85-26.92,4.51-3.67,9.08-7.4,8.69-15.06-1.03-20.06,17.27-23.31,17.32-23.32.36-.07.22-.08.57.07.05.02,17.13,7.35,11.56,26.65-2.13,7.37,1.48,12.04,5.03,16.64,5.25,6.8,10.4,13.46-.43,27.55-8.93,11.62-4.63,16.03-.39,20.39,4.39,4.51,8.73,8.97,1.7,19.38-5.63,8.35-3.56,12.84-1.5,17.31,3.04,6.59,6.07,13.16-10.68,29.4-15.15,14.68-16.12,20.23-16.87,24.44-.8,4.57-1.66,7.07-10.8,13.74l-3.93,39.57Z"/>
          <path class="cls-1" d="M106.53,321.82s5.5-16.11,19.93-26.99c0,0-13.45,14.49-19.93,26.99h0Z"/>
          <path class="cls-1" d="M103.34,363.14s5.5-16.11,19.93-26.99c0,0-13.45,14.49-19.93,26.99Z"/>
          <path class="cls-1" d="M100.16,404.46s5.5-16.11,19.93-26.99c0,0-13.45,14.49-19.93,26.99Z"/>
          <path class="cls-1" d="M100.51,314.09s-2.23-15.26-13.28-27.33c0,0,9.58,15.13,13.28,27.33Z"/>
          <path class="cls-1" d="M92.67,360.18s-2.24-15.26-13.28-27.33c0,0,9.58,15.13,13.28,27.33Z"/>
          <path class="cls-1" d="M88.18,398.16s-2.23-15.26-13.28-27.33c0,0,9.58,15.13,13.28,27.33Z"/>
        </g>
        <g>
          <path class="cls-2" d="M294.3,313.38c-9.35-1.83-11.48-.49-14.34,1.3-3.85,2.42-8.92,5.6-30.58,4.18-21.92-1.44-24.49,4.58-27.07,10.63-2.15,5.03-4.3,10.08-15.34,11.65-10.89,1.55-11.23,6.98-11.58,12.48-.44,6.89-.88,13.88-17.15,15.18-16.23,1.3-17.59,8.86-18.98,16.58-1.11,6.2-2.24,12.49-10.02,16.28-15.23,7.44-11.76,21.62-11.12,23.82,1.86,1.31,14.16,9.22,26.14-2.8,6.11-6.12,12.43-5.15,18.65-4.2,7.75,1.19,15.35,2.35,21.84-12.58,6.51-14.97,13.26-13.13,19.92-11.31,5.31,1.45,10.56,2.88,15.55-6.91,5.07-9.94,10.54-10.34,15.99-10.74,6.56-.48,13.1-.97,18.83-22.16,9.72-35.94,16.23-21.04,19.31-38.07l-119.56,84.96,119.5-88.29ZM328.36,288.21l2.24,2.74-34.05,24.19c-3.21,21.25-9.69,3.3-19.65,40.13-6.09,22.52-13.3,23.05-20.54,23.58-4.92.36-9.85.73-14.42,9.7-5.7,11.19-11.7,9.56-17.78,7.9-5.86-1.6-11.81-3.22-17.65,10.21-7.08,16.3-15.4,15.02-23.89,13.72-5.75-.88-11.58-1.77-17,3.66-14.19,14.22-28.87,2.83-28.91,2.79-.29-.22-.21-.11-.33-.47-.02-.05-6.04-17.63,12.02-26.45,6.89-3.37,7.94-9.17,8.96-14.89,1.52-8.46,3.01-16.74,20.72-18.16,14.6-1.17,15-7.32,15.38-13.39.4-6.28.79-12.49,13.23-14.26,9.97-1.42,11.91-5.97,13.85-10.5,2.85-6.68,5.69-13.33,28.96-11.8,21.05,1.39,25.82-1.61,29.44-3.88,3.93-2.47,6.35-3.51,17.44-1.21l31.98-23.63h0Z"/>
          <path class="cls-1" d="M203.43,376.77s-15.64,6.73-33.39,3.32c0,0,19.77.25,33.39-3.32Z"/>
          <path class="cls-1" d="M236.22,351.41s-15.64,6.73-33.38,3.32c0,0,19.77.25,33.38-3.32Z"/>
          <path class="cls-1" d="M269,326.06s-15.64,6.73-33.39,3.32c0,0,19.77.25,33.39-3.32Z"/>
          <path class="cls-1" d="M201.73,386.42s-9.82,11.89-11.36,28.18c0,0,4.8-17.25,11.36-28.18Z"/>
          <path class="cls-1" d="M241.18,361.32s-9.82,11.89-11.36,28.18c0,0,4.8-17.25,11.36-28.18Z"/>
          <path class="cls-1" d="M272.35,339.17s-9.82,11.89-11.36,28.18c0,0,4.8-17.25,11.36-28.18Z"/>
        </g>
        <g>
          <path class="cls-2" d="M350.51,431.73c7.63-5.71,8.07-8.18,8.65-11.51.79-4.48,1.83-10.37,17.41-25.48,15.77-15.29,13.03-21.24,10.27-27.21-2.29-4.97-4.59-9.95,1.65-19.2,6.15-9.11,2.36-13.01-1.49-16.96-4.82-4.95-9.7-9.96.24-22.91,9.92-12.91,5.23-18.99.43-25.2-3.85-4.98-7.76-10.04-5.36-18.35,4.7-16.29-8.14-23.22-10.21-24.22-2.22.5-16.33,4.32-15.46,21.27.44,8.64-4.51,12.67-9.39,16.65-6.08,4.95-12.04,9.81-5.31,24.64,6.74,14.87.84,18.64-4.97,22.36-4.64,2.97-9.22,5.9-5.31,16.17,3.97,10.42.6,14.75-2.76,19.07-4.04,5.19-8.07,10.36,3.81,28.83,20.14,31.32,4.72,26.15,15.28,39.85l17.18-145.66-14.67,147.85h0ZM346.33,473.87l-3.53-.17,4.89-41.48c-13.61-16.64,4.05-9.4-16.58-41.49-12.62-19.62-8.17-25.32-3.72-31.05,3.03-3.89,6.07-7.79,2.48-17.2-4.48-11.74.76-15.09,6.07-18.48,5.12-3.27,10.31-6.6,4.26-19.94-7.34-16.18-.81-21.5,5.85-26.92,4.51-3.67,9.08-7.4,8.69-15.06-1.03-20.06,17.27-23.31,17.32-23.32.36-.07.22-.08.57.07.05.02,17.13,7.35,11.56,26.65-2.13,7.37,1.48,12.04,5.03,16.64,5.25,6.8,10.4,13.46-.43,27.55-8.93,11.62-4.63,16.03-.39,20.39,4.39,4.51,8.73,8.97,1.7,19.38-5.63,8.35-3.56,12.84-1.5,17.31,3.04,6.59,6.07,13.16-10.68,29.4-15.15,14.68-16.12,20.23-16.87,24.44-.8,4.57-1.66,7.07-10.8,13.74l-3.93,39.57h0Z"/>
          <path class="cls-1" d="M364.44,321.82s5.5-16.11,19.93-26.99c0,0-13.45,14.49-19.93,26.99Z"/>
          <path class="cls-1" d="M361.25,363.14s5.5-16.11,19.93-26.99c0,0-13.45,14.49-19.93,26.99Z"/>
          <path class="cls-1" d="M358.07,404.46s5.5-16.11,19.93-26.99c0,0-13.45,14.49-19.93,26.99Z"/>
          <path class="cls-1" d="M358.42,314.09s-2.23-15.26-13.28-27.33c0,0,9.58,15.13,13.28,27.33Z"/>
          <path class="cls-1" d="M350.58,360.18s-2.23-15.26-13.28-27.33c0,0,9.58,15.13,13.28,27.33Z"/>
          <path class="cls-1" d="M346.1,398.16s-2.24-15.26-13.28-27.33c0,0,9.58,15.13,13.28,27.33Z"/>
        </g>
        <g>
          <path class="cls-2" d="M552.21,313.38c-9.35-1.83-11.48-.49-14.34,1.3-3.85,2.42-8.92,5.6-30.58,4.18-21.92-1.44-24.49,4.58-27.07,10.63-2.15,5.03-4.3,10.08-15.34,11.65-10.89,1.55-11.23,6.98-11.58,12.48-.44,6.89-.88,13.88-17.15,15.18-16.23,1.3-17.59,8.86-18.98,16.58-1.11,6.2-2.24,12.49-10.02,16.28-15.23,7.44-11.76,21.62-11.12,23.82,1.86,1.31,14.16,9.22,26.14-2.8,6.11-6.12,12.43-5.15,18.65-4.2,7.75,1.19,15.35,2.35,21.84-12.58,6.51-14.97,13.26-13.13,19.92-11.31,5.31,1.45,10.56,2.88,15.55-6.91,5.07-9.94,10.54-10.34,15.99-10.74,6.56-.48,13.1-.97,18.83-22.16,9.72-35.94,16.23-21.04,19.31-38.07l-119.56,84.96,119.5-88.29h0ZM586.27,288.21l2.24,2.74-34.05,24.19c-3.21,21.25-9.69,3.3-19.65,40.13-6.09,22.52-13.3,23.05-20.54,23.58-4.92.36-9.85.73-14.42,9.7-5.7,11.19-11.7,9.56-17.78,7.9-5.86-1.6-11.81-3.22-17.65,10.21-7.08,16.3-15.4,15.02-23.89,13.72-5.75-.88-11.58-1.77-17,3.66-14.19,14.22-28.87,2.83-28.91,2.79-.29-.22-.21-.11-.33-.47-.02-.05-6.04-17.63,12.02-26.45,6.89-3.37,7.94-9.17,8.96-14.89,1.52-8.46,3.01-16.74,20.72-18.16,14.6-1.17,15-7.32,15.38-13.39.4-6.28.79-12.49,13.23-14.26,9.97-1.42,11.91-5.97,13.85-10.5,2.85-6.68,5.69-13.33,28.96-11.8,21.05,1.39,25.82-1.61,29.44-3.88,3.93-2.47,6.35-3.51,17.44-1.21l31.98-23.63h0Z"/>
          <path class="cls-1" d="M461.34,376.77s-15.64,6.73-33.39,3.32c0,0,19.77.25,33.39-3.32Z"/>
          <path class="cls-1" d="M494.13,351.41s-15.64,6.73-33.38,3.32c0,0,19.77.25,33.38-3.32Z"/>
          <path class="cls-1" d="M526.91,326.06s-15.64,6.73-33.39,3.32c0,0,19.77.25,33.39-3.32Z"/>
          <path class="cls-1" d="M459.64,386.42s-9.82,11.89-11.36,28.18c0,0,4.8-17.25,11.36-28.18Z"/>
          <path class="cls-1" d="M499.09,361.32s-9.82,11.89-11.36,28.18c0,0,4.8-17.25,11.36-28.18Z"/>
          <path class="cls-1" d="M530.26,339.17s-9.82,11.89-11.36,28.18c0,0,4.8-17.25,11.36-28.18Z"/>
        </g>
        <g>
          <path class="cls-2" d="M608.42,431.73c7.63-5.71,8.07-8.18,8.65-11.51.79-4.48,1.83-10.37,17.41-25.48,15.77-15.29,13.03-21.24,10.27-27.21-2.29-4.97-4.59-9.95,1.65-19.2,6.15-9.11,2.36-13.01-1.49-16.96-4.82-4.95-9.7-9.96.24-22.91,9.92-12.91,5.23-18.99.43-25.2-3.85-4.98-7.76-10.04-5.36-18.35,4.7-16.29-8.14-23.22-10.22-24.22-2.22.5-16.33,4.32-15.46,21.27.44,8.64-4.51,12.67-9.39,16.65-6.08,4.95-12.04,9.81-5.31,24.64,6.74,14.87.84,18.64-4.97,22.36-4.64,2.97-9.22,5.9-5.31,16.17,3.97,10.42.6,14.75-2.76,19.07-4.04,5.19-8.07,10.36,3.81,28.83,20.14,31.32,4.72,26.15,15.28,39.85l17.18-145.66-14.67,147.85h0ZM604.24,473.87l-3.53-.17,4.89-41.48c-13.61-16.64,4.05-9.4-16.58-41.49-12.62-19.62-8.17-25.32-3.71-31.05,3.03-3.89,6.07-7.79,2.48-17.2-4.48-11.74.76-15.09,6.07-18.48,5.12-3.27,10.31-6.6,4.26-19.94-7.34-16.18-.81-21.5,5.85-26.92,4.51-3.67,9.08-7.4,8.69-15.06-1.03-20.06,17.27-23.31,17.32-23.32.36-.07.22-.08.57.07.05.02,17.13,7.35,11.56,26.65-2.13,7.37,1.48,12.04,5.03,16.64,5.25,6.8,10.4,13.46-.43,27.55-8.93,11.62-4.63,16.03-.39,20.39,4.39,4.51,8.73,8.97,1.7,19.38-5.63,8.35-3.56,12.84-1.5,17.31,3.04,6.59,6.07,13.16-10.68,29.4-15.15,14.68-16.12,20.23-16.87,24.44-.8,4.57-1.66,7.07-10.8,13.74l-3.92,39.57Z"/>
          <path class="cls-1" d="M622.35,321.82s5.5-16.11,19.93-26.99c0,0-13.45,14.49-19.93,26.99Z"/>
          <path class="cls-1" d="M619.16,363.14s5.5-16.11,19.93-26.99c0,0-13.45,14.49-19.93,26.99Z"/>
          <path class="cls-1" d="M615.98,404.46s5.5-16.11,19.93-26.99c0,0-13.45,14.49-19.93,26.99Z"/>
          <path class="cls-1" d="M616.33,314.09s-2.24-15.26-13.28-27.33c0,0,9.58,15.13,13.28,27.33Z"/>
          <path class="cls-1" d="M608.49,360.18s-2.23-15.26-13.28-27.33c0,0,9.58,15.13,13.28,27.33Z"/>
          <path class="cls-1" d="M604.01,398.16s-2.24-15.26-13.28-27.33c0,0,9.58,15.13,13.28,27.33Z"/>
        </g>
        <g>
          <path class="cls-2" d="M810.12,313.38c-9.35-1.83-11.48-.49-14.34,1.3-3.85,2.42-8.92,5.6-30.58,4.18-21.92-1.44-24.49,4.58-27.07,10.63-2.15,5.03-4.3,10.08-15.34,11.65-10.89,1.55-11.23,6.98-11.58,12.48-.44,6.89-.88,13.88-17.15,15.18-16.23,1.3-17.59,8.86-18.98,16.58-1.11,6.2-2.24,12.49-10.02,16.28-15.23,7.44-11.76,21.62-11.12,23.82,1.86,1.31,14.16,9.22,26.14-2.8,6.11-6.12,12.43-5.15,18.65-4.2,7.75,1.19,15.35,2.35,21.84-12.58,6.51-14.97,13.26-13.13,19.92-11.31,5.31,1.45,10.56,2.88,15.55-6.91,5.07-9.94,10.54-10.34,15.99-10.74,6.56-.48,13.1-.97,18.83-22.16,9.72-35.94,16.23-21.04,19.31-38.07l-119.56,84.96,119.5-88.29h0ZM844.18,288.21l2.24,2.74-34.05,24.19c-3.21,21.25-9.69,3.3-19.65,40.13-6.09,22.52-13.3,23.05-20.54,23.58-4.92.36-9.85.73-14.42,9.7-5.7,11.19-11.7,9.56-17.78,7.9-5.86-1.6-11.81-3.22-17.65,10.21-7.08,16.3-15.4,15.02-23.89,13.72-5.74-.88-11.58-1.77-17,3.66-14.19,14.22-28.87,2.83-28.91,2.79-.29-.22-.21-.11-.33-.47-.02-.05-6.04-17.63,12.02-26.45,6.89-3.37,7.94-9.17,8.96-14.89,1.52-8.46,3.01-16.74,20.72-18.16,14.6-1.17,15-7.32,15.38-13.39.4-6.28.79-12.49,13.23-14.26,9.97-1.42,11.91-5.97,13.85-10.5,2.85-6.68,5.69-13.33,28.96-11.8,21.05,1.39,25.82-1.61,29.44-3.88,3.93-2.47,6.35-3.51,17.44-1.21l31.98-23.63h0Z"/>
          <path class="cls-1" d="M719.25,376.77s-15.64,6.73-33.39,3.32c0,0,19.77.25,33.39-3.32Z"/>
          <path class="cls-1" d="M752.04,351.41s-15.64,6.73-33.39,3.32c0,0,19.77.25,33.39-3.32Z"/>
          <path class="cls-1" d="M784.82,326.06s-15.64,6.73-33.38,3.32c0,0,19.77.25,33.38-3.32Z"/>
          <path class="cls-1" d="M717.55,386.42s-9.82,11.89-11.36,28.18c0,0,4.8-17.25,11.36-28.18Z"/>
          <path class="cls-1" d="M757,361.32s-9.82,11.89-11.36,28.18c0,0,4.8-17.25,11.36-28.18Z"/>
          <path class="cls-1" d="M788.18,339.17s-9.82,11.89-11.36,28.18c0,0,4.8-17.25,11.36-28.18Z"/>
        </g>
        <g>
          <path class="cls-2" d="M866.33,431.73c7.63-5.71,8.07-8.18,8.65-11.51.79-4.48,1.83-10.37,17.41-25.48,15.77-15.29,13.03-21.24,10.27-27.21-2.29-4.97-4.59-9.95,1.65-19.2,6.15-9.11,2.36-13.01-1.49-16.96-4.82-4.95-9.7-9.96.24-22.91,9.92-12.91,5.23-18.99.43-25.2-3.85-4.98-7.76-10.04-5.36-18.35,4.7-16.29-8.14-23.22-10.22-24.22-2.22.5-16.33,4.32-15.46,21.27.45,8.64-4.51,12.67-9.39,16.65-6.08,4.95-12.04,9.81-5.31,24.64,6.74,14.87.84,18.64-4.98,22.36-4.64,2.97-9.22,5.9-5.31,16.17,3.97,10.42.6,14.75-2.76,19.07-4.04,5.19-8.07,10.36,3.81,28.83,20.14,31.32,4.72,26.15,15.28,39.85l17.18-145.66-14.67,147.85h0ZM862.15,473.87l-3.53-.17,4.89-41.48c-13.61-16.64,4.05-9.4-16.58-41.49-12.62-19.62-8.17-25.32-3.71-31.05,3.03-3.89,6.07-7.79,2.48-17.2-4.48-11.74.76-15.09,6.07-18.48,5.12-3.27,10.31-6.6,4.26-19.94-7.34-16.18-.81-21.5,5.85-26.92,4.51-3.67,9.08-7.4,8.69-15.06-1.03-20.06,17.27-23.31,17.32-23.32.36-.07.22-.08.57.07.05.02,17.13,7.35,11.56,26.65-2.13,7.37,1.48,12.04,5.03,16.64,5.25,6.8,10.4,13.46-.43,27.55-8.93,11.62-4.63,16.03-.39,20.39,4.39,4.51,8.73,8.97,1.7,19.38-5.63,8.35-3.56,12.84-1.5,17.31,3.04,6.59,6.07,13.16-10.68,29.4-15.15,14.68-16.12,20.23-16.87,24.44-.8,4.57-1.66,7.07-10.8,13.74l-3.92,39.57Z"/>
          <path class="cls-1" d="M880.26,321.82s5.5-16.11,19.93-26.99c0,0-13.45,14.49-19.93,26.99Z"/>
          <path class="cls-1" d="M877.07,363.14s5.5-16.11,19.93-26.99c0,0-13.45,14.49-19.93,26.99Z"/>
          <path class="cls-1" d="M873.89,404.46s5.5-16.11,19.93-26.99c0,0-13.45,14.49-19.93,26.99Z"/>
          <path class="cls-1" d="M874.24,314.09s-2.23-15.26-13.28-27.33c0,0,9.58,15.13,13.28,27.33Z"/>
          <path class="cls-1" d="M866.4,360.18s-2.23-15.26-13.28-27.33c0,0,9.58,15.13,13.28,27.33Z"/>
          <path class="cls-1" d="M861.92,398.16s-2.23-15.26-13.28-27.33c0,0,9.58,15.13,13.28,27.33Z"/>
        </g>
        <g>
          <path class="cls-2" d="M1009,319.21c-9.22,1.53-11.09,5.9-12.96,10.28-2.15,5.03-4.3,10.08-15.34,11.65-10.88,1.55-11.23,6.98-11.58,12.48-.44,6.89-.88,13.88-17.15,15.18-16.23,1.3-17.59,8.86-18.98,16.58-1.11,6.2-2.24,12.49-10.02,16.28-15.23,7.44-11.76,21.62-11.12,23.82,1.86,1.31,14.16,9.22,26.15-2.8,6.11-6.12,12.42-5.15,18.65-4.2,7.75,1.19,15.35,2.35,21.84-12.58,6.51-14.97,13.26-13.13,19.92-11.31,3.58.98,7.13,1.95,10.6-.53v2.42c-3.64,2-7.36.99-11.11-.03-5.86-1.6-11.81-3.22-17.65,10.21-7.08,16.3-15.4,15.02-23.89,13.72-5.75-.88-11.58-1.77-17,3.66-14.19,14.22-28.87,2.83-28.92,2.79-.29-.22-.21-.11-.33-.47-.02-.05-6.04-17.63,12.01-26.45,6.89-3.37,7.94-9.17,8.96-14.89,1.52-8.46,3.01-16.74,20.72-18.16,14.6-1.17,15-7.32,15.38-13.39.4-6.28.79-12.49,13.23-14.26,9.97-1.42,11.91-5.97,13.85-10.5,2.12-4.96,4.23-9.91,14.73-11.5v1.97h0ZM1009,358.69l-60.47,42.97,60.47-44.68v1.71Z"/>
          <path class="cls-1" d="M977.16,376.77s-15.64,6.73-33.39,3.32c0,0,19.77.25,33.39-3.32Z"/>
          <path class="cls-1" d="M1009,351.79c-3.64,1.37-17.27,5.86-32.44,2.95,0,0,18.87.24,32.44-3.08v.13Z"/>
          <path class="cls-1" d="M975.46,386.42s-9.82,11.89-11.36,28.18c0,0,4.8-17.25,11.36-28.18Z"/>
          <path class="cls-1" d="M1009,370.89c-2.39,4.86-4.75,11.29-5.45,18.61,0,0,2.11-7.59,5.45-15.89v-2.72Z"/>
        </g>
      </g>
      <g>
        <g>
          <path class="cls-2" d="M18.59,560.55c1.28-1.33,2.69-2.74,4.24-4.25,15.77-15.29,13.03-21.24,10.27-27.21-2.29-4.97-4.59-9.95,1.65-19.2,6.15-9.11,2.36-13.01-1.49-16.96-4.82-4.95-9.7-9.96.24-22.91,9.92-12.91,5.23-18.99.43-25.2-3.85-4.98-7.76-10.04-5.36-18.35,4.7-16.29-8.14-23.22-10.22-24.22-2.22.5-16.33,4.32-15.46,21.27.23,4.48-.99,7.73-2.91,10.36v-3.99c.73-1.77,1.11-3.82.98-6.28-1.03-20.06,17.27-23.31,17.32-23.32.36-.07.23-.09.57.07.05.02,17.13,7.35,11.56,26.65-2.13,7.37,1.48,12.04,5.03,16.64,5.25,6.8,10.4,13.46-.43,27.55-8.93,11.62-4.63,16.03-.39,20.39,4.39,4.51,8.73,8.96,1.7,19.38-5.63,8.35-3.56,12.84-1.5,17.31,3.04,6.59,6.07,13.16-10.68,29.4-1.03,1-1.99,1.95-2.9,2.87h-2.69ZM0,542.39l11.43-96.95L.01,560.55H0v-18.16Z"/>
          <path class="cls-1" d="M10.69,483.38s5.5-16.11,19.93-26.99c0,0-13.45,14.5-19.93,26.99h0Z"/>
          <path class="cls-1" d="M7.51,524.7s5.5-16.11,19.93-26.99c0,0-13.45,14.5-19.93,26.99Z"/>
          <path class="cls-1" d="M6.72,560.55c2.85-5.67,8.4-14.64,17.53-21.52,0,0-9.86,10.62-16.76,21.52h-.77Z"/>
          <path class="cls-1" d="M4.68,475.65S3.73,469.16,0,461.29v2.71c1.82,3.81,3.53,7.87,4.68,11.65Z"/>
        </g>
        <g>
          <path class="cls-2" d="M198.46,474.94c-9.35-1.83-11.48-.49-14.34,1.3-3.85,2.42-8.92,5.6-30.58,4.18-21.92-1.44-24.49,4.58-27.07,10.63-2.15,5.03-4.3,10.08-15.34,11.65-10.89,1.55-11.23,6.98-11.58,12.48-.44,6.89-.88,13.88-17.15,15.18-16.23,1.3-17.59,8.86-18.98,16.58-.88,4.91-1.78,9.88-5.98,13.62h-3.21c5.4-3.44,6.36-8.74,7.29-13.96,1.52-8.46,3.01-16.74,20.72-18.16,14.61-1.17,15-7.32,15.38-13.39.4-6.28.79-12.49,13.23-14.26,9.97-1.42,11.91-5.97,13.85-10.5,2.85-6.68,5.69-13.33,28.96-11.8,21.05,1.39,25.82-1.61,29.44-3.88,3.93-2.47,6.35-3.51,17.44-1.21l31.98-23.63,2.24,2.74-34.05,24.19c-3.21,21.25-9.69,3.3-19.65,40.13-6.09,22.52-13.3,23.05-20.54,23.58-4.92.36-9.85.73-14.42,9.7-5.7,11.19-11.7,9.56-17.78,7.9-4.34-1.19-8.73-2.38-13.09,2.54h-2.53c5.32-7.35,10.75-5.87,16.13-4.4,5.31,1.45,10.56,2.88,15.55-6.91,5.07-9.94,10.54-10.34,15.99-10.74,6.56-.48,13.1-.97,18.83-22.16,9.72-35.94,16.23-21.04,19.31-38.07l-115.8,82.29h-.14l115.88-85.62h0Z"/>
          <path class="cls-1" d="M107.6,538.33s-15.64,6.73-33.39,3.32c0,0,19.77.25,33.39-3.32Z"/>
          <path class="cls-1" d="M140.38,512.97s-15.64,6.73-33.39,3.32c0,0,19.77.25,33.39-3.32Z"/>
          <path class="cls-1" d="M173.17,487.62s-15.64,6.73-33.39,3.32c0,0,19.77.25,33.39-3.32Z"/>
          <path class="cls-1" d="M105.9,547.98s-4,4.84-7.29,12.58h1.26c1.72-4.3,3.77-8.81,6.02-12.58Z"/>
          <path class="cls-1" d="M145.35,522.88s-9.82,11.89-11.36,28.18c0,0,4.8-17.25,11.36-28.18Z"/>
          <path class="cls-1" d="M176.52,500.73s-9.82,11.89-11.36,28.18c0,0,4.8-17.25,11.36-28.18Z"/>
        </g>
        <g>
          <path class="cls-2" d="M276.5,560.55c1.28-1.33,2.69-2.74,4.24-4.25,15.77-15.29,13.03-21.24,10.27-27.21-2.29-4.97-4.59-9.95,1.65-19.2,6.15-9.11,2.36-13.01-1.49-16.96-4.82-4.95-9.7-9.96.24-22.91,9.92-12.91,5.23-18.99.43-25.2-3.85-4.98-7.76-10.04-5.36-18.35,4.7-16.29-8.14-23.22-10.22-24.22-2.22.5-16.33,4.32-15.46,21.27.44,8.64-4.51,12.67-9.39,16.65-6.08,4.95-12.04,9.81-5.31,24.64,6.74,14.87.84,18.64-4.98,22.36-4.64,2.97-9.22,5.9-5.3,16.17,3.97,10.42.6,14.75-2.76,19.07-4.04,5.19-8.07,10.36,3.81,28.83,2.28,3.54,4.1,6.62,5.56,9.31h-2.2c-1.34-2.43-2.98-5.16-4.98-8.27-12.62-19.62-8.17-25.33-3.71-31.05,3.03-3.89,6.07-7.79,2.48-17.2-4.48-11.74.76-15.09,6.07-18.48,5.12-3.27,10.31-6.6,4.26-19.94-7.34-16.18-.81-21.5,5.85-26.92,4.51-3.67,9.08-7.4,8.69-15.06-1.03-20.06,17.27-23.31,17.32-23.32.36-.07.22-.09.57.07.05.02,17.13,7.35,11.56,26.65-2.13,7.37,1.48,12.04,5.03,16.64,5.25,6.8,10.4,13.46-.43,27.55-8.93,11.62-4.63,16.03-.39,20.39,4.39,4.51,8.73,8.96,1.7,19.38-5.63,8.35-3.56,12.84-1.5,17.31,3.04,6.59,6.07,13.16-10.68,29.4-1.03,1-1.99,1.95-2.9,2.87h-2.69,0ZM255.77,560.55l13.57-115.11-11.42,115.11h-2.15Z"/>
          <path class="cls-1" d="M268.6,483.38s5.5-16.11,19.93-26.99c0,0-13.45,14.5-19.93,26.99Z"/>
          <path class="cls-1" d="M265.42,524.7s5.5-16.11,19.93-26.99c0,0-13.45,14.5-19.93,26.99Z"/>
          <path class="cls-1" d="M264.63,560.55c2.85-5.67,8.4-14.64,17.53-21.52,0,0-9.86,10.62-16.76,21.52h-.77Z"/>
          <path class="cls-1" d="M262.59,475.65s-2.23-15.26-13.28-27.33c0,0,9.58,15.13,13.28,27.33Z"/>
          <path class="cls-1" d="M254.75,521.74s-2.24-15.26-13.28-27.33c0,0,9.58,15.13,13.28,27.33Z"/>
          <path class="cls-1" d="M250.26,559.72s-2.23-15.26-13.28-27.33c0,0,9.58,15.13,13.28,27.33Z"/>
        </g>
        <g>
          <path class="cls-2" d="M456.37,474.94c-9.35-1.83-11.48-.49-14.34,1.3-3.85,2.42-8.92,5.6-30.58,4.18-21.92-1.44-24.49,4.58-27.07,10.63-2.15,5.03-4.3,10.08-15.34,11.65-10.89,1.55-11.23,6.98-11.58,12.48-.44,6.89-.88,13.88-17.15,15.18-16.23,1.3-17.59,8.86-18.98,16.58-.88,4.91-1.78,9.88-5.98,13.62h-3.21c5.4-3.44,6.36-8.74,7.29-13.96,1.52-8.46,3.01-16.74,20.72-18.16,14.6-1.17,15-7.32,15.38-13.39.4-6.28.79-12.49,13.23-14.26,9.97-1.42,11.91-5.97,13.85-10.5,2.85-6.68,5.69-13.33,28.96-11.8,21.05,1.39,25.82-1.61,29.44-3.88,3.93-2.47,6.35-3.51,17.44-1.21l31.98-23.63,2.24,2.74-34.05,24.19c-3.21,21.25-9.69,3.3-19.65,40.13-6.09,22.52-13.3,23.05-20.54,23.58-4.92.36-9.85.73-14.42,9.7-5.7,11.19-11.7,9.56-17.78,7.9-4.34-1.19-8.73-2.38-13.09,2.54h-2.53c5.32-7.35,10.75-5.87,16.13-4.4,5.31,1.45,10.56,2.88,15.55-6.91,5.07-9.94,10.54-10.34,15.99-10.74,6.56-.48,13.1-.97,18.83-22.16,9.72-35.94,16.23-21.04,19.31-38.07l-115.8,82.29h-.14l115.88-85.62h0Z"/>
          <path class="cls-1" d="M365.51,538.33s-15.64,6.73-33.39,3.32c0,0,19.77.25,33.39-3.32Z"/>
          <path class="cls-1" d="M398.29,512.97s-15.64,6.73-33.38,3.32c0,0,19.77.25,33.38-3.32Z"/>
          <path class="cls-1" d="M431.08,487.62s-15.64,6.73-33.39,3.32c0,0,19.77.25,33.39-3.32Z"/>
          <path class="cls-1" d="M363.81,547.98s-4,4.84-7.29,12.58h1.26c1.72-4.3,3.77-8.81,6.03-12.58Z"/>
          <path class="cls-1" d="M403.26,522.88s-9.82,11.89-11.36,28.18c0,0,4.8-17.25,11.36-28.18Z"/>
          <path class="cls-1" d="M434.43,500.73s-9.82,11.89-11.36,28.18c0,0,4.8-17.25,11.36-28.18Z"/>
        </g>
        <g>
          <path class="cls-2" d="M534.41,560.55c1.28-1.33,2.69-2.74,4.24-4.25,15.77-15.29,13.03-21.24,10.27-27.21-2.29-4.97-4.59-9.95,1.65-19.2,6.15-9.11,2.36-13.01-1.49-16.96-4.82-4.95-9.7-9.96.24-22.91,9.92-12.91,5.23-18.99.43-25.2-3.85-4.98-7.76-10.04-5.36-18.35,4.7-16.29-8.14-23.22-10.21-24.22-2.22.5-16.33,4.32-15.46,21.27.44,8.64-4.51,12.67-9.39,16.65-6.08,4.95-12.04,9.81-5.31,24.64,6.74,14.87.84,18.64-4.97,22.36-4.64,2.97-9.22,5.9-5.31,16.17,3.97,10.42.6,14.75-2.76,19.07-4.04,5.19-8.07,10.36,3.81,28.83,2.28,3.54,4.1,6.62,5.56,9.31h-2.2c-1.34-2.43-2.98-5.16-4.97-8.27-12.62-19.62-8.18-25.33-3.72-31.05,3.03-3.89,6.07-7.79,2.48-17.2-4.48-11.74.76-15.09,6.07-18.48,5.12-3.27,10.31-6.6,4.26-19.94-7.34-16.18-.81-21.5,5.85-26.92,4.51-3.67,9.08-7.4,8.69-15.06-1.03-20.06,17.27-23.31,17.32-23.32.36-.07.22-.09.57.07.05.02,17.13,7.35,11.56,26.65-2.13,7.37,1.48,12.04,5.03,16.64,5.25,6.8,10.4,13.46-.43,27.55-8.93,11.62-4.63,16.03-.39,20.39,4.39,4.51,8.73,8.96,1.7,19.38-5.63,8.35-3.56,12.84-1.5,17.31,3.04,6.59,6.07,13.16-10.68,29.4-1.03,1-1.99,1.95-2.9,2.87h-2.69ZM513.68,560.55l13.57-115.11-11.42,115.11h-2.15Z"/>
          <path class="cls-1" d="M526.51,483.38s5.5-16.11,19.93-26.99c0,0-13.45,14.5-19.93,26.99Z"/>
          <path class="cls-1" d="M523.33,524.7s5.5-16.11,19.93-26.99c0,0-13.45,14.5-19.93,26.99Z"/>
          <path class="cls-1" d="M522.54,560.55c2.85-5.67,8.4-14.64,17.53-21.52,0,0-9.85,10.62-16.76,21.52h-.77Z"/>
          <path class="cls-1" d="M520.5,475.65s-2.24-15.26-13.28-27.33c0,0,9.58,15.13,13.28,27.33Z"/>
          <path class="cls-1" d="M512.66,521.74s-2.24-15.26-13.28-27.33c0,0,9.58,15.13,13.28,27.33Z"/>
          <path class="cls-1" d="M508.17,559.72s-2.23-15.26-13.28-27.33c0,0,9.58,15.13,13.28,27.33Z"/>
        </g>
        <g>
          <path class="cls-2" d="M714.28,474.94c-9.35-1.83-11.48-.49-14.34,1.3-3.85,2.42-8.92,5.6-30.58,4.18-21.92-1.44-24.49,4.58-27.07,10.63-2.15,5.03-4.3,10.08-15.34,11.65-10.89,1.55-11.23,6.98-11.58,12.48-.44,6.89-.88,13.88-17.15,15.18-16.23,1.3-17.59,8.86-18.98,16.58-.88,4.91-1.78,9.88-5.98,13.62h-3.21c5.4-3.44,6.36-8.74,7.29-13.96,1.52-8.46,3.01-16.74,20.72-18.16,14.6-1.17,15-7.32,15.38-13.39.4-6.28.79-12.49,13.23-14.26,9.97-1.42,11.91-5.97,13.85-10.5,2.85-6.68,5.69-13.33,28.96-11.8,21.05,1.39,25.82-1.61,29.44-3.88,3.93-2.47,6.35-3.51,17.44-1.21l31.98-23.63,2.24,2.74-34.05,24.19c-3.21,21.25-9.69,3.3-19.65,40.13-6.09,22.52-13.3,23.05-20.54,23.58-4.92.36-9.85.73-14.42,9.7-5.7,11.19-11.7,9.56-17.78,7.9-4.34-1.19-8.73-2.38-13.09,2.54h-2.53c5.32-7.35,10.75-5.87,16.13-4.4,5.31,1.45,10.56,2.88,15.55-6.91,5.07-9.94,10.54-10.34,15.99-10.74,6.56-.48,13.1-.97,18.83-22.16,9.72-35.94,16.23-21.04,19.31-38.07l-115.8,82.29h-.14l115.88-85.62h0Z"/>
          <path class="cls-1" d="M623.42,538.33s-15.64,6.73-33.39,3.32c0,0,19.77.25,33.39-3.32Z"/>
          <path class="cls-1" d="M656.2,512.97s-15.64,6.73-33.38,3.32c0,0,19.77.25,33.38-3.32Z"/>
          <path class="cls-1" d="M688.99,487.62s-15.64,6.73-33.38,3.32c0,0,19.77.25,33.38-3.32Z"/>
          <path class="cls-1" d="M621.72,547.98s-4,4.84-7.29,12.58h1.26c1.72-4.3,3.77-8.81,6.03-12.58Z"/>
          <path class="cls-1" d="M661.17,522.88s-9.82,11.89-11.36,28.18c0,0,4.8-17.25,11.36-28.18Z"/>
          <path class="cls-1" d="M692.34,500.73s-9.82,11.89-11.36,28.18c0,0,4.8-17.25,11.36-28.18Z"/>
        </g>
        <g>
          <path class="cls-2" d="M792.32,560.55c1.28-1.33,2.69-2.74,4.24-4.25,15.77-15.29,13.03-21.24,10.27-27.21-2.29-4.97-4.59-9.95,1.65-19.2,6.15-9.11,2.36-13.01-1.49-16.96-4.82-4.95-9.7-9.96.24-22.91,9.92-12.91,5.23-18.99.43-25.2-3.85-4.98-7.76-10.04-5.36-18.35,4.7-16.29-8.14-23.22-10.22-24.22-2.22.5-16.33,4.32-15.46,21.27.44,8.64-4.51,12.67-9.39,16.65-6.08,4.95-12.04,9.81-5.31,24.64,6.74,14.87.84,18.64-4.97,22.36-4.64,2.97-9.22,5.9-5.31,16.17,3.97,10.42.6,14.75-2.76,19.07-4.04,5.19-8.07,10.36,3.81,28.83,2.28,3.54,4.1,6.62,5.56,9.31h-2.2c-1.34-2.43-2.98-5.16-4.97-8.27-12.62-19.62-8.17-25.33-3.72-31.05,3.03-3.89,6.07-7.79,2.48-17.2-4.48-11.74.76-15.09,6.07-18.48,5.12-3.27,10.31-6.6,4.26-19.94-7.34-16.18-.81-21.5,5.85-26.92,4.51-3.67,9.08-7.4,8.69-15.06-1.03-20.06,17.27-23.31,17.32-23.32.36-.07.22-.09.57.07.05.02,17.13,7.35,11.56,26.65-2.13,7.37,1.48,12.04,5.03,16.64,5.25,6.8,10.4,13.46-.43,27.55-8.93,11.62-4.63,16.03-.39,20.39,4.39,4.51,8.73,8.96,1.7,19.38-5.63,8.35-3.56,12.84-1.5,17.31,3.04,6.59,6.07,13.16-10.68,29.4-1.03,1-1.99,1.95-2.9,2.87h-2.69ZM771.59,560.55l13.57-115.11-11.42,115.11h-2.15Z"/>
          <path class="cls-1" d="M784.42,483.38s5.5-16.11,19.93-26.99c0,0-13.45,14.5-19.93,26.99Z"/>
          <path class="cls-1" d="M781.24,524.7s5.5-16.11,19.93-26.99c0,0-13.45,14.5-19.93,26.99Z"/>
          <path class="cls-1" d="M780.46,560.55c2.85-5.67,8.4-14.64,17.53-21.52,0,0-9.85,10.62-16.76,21.52h-.77Z"/>
          <path class="cls-1" d="M778.41,475.65s-2.24-15.26-13.28-27.33c0,0,9.58,15.13,13.28,27.33Z"/>
          <path class="cls-1" d="M770.57,521.74s-2.23-15.26-13.28-27.33c0,0,9.58,15.13,13.28,27.33Z"/>
          <path class="cls-1" d="M766.08,559.72s-2.24-15.26-13.28-27.33c0,0,9.58,15.13,13.28,27.33Z"/>
        </g>
        <g>
          <path class="cls-2" d="M972.19,474.94c-9.35-1.83-11.48-.49-14.34,1.3-3.85,2.42-8.92,5.6-30.58,4.18-21.92-1.44-24.49,4.58-27.07,10.63-2.15,5.03-4.3,10.08-15.34,11.65-10.89,1.55-11.23,6.98-11.58,12.48-.44,6.89-.88,13.88-17.15,15.18-16.23,1.3-17.59,8.86-18.98,16.58-.88,4.91-1.78,9.88-5.98,13.62h-3.21c5.4-3.44,6.36-8.74,7.29-13.96,1.52-8.46,3.01-16.74,20.72-18.16,14.6-1.17,15-7.32,15.38-13.39.4-6.28.79-12.49,13.23-14.26,9.97-1.42,11.91-5.97,13.85-10.5,2.85-6.68,5.69-13.33,28.96-11.8,21.05,1.39,25.82-1.61,29.44-3.88,3.93-2.47,6.35-3.51,17.44-1.21l31.98-23.63,2.24,2.74-34.05,24.19c-3.21,21.25-9.69,3.3-19.65,40.13-6.09,22.52-13.3,23.05-20.54,23.58-4.92.36-9.85.73-14.42,9.7-5.7,11.19-11.7,9.56-17.78,7.9-4.34-1.19-8.73-2.38-13.09,2.54h-2.53c5.32-7.35,10.75-5.87,16.13-4.4,5.31,1.45,10.56,2.88,15.55-6.91,5.07-9.94,10.54-10.34,15.99-10.74,6.56-.48,13.1-.97,18.83-22.16,9.72-35.94,16.23-21.04,19.31-38.07l-115.8,82.29h-.14l115.88-85.62h0Z"/>
          <path class="cls-1" d="M881.33,538.33s-15.64,6.73-33.39,3.32c0,0,19.77.25,33.39-3.32Z"/>
          <path class="cls-1" d="M914.11,512.97s-15.64,6.73-33.39,3.32c0,0,19.77.25,33.39-3.32Z"/>
          <path class="cls-1" d="M946.9,487.62s-15.64,6.73-33.38,3.32c0,0,19.77.25,33.38-3.32Z"/>
          <path class="cls-1" d="M879.63,547.98s-4,4.84-7.29,12.58h1.26c1.72-4.3,3.77-8.81,6.03-12.58Z"/>
          <path class="cls-1" d="M919.08,522.88s-9.82,11.89-11.36,28.18c0,0,4.8-17.25,11.36-28.18Z"/>
          <path class="cls-1" d="M950.25,500.73s-9.82,11.89-11.36,28.18c0,0,4.8-17.25,11.36-28.18Z"/>
        </g>
      </g>
    </g>
    <g>
      <path class="cls-2" d="M960.1,279.72c7.63-5.71,8.07-8.18,8.65-11.51.79-4.48,1.83-10.37,17.41-25.48,15.77-15.29,13.03-21.24,10.27-27.21-2.29-4.97-4.59-9.95,1.65-19.2,6.15-9.11,2.36-13.01-1.49-16.96-4.82-4.95-9.7-9.96.24-22.91,9.92-12.91,5.23-18.99.43-25.2-3.85-4.98-7.76-10.04-5.36-18.35,4.7-16.29-8.14-23.22-10.22-24.22-2.22.5-16.33,4.32-15.46,21.27.45,8.64-4.51,12.67-9.39,16.65-6.08,4.95-12.04,9.81-5.31,24.64,6.74,14.86.84,18.64-4.98,22.36-4.64,2.97-9.22,5.9-5.31,16.17,3.98,10.42.6,14.75-2.76,19.07-4.04,5.19-8.07,10.36,3.81,28.83,20.14,31.32,4.72,26.15,15.28,39.85l17.18-145.66-14.67,147.85h0ZM955.92,321.86l-3.53-.17,4.89-41.48c-13.61-16.64,4.05-9.4-16.58-41.49-12.62-19.62-8.17-25.33-3.71-31.05,3.03-3.89,6.07-7.79,2.48-17.2-4.48-11.74.76-15.09,6.07-18.48,5.12-3.27,10.31-6.6,4.26-19.94-7.34-16.18-.81-21.5,5.85-26.92,4.51-3.67,9.08-7.4,8.69-15.06-1.03-20.06,17.27-23.31,17.32-23.32.36-.07.22-.09.57.07.05.02,17.13,7.35,11.56,26.65-2.13,7.37,1.48,12.04,5.03,16.64,5.25,6.8,10.4,13.46-.43,27.55-8.93,11.62-4.63,16.03-.39,20.39,4.39,4.51,8.73,8.96,1.7,19.38-5.63,8.35-3.56,12.84-1.5,17.31,3.04,6.59,6.07,13.16-10.68,29.4-15.15,14.68-16.12,20.23-16.87,24.44-.8,4.57-1.66,7.07-10.8,13.74l-3.92,39.57h0Z"/>
      <path class="cls-1" d="M974.03,169.81s5.5-16.11,19.93-26.99c0,0-13.45,14.5-19.93,26.99Z"/>
      <path class="cls-1" d="M970.85,211.13s5.5-16.11,19.93-26.99c0,0-13.45,14.5-19.93,26.99Z"/>
      <path class="cls-1" d="M967.66,252.45s5.5-16.11,19.93-26.99c0,0-13.45,14.5-19.93,26.99Z"/>
      <path class="cls-1" d="M968.01,162.07s-2.23-15.26-13.28-27.33c0,0,9.58,15.13,13.28,27.33Z"/>
      <path class="cls-1" d="M960.17,208.17s-2.23-15.26-13.28-27.33c0,0,9.58,15.13,13.28,27.33Z"/>
      <path class="cls-1" d="M955.69,246.15s-2.23-15.26-13.28-27.33c0,0,9.58,15.13,13.28,27.33Z"/>
    </g>
  </g>
</svg>